M48
;GenerationSoftware,Autodesk,EAGLE,9.6.2*%
;CreationDate,2022-07-24T02:56:15Z*%
FMAT,2
ICI,OFF
METRIC,TZ,000.000
T19C0.350
T18C0.508
T17C0.711
T16C0.800
T15C0.813
T14C0.850
T13C0.864
T12C0.889
T11C1.000
T10C1.200
T9C1.270
T8C1.500
T7C1.680
T6C1.700
T5C1.800
T4C3.000
T3C3.200
T2C4.500
%
G90
M71
T2
X54600Y33500
X47400Y33500
X40412Y9726
X47612Y9726
T3
X3500Y71500
X71500Y71500
X71500Y3500
T4
X71940Y45270
T5
X39582Y23940
X39582Y18940
T6
X71774Y13654
T7
X62824Y24997
X67524Y24997
X72224Y24997
T8
X3500Y3500
X62524Y13654
T9
X9095Y12623
X9095Y17703
X9095Y5003
X29415Y5003
X29415Y25323
X29415Y15163
T10
X12460Y44340
X25160Y64660
X15000Y64660
X4840Y64660
X25160Y44340
X17540Y44340
T11
X42730Y44000
X30030Y44000
X32570Y44000
X35110Y44000
X37650Y44000
X40190Y44000
X65590Y64320
X42730Y64320
X45270Y64320
X47810Y64320
X50350Y64320
X52890Y64320
X55430Y64320
X57970Y64320
X60510Y64320
X63050Y64320
X40190Y64320
X37650Y64320
X35110Y64320
X32570Y64320
X68130Y64320
X30030Y64320
X57970Y44000
X55430Y44000
X52890Y44000
X50350Y44000
X47810Y44000
X45270Y44000
T12
X5781Y61329
X27347Y54583
X15917Y54583
X12670Y59328
X12670Y47898
X24725Y19226
X13295Y19226
X24770Y15978
X13340Y15978
X9162Y57780
X9162Y46350
X5781Y49899
X30472Y48371
X30472Y59801
X13315Y22800
X24754Y26179
X13324Y26179
X13404Y12553
X24834Y12553
X54610Y58928
X66040Y58928
X54610Y52197
X66040Y52197
X24745Y22800
X37472Y48371
X37472Y59801
X33889Y48409
X33889Y59839
X54500Y49000
X65930Y49000
T13
X68906Y33294
X68906Y38298
T14
X26830Y35703
X26830Y32203
T15
X18267Y35705
X17425Y51184
X18267Y33698
X13489Y72000
X11000Y72000
X15466Y4665
X17371Y5935
X15466Y7205
X25537Y49581
X24267Y51486
X22997Y49581
X32988Y72000
X31007Y72000
X29000Y72000
X18695Y49279
X42988Y72000
X41007Y72000
X39000Y72000
X52988Y72000
X18267Y37686
X51007Y72000
X49000Y72000
X16155Y49279
X7509Y36086
X9490Y36086
X11497Y36086
T16
X69024Y18404
X64324Y8904
X64324Y18404
X68524Y13654
X69024Y8904
T17
X46381Y57080
X46381Y54540
X46381Y52000
T18
X71500Y49754
X68960Y49754
X71500Y58754
X68960Y58754
T19
X66294Y11557
X57607Y10439
M30