G04 EAGLE Gerber RS-274X export*
G75*
%MOMM*%
%FSLAX34Y34*%
%LPD*%
%IN*%
%IPPOS*%
%AMOC8*
5,1,8,0,0,1.08239X$1,22.5*%
G01*
%ADD10C,0.000000*%
%ADD11C,0.254000*%


D10*
X0Y0D02*
X750000Y0D01*
X750000Y750000D01*
X0Y750000D01*
X0Y0D01*
X19000Y715000D02*
X19005Y715393D01*
X19019Y715785D01*
X19043Y716177D01*
X19077Y716568D01*
X19120Y716959D01*
X19173Y717348D01*
X19236Y717735D01*
X19307Y718121D01*
X19389Y718506D01*
X19479Y718888D01*
X19580Y719267D01*
X19689Y719645D01*
X19808Y720019D01*
X19935Y720390D01*
X20072Y720758D01*
X20218Y721123D01*
X20373Y721484D01*
X20536Y721841D01*
X20708Y722194D01*
X20889Y722542D01*
X21079Y722886D01*
X21276Y723226D01*
X21482Y723560D01*
X21696Y723889D01*
X21919Y724213D01*
X22149Y724531D01*
X22386Y724844D01*
X22632Y725150D01*
X22885Y725451D01*
X23145Y725745D01*
X23412Y726033D01*
X23686Y726314D01*
X23967Y726588D01*
X24255Y726855D01*
X24549Y727115D01*
X24850Y727368D01*
X25156Y727614D01*
X25469Y727851D01*
X25787Y728081D01*
X26111Y728304D01*
X26440Y728518D01*
X26774Y728724D01*
X27114Y728921D01*
X27458Y729111D01*
X27806Y729292D01*
X28159Y729464D01*
X28516Y729627D01*
X28877Y729782D01*
X29242Y729928D01*
X29610Y730065D01*
X29981Y730192D01*
X30355Y730311D01*
X30733Y730420D01*
X31112Y730521D01*
X31494Y730611D01*
X31879Y730693D01*
X32265Y730764D01*
X32652Y730827D01*
X33041Y730880D01*
X33432Y730923D01*
X33823Y730957D01*
X34215Y730981D01*
X34607Y730995D01*
X35000Y731000D01*
X35393Y730995D01*
X35785Y730981D01*
X36177Y730957D01*
X36568Y730923D01*
X36959Y730880D01*
X37348Y730827D01*
X37735Y730764D01*
X38121Y730693D01*
X38506Y730611D01*
X38888Y730521D01*
X39267Y730420D01*
X39645Y730311D01*
X40019Y730192D01*
X40390Y730065D01*
X40758Y729928D01*
X41123Y729782D01*
X41484Y729627D01*
X41841Y729464D01*
X42194Y729292D01*
X42542Y729111D01*
X42886Y728921D01*
X43226Y728724D01*
X43560Y728518D01*
X43889Y728304D01*
X44213Y728081D01*
X44531Y727851D01*
X44844Y727614D01*
X45150Y727368D01*
X45451Y727115D01*
X45745Y726855D01*
X46033Y726588D01*
X46314Y726314D01*
X46588Y726033D01*
X46855Y725745D01*
X47115Y725451D01*
X47368Y725150D01*
X47614Y724844D01*
X47851Y724531D01*
X48081Y724213D01*
X48304Y723889D01*
X48518Y723560D01*
X48724Y723226D01*
X48921Y722886D01*
X49111Y722542D01*
X49292Y722194D01*
X49464Y721841D01*
X49627Y721484D01*
X49782Y721123D01*
X49928Y720758D01*
X50065Y720390D01*
X50192Y720019D01*
X50311Y719645D01*
X50420Y719267D01*
X50521Y718888D01*
X50611Y718506D01*
X50693Y718121D01*
X50764Y717735D01*
X50827Y717348D01*
X50880Y716959D01*
X50923Y716568D01*
X50957Y716177D01*
X50981Y715785D01*
X50995Y715393D01*
X51000Y715000D01*
X50995Y714607D01*
X50981Y714215D01*
X50957Y713823D01*
X50923Y713432D01*
X50880Y713041D01*
X50827Y712652D01*
X50764Y712265D01*
X50693Y711879D01*
X50611Y711494D01*
X50521Y711112D01*
X50420Y710733D01*
X50311Y710355D01*
X50192Y709981D01*
X50065Y709610D01*
X49928Y709242D01*
X49782Y708877D01*
X49627Y708516D01*
X49464Y708159D01*
X49292Y707806D01*
X49111Y707458D01*
X48921Y707114D01*
X48724Y706774D01*
X48518Y706440D01*
X48304Y706111D01*
X48081Y705787D01*
X47851Y705469D01*
X47614Y705156D01*
X47368Y704850D01*
X47115Y704549D01*
X46855Y704255D01*
X46588Y703967D01*
X46314Y703686D01*
X46033Y703412D01*
X45745Y703145D01*
X45451Y702885D01*
X45150Y702632D01*
X44844Y702386D01*
X44531Y702149D01*
X44213Y701919D01*
X43889Y701696D01*
X43560Y701482D01*
X43226Y701276D01*
X42886Y701079D01*
X42542Y700889D01*
X42194Y700708D01*
X41841Y700536D01*
X41484Y700373D01*
X41123Y700218D01*
X40758Y700072D01*
X40390Y699935D01*
X40019Y699808D01*
X39645Y699689D01*
X39267Y699580D01*
X38888Y699479D01*
X38506Y699389D01*
X38121Y699307D01*
X37735Y699236D01*
X37348Y699173D01*
X36959Y699120D01*
X36568Y699077D01*
X36177Y699043D01*
X35785Y699019D01*
X35393Y699005D01*
X35000Y699000D01*
X34607Y699005D01*
X34215Y699019D01*
X33823Y699043D01*
X33432Y699077D01*
X33041Y699120D01*
X32652Y699173D01*
X32265Y699236D01*
X31879Y699307D01*
X31494Y699389D01*
X31112Y699479D01*
X30733Y699580D01*
X30355Y699689D01*
X29981Y699808D01*
X29610Y699935D01*
X29242Y700072D01*
X28877Y700218D01*
X28516Y700373D01*
X28159Y700536D01*
X27806Y700708D01*
X27458Y700889D01*
X27114Y701079D01*
X26774Y701276D01*
X26440Y701482D01*
X26111Y701696D01*
X25787Y701919D01*
X25469Y702149D01*
X25156Y702386D01*
X24850Y702632D01*
X24549Y702885D01*
X24255Y703145D01*
X23967Y703412D01*
X23686Y703686D01*
X23412Y703967D01*
X23145Y704255D01*
X22885Y704549D01*
X22632Y704850D01*
X22386Y705156D01*
X22149Y705469D01*
X21919Y705787D01*
X21696Y706111D01*
X21482Y706440D01*
X21276Y706774D01*
X21079Y707114D01*
X20889Y707458D01*
X20708Y707806D01*
X20536Y708159D01*
X20373Y708516D01*
X20218Y708877D01*
X20072Y709242D01*
X19935Y709610D01*
X19808Y709981D01*
X19689Y710355D01*
X19580Y710733D01*
X19479Y711112D01*
X19389Y711494D01*
X19307Y711879D01*
X19236Y712265D01*
X19173Y712652D01*
X19120Y713041D01*
X19077Y713432D01*
X19043Y713823D01*
X19019Y714215D01*
X19005Y714607D01*
X19000Y715000D01*
X699000Y715000D02*
X699005Y715393D01*
X699019Y715785D01*
X699043Y716177D01*
X699077Y716568D01*
X699120Y716959D01*
X699173Y717348D01*
X699236Y717735D01*
X699307Y718121D01*
X699389Y718506D01*
X699479Y718888D01*
X699580Y719267D01*
X699689Y719645D01*
X699808Y720019D01*
X699935Y720390D01*
X700072Y720758D01*
X700218Y721123D01*
X700373Y721484D01*
X700536Y721841D01*
X700708Y722194D01*
X700889Y722542D01*
X701079Y722886D01*
X701276Y723226D01*
X701482Y723560D01*
X701696Y723889D01*
X701919Y724213D01*
X702149Y724531D01*
X702386Y724844D01*
X702632Y725150D01*
X702885Y725451D01*
X703145Y725745D01*
X703412Y726033D01*
X703686Y726314D01*
X703967Y726588D01*
X704255Y726855D01*
X704549Y727115D01*
X704850Y727368D01*
X705156Y727614D01*
X705469Y727851D01*
X705787Y728081D01*
X706111Y728304D01*
X706440Y728518D01*
X706774Y728724D01*
X707114Y728921D01*
X707458Y729111D01*
X707806Y729292D01*
X708159Y729464D01*
X708516Y729627D01*
X708877Y729782D01*
X709242Y729928D01*
X709610Y730065D01*
X709981Y730192D01*
X710355Y730311D01*
X710733Y730420D01*
X711112Y730521D01*
X711494Y730611D01*
X711879Y730693D01*
X712265Y730764D01*
X712652Y730827D01*
X713041Y730880D01*
X713432Y730923D01*
X713823Y730957D01*
X714215Y730981D01*
X714607Y730995D01*
X715000Y731000D01*
X715393Y730995D01*
X715785Y730981D01*
X716177Y730957D01*
X716568Y730923D01*
X716959Y730880D01*
X717348Y730827D01*
X717735Y730764D01*
X718121Y730693D01*
X718506Y730611D01*
X718888Y730521D01*
X719267Y730420D01*
X719645Y730311D01*
X720019Y730192D01*
X720390Y730065D01*
X720758Y729928D01*
X721123Y729782D01*
X721484Y729627D01*
X721841Y729464D01*
X722194Y729292D01*
X722542Y729111D01*
X722886Y728921D01*
X723226Y728724D01*
X723560Y728518D01*
X723889Y728304D01*
X724213Y728081D01*
X724531Y727851D01*
X724844Y727614D01*
X725150Y727368D01*
X725451Y727115D01*
X725745Y726855D01*
X726033Y726588D01*
X726314Y726314D01*
X726588Y726033D01*
X726855Y725745D01*
X727115Y725451D01*
X727368Y725150D01*
X727614Y724844D01*
X727851Y724531D01*
X728081Y724213D01*
X728304Y723889D01*
X728518Y723560D01*
X728724Y723226D01*
X728921Y722886D01*
X729111Y722542D01*
X729292Y722194D01*
X729464Y721841D01*
X729627Y721484D01*
X729782Y721123D01*
X729928Y720758D01*
X730065Y720390D01*
X730192Y720019D01*
X730311Y719645D01*
X730420Y719267D01*
X730521Y718888D01*
X730611Y718506D01*
X730693Y718121D01*
X730764Y717735D01*
X730827Y717348D01*
X730880Y716959D01*
X730923Y716568D01*
X730957Y716177D01*
X730981Y715785D01*
X730995Y715393D01*
X731000Y715000D01*
X730995Y714607D01*
X730981Y714215D01*
X730957Y713823D01*
X730923Y713432D01*
X730880Y713041D01*
X730827Y712652D01*
X730764Y712265D01*
X730693Y711879D01*
X730611Y711494D01*
X730521Y711112D01*
X730420Y710733D01*
X730311Y710355D01*
X730192Y709981D01*
X730065Y709610D01*
X729928Y709242D01*
X729782Y708877D01*
X729627Y708516D01*
X729464Y708159D01*
X729292Y707806D01*
X729111Y707458D01*
X728921Y707114D01*
X728724Y706774D01*
X728518Y706440D01*
X728304Y706111D01*
X728081Y705787D01*
X727851Y705469D01*
X727614Y705156D01*
X727368Y704850D01*
X727115Y704549D01*
X726855Y704255D01*
X726588Y703967D01*
X726314Y703686D01*
X726033Y703412D01*
X725745Y703145D01*
X725451Y702885D01*
X725150Y702632D01*
X724844Y702386D01*
X724531Y702149D01*
X724213Y701919D01*
X723889Y701696D01*
X723560Y701482D01*
X723226Y701276D01*
X722886Y701079D01*
X722542Y700889D01*
X722194Y700708D01*
X721841Y700536D01*
X721484Y700373D01*
X721123Y700218D01*
X720758Y700072D01*
X720390Y699935D01*
X720019Y699808D01*
X719645Y699689D01*
X719267Y699580D01*
X718888Y699479D01*
X718506Y699389D01*
X718121Y699307D01*
X717735Y699236D01*
X717348Y699173D01*
X716959Y699120D01*
X716568Y699077D01*
X716177Y699043D01*
X715785Y699019D01*
X715393Y699005D01*
X715000Y699000D01*
X714607Y699005D01*
X714215Y699019D01*
X713823Y699043D01*
X713432Y699077D01*
X713041Y699120D01*
X712652Y699173D01*
X712265Y699236D01*
X711879Y699307D01*
X711494Y699389D01*
X711112Y699479D01*
X710733Y699580D01*
X710355Y699689D01*
X709981Y699808D01*
X709610Y699935D01*
X709242Y700072D01*
X708877Y700218D01*
X708516Y700373D01*
X708159Y700536D01*
X707806Y700708D01*
X707458Y700889D01*
X707114Y701079D01*
X706774Y701276D01*
X706440Y701482D01*
X706111Y701696D01*
X705787Y701919D01*
X705469Y702149D01*
X705156Y702386D01*
X704850Y702632D01*
X704549Y702885D01*
X704255Y703145D01*
X703967Y703412D01*
X703686Y703686D01*
X703412Y703967D01*
X703145Y704255D01*
X702885Y704549D01*
X702632Y704850D01*
X702386Y705156D01*
X702149Y705469D01*
X701919Y705787D01*
X701696Y706111D01*
X701482Y706440D01*
X701276Y706774D01*
X701079Y707114D01*
X700889Y707458D01*
X700708Y707806D01*
X700536Y708159D01*
X700373Y708516D01*
X700218Y708877D01*
X700072Y709242D01*
X699935Y709610D01*
X699808Y709981D01*
X699689Y710355D01*
X699580Y710733D01*
X699479Y711112D01*
X699389Y711494D01*
X699307Y711879D01*
X699236Y712265D01*
X699173Y712652D01*
X699120Y713041D01*
X699077Y713432D01*
X699043Y713823D01*
X699019Y714215D01*
X699005Y714607D01*
X699000Y715000D01*
X699000Y35000D02*
X699005Y35393D01*
X699019Y35785D01*
X699043Y36177D01*
X699077Y36568D01*
X699120Y36959D01*
X699173Y37348D01*
X699236Y37735D01*
X699307Y38121D01*
X699389Y38506D01*
X699479Y38888D01*
X699580Y39267D01*
X699689Y39645D01*
X699808Y40019D01*
X699935Y40390D01*
X700072Y40758D01*
X700218Y41123D01*
X700373Y41484D01*
X700536Y41841D01*
X700708Y42194D01*
X700889Y42542D01*
X701079Y42886D01*
X701276Y43226D01*
X701482Y43560D01*
X701696Y43889D01*
X701919Y44213D01*
X702149Y44531D01*
X702386Y44844D01*
X702632Y45150D01*
X702885Y45451D01*
X703145Y45745D01*
X703412Y46033D01*
X703686Y46314D01*
X703967Y46588D01*
X704255Y46855D01*
X704549Y47115D01*
X704850Y47368D01*
X705156Y47614D01*
X705469Y47851D01*
X705787Y48081D01*
X706111Y48304D01*
X706440Y48518D01*
X706774Y48724D01*
X707114Y48921D01*
X707458Y49111D01*
X707806Y49292D01*
X708159Y49464D01*
X708516Y49627D01*
X708877Y49782D01*
X709242Y49928D01*
X709610Y50065D01*
X709981Y50192D01*
X710355Y50311D01*
X710733Y50420D01*
X711112Y50521D01*
X711494Y50611D01*
X711879Y50693D01*
X712265Y50764D01*
X712652Y50827D01*
X713041Y50880D01*
X713432Y50923D01*
X713823Y50957D01*
X714215Y50981D01*
X714607Y50995D01*
X715000Y51000D01*
X715393Y50995D01*
X715785Y50981D01*
X716177Y50957D01*
X716568Y50923D01*
X716959Y50880D01*
X717348Y50827D01*
X717735Y50764D01*
X718121Y50693D01*
X718506Y50611D01*
X718888Y50521D01*
X719267Y50420D01*
X719645Y50311D01*
X720019Y50192D01*
X720390Y50065D01*
X720758Y49928D01*
X721123Y49782D01*
X721484Y49627D01*
X721841Y49464D01*
X722194Y49292D01*
X722542Y49111D01*
X722886Y48921D01*
X723226Y48724D01*
X723560Y48518D01*
X723889Y48304D01*
X724213Y48081D01*
X724531Y47851D01*
X724844Y47614D01*
X725150Y47368D01*
X725451Y47115D01*
X725745Y46855D01*
X726033Y46588D01*
X726314Y46314D01*
X726588Y46033D01*
X726855Y45745D01*
X727115Y45451D01*
X727368Y45150D01*
X727614Y44844D01*
X727851Y44531D01*
X728081Y44213D01*
X728304Y43889D01*
X728518Y43560D01*
X728724Y43226D01*
X728921Y42886D01*
X729111Y42542D01*
X729292Y42194D01*
X729464Y41841D01*
X729627Y41484D01*
X729782Y41123D01*
X729928Y40758D01*
X730065Y40390D01*
X730192Y40019D01*
X730311Y39645D01*
X730420Y39267D01*
X730521Y38888D01*
X730611Y38506D01*
X730693Y38121D01*
X730764Y37735D01*
X730827Y37348D01*
X730880Y36959D01*
X730923Y36568D01*
X730957Y36177D01*
X730981Y35785D01*
X730995Y35393D01*
X731000Y35000D01*
X730995Y34607D01*
X730981Y34215D01*
X730957Y33823D01*
X730923Y33432D01*
X730880Y33041D01*
X730827Y32652D01*
X730764Y32265D01*
X730693Y31879D01*
X730611Y31494D01*
X730521Y31112D01*
X730420Y30733D01*
X730311Y30355D01*
X730192Y29981D01*
X730065Y29610D01*
X729928Y29242D01*
X729782Y28877D01*
X729627Y28516D01*
X729464Y28159D01*
X729292Y27806D01*
X729111Y27458D01*
X728921Y27114D01*
X728724Y26774D01*
X728518Y26440D01*
X728304Y26111D01*
X728081Y25787D01*
X727851Y25469D01*
X727614Y25156D01*
X727368Y24850D01*
X727115Y24549D01*
X726855Y24255D01*
X726588Y23967D01*
X726314Y23686D01*
X726033Y23412D01*
X725745Y23145D01*
X725451Y22885D01*
X725150Y22632D01*
X724844Y22386D01*
X724531Y22149D01*
X724213Y21919D01*
X723889Y21696D01*
X723560Y21482D01*
X723226Y21276D01*
X722886Y21079D01*
X722542Y20889D01*
X722194Y20708D01*
X721841Y20536D01*
X721484Y20373D01*
X721123Y20218D01*
X720758Y20072D01*
X720390Y19935D01*
X720019Y19808D01*
X719645Y19689D01*
X719267Y19580D01*
X718888Y19479D01*
X718506Y19389D01*
X718121Y19307D01*
X717735Y19236D01*
X717348Y19173D01*
X716959Y19120D01*
X716568Y19077D01*
X716177Y19043D01*
X715785Y19019D01*
X715393Y19005D01*
X715000Y19000D01*
X714607Y19005D01*
X714215Y19019D01*
X713823Y19043D01*
X713432Y19077D01*
X713041Y19120D01*
X712652Y19173D01*
X712265Y19236D01*
X711879Y19307D01*
X711494Y19389D01*
X711112Y19479D01*
X710733Y19580D01*
X710355Y19689D01*
X709981Y19808D01*
X709610Y19935D01*
X709242Y20072D01*
X708877Y20218D01*
X708516Y20373D01*
X708159Y20536D01*
X707806Y20708D01*
X707458Y20889D01*
X707114Y21079D01*
X706774Y21276D01*
X706440Y21482D01*
X706111Y21696D01*
X705787Y21919D01*
X705469Y22149D01*
X705156Y22386D01*
X704850Y22632D01*
X704549Y22885D01*
X704255Y23145D01*
X703967Y23412D01*
X703686Y23686D01*
X703412Y23967D01*
X703145Y24255D01*
X702885Y24549D01*
X702632Y24850D01*
X702386Y25156D01*
X702149Y25469D01*
X701919Y25787D01*
X701696Y26111D01*
X701482Y26440D01*
X701276Y26774D01*
X701079Y27114D01*
X700889Y27458D01*
X700708Y27806D01*
X700536Y28159D01*
X700373Y28516D01*
X700218Y28877D01*
X700072Y29242D01*
X699935Y29610D01*
X699808Y29981D01*
X699689Y30355D01*
X699580Y30733D01*
X699479Y31112D01*
X699389Y31494D01*
X699307Y31879D01*
X699236Y32265D01*
X699173Y32652D01*
X699120Y33041D01*
X699077Y33432D01*
X699043Y33823D01*
X699019Y34215D01*
X699005Y34607D01*
X699000Y35000D01*
X27500Y35000D02*
X27502Y35184D01*
X27509Y35368D01*
X27520Y35552D01*
X27536Y35735D01*
X27556Y35918D01*
X27581Y36100D01*
X27610Y36282D01*
X27644Y36463D01*
X27682Y36643D01*
X27725Y36822D01*
X27772Y37000D01*
X27823Y37177D01*
X27879Y37353D01*
X27938Y37527D01*
X28003Y37699D01*
X28071Y37870D01*
X28143Y38039D01*
X28220Y38207D01*
X28301Y38372D01*
X28386Y38535D01*
X28474Y38697D01*
X28567Y38856D01*
X28664Y39012D01*
X28764Y39167D01*
X28868Y39319D01*
X28976Y39468D01*
X29087Y39614D01*
X29202Y39758D01*
X29321Y39899D01*
X29443Y40037D01*
X29568Y40172D01*
X29697Y40303D01*
X29828Y40432D01*
X29963Y40557D01*
X30101Y40679D01*
X30242Y40798D01*
X30386Y40913D01*
X30532Y41024D01*
X30681Y41132D01*
X30833Y41236D01*
X30988Y41336D01*
X31144Y41433D01*
X31303Y41526D01*
X31465Y41614D01*
X31628Y41699D01*
X31793Y41780D01*
X31961Y41857D01*
X32130Y41929D01*
X32301Y41997D01*
X32473Y42062D01*
X32647Y42121D01*
X32823Y42177D01*
X33000Y42228D01*
X33178Y42275D01*
X33357Y42318D01*
X33537Y42356D01*
X33718Y42390D01*
X33900Y42419D01*
X34082Y42444D01*
X34265Y42464D01*
X34448Y42480D01*
X34632Y42491D01*
X34816Y42498D01*
X35000Y42500D01*
X35184Y42498D01*
X35368Y42491D01*
X35552Y42480D01*
X35735Y42464D01*
X35918Y42444D01*
X36100Y42419D01*
X36282Y42390D01*
X36463Y42356D01*
X36643Y42318D01*
X36822Y42275D01*
X37000Y42228D01*
X37177Y42177D01*
X37353Y42121D01*
X37527Y42062D01*
X37699Y41997D01*
X37870Y41929D01*
X38039Y41857D01*
X38207Y41780D01*
X38372Y41699D01*
X38535Y41614D01*
X38697Y41526D01*
X38856Y41433D01*
X39012Y41336D01*
X39167Y41236D01*
X39319Y41132D01*
X39468Y41024D01*
X39614Y40913D01*
X39758Y40798D01*
X39899Y40679D01*
X40037Y40557D01*
X40172Y40432D01*
X40303Y40303D01*
X40432Y40172D01*
X40557Y40037D01*
X40679Y39899D01*
X40798Y39758D01*
X40913Y39614D01*
X41024Y39468D01*
X41132Y39319D01*
X41236Y39167D01*
X41336Y39012D01*
X41433Y38856D01*
X41526Y38697D01*
X41614Y38535D01*
X41699Y38372D01*
X41780Y38207D01*
X41857Y38039D01*
X41929Y37870D01*
X41997Y37699D01*
X42062Y37527D01*
X42121Y37353D01*
X42177Y37177D01*
X42228Y37000D01*
X42275Y36822D01*
X42318Y36643D01*
X42356Y36463D01*
X42390Y36282D01*
X42419Y36100D01*
X42444Y35918D01*
X42464Y35735D01*
X42480Y35552D01*
X42491Y35368D01*
X42498Y35184D01*
X42500Y35000D01*
X42498Y34816D01*
X42491Y34632D01*
X42480Y34448D01*
X42464Y34265D01*
X42444Y34082D01*
X42419Y33900D01*
X42390Y33718D01*
X42356Y33537D01*
X42318Y33357D01*
X42275Y33178D01*
X42228Y33000D01*
X42177Y32823D01*
X42121Y32647D01*
X42062Y32473D01*
X41997Y32301D01*
X41929Y32130D01*
X41857Y31961D01*
X41780Y31793D01*
X41699Y31628D01*
X41614Y31465D01*
X41526Y31303D01*
X41433Y31144D01*
X41336Y30988D01*
X41236Y30833D01*
X41132Y30681D01*
X41024Y30532D01*
X40913Y30386D01*
X40798Y30242D01*
X40679Y30101D01*
X40557Y29963D01*
X40432Y29828D01*
X40303Y29697D01*
X40172Y29568D01*
X40037Y29443D01*
X39899Y29321D01*
X39758Y29202D01*
X39614Y29087D01*
X39468Y28976D01*
X39319Y28868D01*
X39167Y28764D01*
X39012Y28664D01*
X38856Y28567D01*
X38697Y28474D01*
X38535Y28386D01*
X38372Y28301D01*
X38207Y28220D01*
X38039Y28143D01*
X37870Y28071D01*
X37699Y28003D01*
X37527Y27938D01*
X37353Y27879D01*
X37177Y27823D01*
X37000Y27772D01*
X36822Y27725D01*
X36643Y27682D01*
X36463Y27644D01*
X36282Y27610D01*
X36100Y27581D01*
X35918Y27556D01*
X35735Y27536D01*
X35552Y27520D01*
X35368Y27509D01*
X35184Y27502D01*
X35000Y27500D01*
X34816Y27502D01*
X34632Y27509D01*
X34448Y27520D01*
X34265Y27536D01*
X34082Y27556D01*
X33900Y27581D01*
X33718Y27610D01*
X33537Y27644D01*
X33357Y27682D01*
X33178Y27725D01*
X33000Y27772D01*
X32823Y27823D01*
X32647Y27879D01*
X32473Y27938D01*
X32301Y28003D01*
X32130Y28071D01*
X31961Y28143D01*
X31793Y28220D01*
X31628Y28301D01*
X31465Y28386D01*
X31303Y28474D01*
X31144Y28567D01*
X30988Y28664D01*
X30833Y28764D01*
X30681Y28868D01*
X30532Y28976D01*
X30386Y29087D01*
X30242Y29202D01*
X30101Y29321D01*
X29963Y29443D01*
X29828Y29568D01*
X29697Y29697D01*
X29568Y29828D01*
X29443Y29963D01*
X29321Y30101D01*
X29202Y30242D01*
X29087Y30386D01*
X28976Y30532D01*
X28868Y30681D01*
X28764Y30833D01*
X28664Y30988D01*
X28567Y31144D01*
X28474Y31303D01*
X28386Y31465D01*
X28301Y31628D01*
X28220Y31793D01*
X28143Y31961D01*
X28071Y32130D01*
X28003Y32301D01*
X27938Y32473D01*
X27879Y32647D01*
X27823Y32823D01*
X27772Y33000D01*
X27725Y33178D01*
X27682Y33357D01*
X27644Y33537D01*
X27610Y33718D01*
X27581Y33900D01*
X27556Y34082D01*
X27536Y34265D01*
X27520Y34448D01*
X27509Y34632D01*
X27502Y34816D01*
X27500Y35000D01*
X704400Y452700D02*
X704405Y453068D01*
X704418Y453436D01*
X704441Y453803D01*
X704472Y454170D01*
X704513Y454536D01*
X704562Y454901D01*
X704621Y455264D01*
X704688Y455626D01*
X704764Y455987D01*
X704850Y456345D01*
X704943Y456701D01*
X705046Y457054D01*
X705157Y457405D01*
X705277Y457753D01*
X705405Y458098D01*
X705542Y458440D01*
X705687Y458779D01*
X705840Y459113D01*
X706002Y459444D01*
X706171Y459771D01*
X706349Y460093D01*
X706534Y460412D01*
X706727Y460725D01*
X706928Y461034D01*
X707136Y461337D01*
X707352Y461635D01*
X707575Y461928D01*
X707805Y462216D01*
X708042Y462498D01*
X708286Y462773D01*
X708536Y463043D01*
X708793Y463307D01*
X709057Y463564D01*
X709327Y463814D01*
X709602Y464058D01*
X709884Y464295D01*
X710172Y464525D01*
X710465Y464748D01*
X710763Y464964D01*
X711066Y465172D01*
X711375Y465373D01*
X711688Y465566D01*
X712007Y465751D01*
X712329Y465929D01*
X712656Y466098D01*
X712987Y466260D01*
X713321Y466413D01*
X713660Y466558D01*
X714002Y466695D01*
X714347Y466823D01*
X714695Y466943D01*
X715046Y467054D01*
X715399Y467157D01*
X715755Y467250D01*
X716113Y467336D01*
X716474Y467412D01*
X716836Y467479D01*
X717199Y467538D01*
X717564Y467587D01*
X717930Y467628D01*
X718297Y467659D01*
X718664Y467682D01*
X719032Y467695D01*
X719400Y467700D01*
X719768Y467695D01*
X720136Y467682D01*
X720503Y467659D01*
X720870Y467628D01*
X721236Y467587D01*
X721601Y467538D01*
X721964Y467479D01*
X722326Y467412D01*
X722687Y467336D01*
X723045Y467250D01*
X723401Y467157D01*
X723754Y467054D01*
X724105Y466943D01*
X724453Y466823D01*
X724798Y466695D01*
X725140Y466558D01*
X725479Y466413D01*
X725813Y466260D01*
X726144Y466098D01*
X726471Y465929D01*
X726793Y465751D01*
X727112Y465566D01*
X727425Y465373D01*
X727734Y465172D01*
X728037Y464964D01*
X728335Y464748D01*
X728628Y464525D01*
X728916Y464295D01*
X729198Y464058D01*
X729473Y463814D01*
X729743Y463564D01*
X730007Y463307D01*
X730264Y463043D01*
X730514Y462773D01*
X730758Y462498D01*
X730995Y462216D01*
X731225Y461928D01*
X731448Y461635D01*
X731664Y461337D01*
X731872Y461034D01*
X732073Y460725D01*
X732266Y460412D01*
X732451Y460093D01*
X732629Y459771D01*
X732798Y459444D01*
X732960Y459113D01*
X733113Y458779D01*
X733258Y458440D01*
X733395Y458098D01*
X733523Y457753D01*
X733643Y457405D01*
X733754Y457054D01*
X733857Y456701D01*
X733950Y456345D01*
X734036Y455987D01*
X734112Y455626D01*
X734179Y455264D01*
X734238Y454901D01*
X734287Y454536D01*
X734328Y454170D01*
X734359Y453803D01*
X734382Y453436D01*
X734395Y453068D01*
X734400Y452700D01*
X734395Y452332D01*
X734382Y451964D01*
X734359Y451597D01*
X734328Y451230D01*
X734287Y450864D01*
X734238Y450499D01*
X734179Y450136D01*
X734112Y449774D01*
X734036Y449413D01*
X733950Y449055D01*
X733857Y448699D01*
X733754Y448346D01*
X733643Y447995D01*
X733523Y447647D01*
X733395Y447302D01*
X733258Y446960D01*
X733113Y446621D01*
X732960Y446287D01*
X732798Y445956D01*
X732629Y445629D01*
X732451Y445307D01*
X732266Y444988D01*
X732073Y444675D01*
X731872Y444366D01*
X731664Y444063D01*
X731448Y443765D01*
X731225Y443472D01*
X730995Y443184D01*
X730758Y442902D01*
X730514Y442627D01*
X730264Y442357D01*
X730007Y442093D01*
X729743Y441836D01*
X729473Y441586D01*
X729198Y441342D01*
X728916Y441105D01*
X728628Y440875D01*
X728335Y440652D01*
X728037Y440436D01*
X727734Y440228D01*
X727425Y440027D01*
X727112Y439834D01*
X726793Y439649D01*
X726471Y439471D01*
X726144Y439302D01*
X725813Y439140D01*
X725479Y438987D01*
X725140Y438842D01*
X724798Y438705D01*
X724453Y438577D01*
X724105Y438457D01*
X723754Y438346D01*
X723401Y438243D01*
X723045Y438150D01*
X722687Y438064D01*
X722326Y437988D01*
X721964Y437921D01*
X721601Y437862D01*
X721236Y437813D01*
X720870Y437772D01*
X720503Y437741D01*
X720136Y437718D01*
X719768Y437705D01*
X719400Y437700D01*
X719032Y437705D01*
X718664Y437718D01*
X718297Y437741D01*
X717930Y437772D01*
X717564Y437813D01*
X717199Y437862D01*
X716836Y437921D01*
X716474Y437988D01*
X716113Y438064D01*
X715755Y438150D01*
X715399Y438243D01*
X715046Y438346D01*
X714695Y438457D01*
X714347Y438577D01*
X714002Y438705D01*
X713660Y438842D01*
X713321Y438987D01*
X712987Y439140D01*
X712656Y439302D01*
X712329Y439471D01*
X712007Y439649D01*
X711688Y439834D01*
X711375Y440027D01*
X711066Y440228D01*
X710763Y440436D01*
X710465Y440652D01*
X710172Y440875D01*
X709884Y441105D01*
X709602Y441342D01*
X709327Y441586D01*
X709057Y441836D01*
X708793Y442093D01*
X708536Y442357D01*
X708286Y442627D01*
X708042Y442902D01*
X707805Y443184D01*
X707575Y443472D01*
X707352Y443765D01*
X707136Y444063D01*
X706928Y444366D01*
X706727Y444675D01*
X706534Y444988D01*
X706349Y445307D01*
X706171Y445629D01*
X706002Y445956D01*
X705840Y446287D01*
X705687Y446621D01*
X705542Y446960D01*
X705405Y447302D01*
X705277Y447647D01*
X705157Y447995D01*
X705046Y448346D01*
X704943Y448699D01*
X704850Y449055D01*
X704764Y449413D01*
X704688Y449774D01*
X704621Y450136D01*
X704562Y450499D01*
X704513Y450864D01*
X704472Y451230D01*
X704441Y451597D01*
X704418Y451964D01*
X704405Y452332D01*
X704400Y452700D01*
X686240Y89040D02*
X686242Y89166D01*
X686248Y89292D01*
X686258Y89418D01*
X686272Y89544D01*
X686290Y89669D01*
X686312Y89793D01*
X686337Y89917D01*
X686367Y90040D01*
X686400Y90161D01*
X686438Y90282D01*
X686479Y90401D01*
X686524Y90520D01*
X686572Y90636D01*
X686624Y90751D01*
X686680Y90864D01*
X686740Y90976D01*
X686803Y91085D01*
X686869Y91193D01*
X686938Y91298D01*
X687011Y91401D01*
X687088Y91502D01*
X687167Y91600D01*
X687249Y91696D01*
X687335Y91789D01*
X687423Y91880D01*
X687514Y91967D01*
X687608Y92052D01*
X687704Y92133D01*
X687803Y92212D01*
X687904Y92287D01*
X688008Y92359D01*
X688114Y92428D01*
X688222Y92494D01*
X688332Y92556D01*
X688444Y92614D01*
X688557Y92669D01*
X688673Y92720D01*
X688790Y92768D01*
X688908Y92812D01*
X689028Y92852D01*
X689149Y92888D01*
X689271Y92921D01*
X689394Y92950D01*
X689518Y92974D01*
X689642Y92995D01*
X689767Y93012D01*
X689893Y93025D01*
X690019Y93034D01*
X690145Y93039D01*
X690272Y93040D01*
X690398Y93037D01*
X690524Y93030D01*
X690650Y93019D01*
X690775Y93004D01*
X690900Y92985D01*
X691024Y92962D01*
X691148Y92936D01*
X691270Y92905D01*
X691392Y92871D01*
X691512Y92832D01*
X691631Y92790D01*
X691749Y92745D01*
X691865Y92695D01*
X691980Y92642D01*
X692092Y92585D01*
X692203Y92525D01*
X692312Y92461D01*
X692419Y92394D01*
X692524Y92324D01*
X692627Y92250D01*
X692727Y92173D01*
X692825Y92093D01*
X692920Y92010D01*
X693012Y91924D01*
X693102Y91835D01*
X693189Y91743D01*
X693272Y91649D01*
X693353Y91552D01*
X693431Y91452D01*
X693506Y91350D01*
X693577Y91246D01*
X693645Y91139D01*
X693709Y91031D01*
X693770Y90920D01*
X693828Y90808D01*
X693882Y90694D01*
X693932Y90578D01*
X693979Y90461D01*
X694022Y90342D01*
X694061Y90222D01*
X694097Y90101D01*
X694128Y89978D01*
X694156Y89855D01*
X694180Y89731D01*
X694200Y89606D01*
X694216Y89481D01*
X694228Y89355D01*
X694236Y89229D01*
X694240Y89103D01*
X694240Y88977D01*
X694236Y88851D01*
X694228Y88725D01*
X694216Y88599D01*
X694200Y88474D01*
X694180Y88349D01*
X694156Y88225D01*
X694128Y88102D01*
X694097Y87979D01*
X694061Y87858D01*
X694022Y87738D01*
X693979Y87619D01*
X693932Y87502D01*
X693882Y87386D01*
X693828Y87272D01*
X693770Y87160D01*
X693709Y87049D01*
X693645Y86941D01*
X693577Y86834D01*
X693506Y86730D01*
X693431Y86628D01*
X693353Y86528D01*
X693272Y86431D01*
X693189Y86337D01*
X693102Y86245D01*
X693012Y86156D01*
X692920Y86070D01*
X692825Y85987D01*
X692727Y85907D01*
X692627Y85830D01*
X692524Y85756D01*
X692419Y85686D01*
X692312Y85619D01*
X692203Y85555D01*
X692092Y85495D01*
X691980Y85438D01*
X691865Y85385D01*
X691749Y85335D01*
X691631Y85290D01*
X691512Y85248D01*
X691392Y85209D01*
X691270Y85175D01*
X691148Y85144D01*
X691024Y85118D01*
X690900Y85095D01*
X690775Y85076D01*
X690650Y85061D01*
X690524Y85050D01*
X690398Y85043D01*
X690272Y85040D01*
X690145Y85041D01*
X690019Y85046D01*
X689893Y85055D01*
X689767Y85068D01*
X689642Y85085D01*
X689518Y85106D01*
X689394Y85130D01*
X689271Y85159D01*
X689149Y85192D01*
X689028Y85228D01*
X688908Y85268D01*
X688790Y85312D01*
X688673Y85360D01*
X688557Y85411D01*
X688444Y85466D01*
X688332Y85524D01*
X688222Y85586D01*
X688114Y85652D01*
X688008Y85721D01*
X687904Y85793D01*
X687803Y85868D01*
X687704Y85947D01*
X687608Y86028D01*
X687514Y86113D01*
X687423Y86200D01*
X687335Y86291D01*
X687249Y86384D01*
X687167Y86480D01*
X687088Y86578D01*
X687011Y86679D01*
X686938Y86782D01*
X686869Y86887D01*
X686803Y86995D01*
X686740Y87104D01*
X686680Y87216D01*
X686624Y87329D01*
X686572Y87444D01*
X686524Y87560D01*
X686479Y87679D01*
X686438Y87798D01*
X686400Y87919D01*
X686367Y88040D01*
X686337Y88163D01*
X686312Y88287D01*
X686290Y88411D01*
X686272Y88536D01*
X686258Y88662D01*
X686248Y88788D01*
X686242Y88914D01*
X686240Y89040D01*
X681240Y136540D02*
X681242Y136666D01*
X681248Y136792D01*
X681258Y136918D01*
X681272Y137044D01*
X681290Y137169D01*
X681312Y137293D01*
X681337Y137417D01*
X681367Y137540D01*
X681400Y137661D01*
X681438Y137782D01*
X681479Y137901D01*
X681524Y138020D01*
X681572Y138136D01*
X681624Y138251D01*
X681680Y138364D01*
X681740Y138476D01*
X681803Y138585D01*
X681869Y138693D01*
X681938Y138798D01*
X682011Y138901D01*
X682088Y139002D01*
X682167Y139100D01*
X682249Y139196D01*
X682335Y139289D01*
X682423Y139380D01*
X682514Y139467D01*
X682608Y139552D01*
X682704Y139633D01*
X682803Y139712D01*
X682904Y139787D01*
X683008Y139859D01*
X683114Y139928D01*
X683222Y139994D01*
X683332Y140056D01*
X683444Y140114D01*
X683557Y140169D01*
X683673Y140220D01*
X683790Y140268D01*
X683908Y140312D01*
X684028Y140352D01*
X684149Y140388D01*
X684271Y140421D01*
X684394Y140450D01*
X684518Y140474D01*
X684642Y140495D01*
X684767Y140512D01*
X684893Y140525D01*
X685019Y140534D01*
X685145Y140539D01*
X685272Y140540D01*
X685398Y140537D01*
X685524Y140530D01*
X685650Y140519D01*
X685775Y140504D01*
X685900Y140485D01*
X686024Y140462D01*
X686148Y140436D01*
X686270Y140405D01*
X686392Y140371D01*
X686512Y140332D01*
X686631Y140290D01*
X686749Y140245D01*
X686865Y140195D01*
X686980Y140142D01*
X687092Y140085D01*
X687203Y140025D01*
X687312Y139961D01*
X687419Y139894D01*
X687524Y139824D01*
X687627Y139750D01*
X687727Y139673D01*
X687825Y139593D01*
X687920Y139510D01*
X688012Y139424D01*
X688102Y139335D01*
X688189Y139243D01*
X688272Y139149D01*
X688353Y139052D01*
X688431Y138952D01*
X688506Y138850D01*
X688577Y138746D01*
X688645Y138639D01*
X688709Y138531D01*
X688770Y138420D01*
X688828Y138308D01*
X688882Y138194D01*
X688932Y138078D01*
X688979Y137961D01*
X689022Y137842D01*
X689061Y137722D01*
X689097Y137601D01*
X689128Y137478D01*
X689156Y137355D01*
X689180Y137231D01*
X689200Y137106D01*
X689216Y136981D01*
X689228Y136855D01*
X689236Y136729D01*
X689240Y136603D01*
X689240Y136477D01*
X689236Y136351D01*
X689228Y136225D01*
X689216Y136099D01*
X689200Y135974D01*
X689180Y135849D01*
X689156Y135725D01*
X689128Y135602D01*
X689097Y135479D01*
X689061Y135358D01*
X689022Y135238D01*
X688979Y135119D01*
X688932Y135002D01*
X688882Y134886D01*
X688828Y134772D01*
X688770Y134660D01*
X688709Y134549D01*
X688645Y134441D01*
X688577Y134334D01*
X688506Y134230D01*
X688431Y134128D01*
X688353Y134028D01*
X688272Y133931D01*
X688189Y133837D01*
X688102Y133745D01*
X688012Y133656D01*
X687920Y133570D01*
X687825Y133487D01*
X687727Y133407D01*
X687627Y133330D01*
X687524Y133256D01*
X687419Y133186D01*
X687312Y133119D01*
X687203Y133055D01*
X687092Y132995D01*
X686980Y132938D01*
X686865Y132885D01*
X686749Y132835D01*
X686631Y132790D01*
X686512Y132748D01*
X686392Y132709D01*
X686270Y132675D01*
X686148Y132644D01*
X686024Y132618D01*
X685900Y132595D01*
X685775Y132576D01*
X685650Y132561D01*
X685524Y132550D01*
X685398Y132543D01*
X685272Y132540D01*
X685145Y132541D01*
X685019Y132546D01*
X684893Y132555D01*
X684767Y132568D01*
X684642Y132585D01*
X684518Y132606D01*
X684394Y132630D01*
X684271Y132659D01*
X684149Y132692D01*
X684028Y132728D01*
X683908Y132768D01*
X683790Y132812D01*
X683673Y132860D01*
X683557Y132911D01*
X683444Y132966D01*
X683332Y133024D01*
X683222Y133086D01*
X683114Y133152D01*
X683008Y133221D01*
X682904Y133293D01*
X682803Y133368D01*
X682704Y133447D01*
X682608Y133528D01*
X682514Y133613D01*
X682423Y133700D01*
X682335Y133791D01*
X682249Y133884D01*
X682167Y133980D01*
X682088Y134078D01*
X682011Y134179D01*
X681938Y134282D01*
X681869Y134387D01*
X681803Y134495D01*
X681740Y134604D01*
X681680Y134716D01*
X681624Y134829D01*
X681572Y134944D01*
X681524Y135060D01*
X681479Y135179D01*
X681438Y135298D01*
X681400Y135419D01*
X681367Y135540D01*
X681337Y135663D01*
X681312Y135787D01*
X681290Y135911D01*
X681272Y136036D01*
X681258Y136162D01*
X681248Y136288D01*
X681242Y136414D01*
X681240Y136540D01*
X686240Y184040D02*
X686242Y184166D01*
X686248Y184292D01*
X686258Y184418D01*
X686272Y184544D01*
X686290Y184669D01*
X686312Y184793D01*
X686337Y184917D01*
X686367Y185040D01*
X686400Y185161D01*
X686438Y185282D01*
X686479Y185401D01*
X686524Y185520D01*
X686572Y185636D01*
X686624Y185751D01*
X686680Y185864D01*
X686740Y185976D01*
X686803Y186085D01*
X686869Y186193D01*
X686938Y186298D01*
X687011Y186401D01*
X687088Y186502D01*
X687167Y186600D01*
X687249Y186696D01*
X687335Y186789D01*
X687423Y186880D01*
X687514Y186967D01*
X687608Y187052D01*
X687704Y187133D01*
X687803Y187212D01*
X687904Y187287D01*
X688008Y187359D01*
X688114Y187428D01*
X688222Y187494D01*
X688332Y187556D01*
X688444Y187614D01*
X688557Y187669D01*
X688673Y187720D01*
X688790Y187768D01*
X688908Y187812D01*
X689028Y187852D01*
X689149Y187888D01*
X689271Y187921D01*
X689394Y187950D01*
X689518Y187974D01*
X689642Y187995D01*
X689767Y188012D01*
X689893Y188025D01*
X690019Y188034D01*
X690145Y188039D01*
X690272Y188040D01*
X690398Y188037D01*
X690524Y188030D01*
X690650Y188019D01*
X690775Y188004D01*
X690900Y187985D01*
X691024Y187962D01*
X691148Y187936D01*
X691270Y187905D01*
X691392Y187871D01*
X691512Y187832D01*
X691631Y187790D01*
X691749Y187745D01*
X691865Y187695D01*
X691980Y187642D01*
X692092Y187585D01*
X692203Y187525D01*
X692312Y187461D01*
X692419Y187394D01*
X692524Y187324D01*
X692627Y187250D01*
X692727Y187173D01*
X692825Y187093D01*
X692920Y187010D01*
X693012Y186924D01*
X693102Y186835D01*
X693189Y186743D01*
X693272Y186649D01*
X693353Y186552D01*
X693431Y186452D01*
X693506Y186350D01*
X693577Y186246D01*
X693645Y186139D01*
X693709Y186031D01*
X693770Y185920D01*
X693828Y185808D01*
X693882Y185694D01*
X693932Y185578D01*
X693979Y185461D01*
X694022Y185342D01*
X694061Y185222D01*
X694097Y185101D01*
X694128Y184978D01*
X694156Y184855D01*
X694180Y184731D01*
X694200Y184606D01*
X694216Y184481D01*
X694228Y184355D01*
X694236Y184229D01*
X694240Y184103D01*
X694240Y183977D01*
X694236Y183851D01*
X694228Y183725D01*
X694216Y183599D01*
X694200Y183474D01*
X694180Y183349D01*
X694156Y183225D01*
X694128Y183102D01*
X694097Y182979D01*
X694061Y182858D01*
X694022Y182738D01*
X693979Y182619D01*
X693932Y182502D01*
X693882Y182386D01*
X693828Y182272D01*
X693770Y182160D01*
X693709Y182049D01*
X693645Y181941D01*
X693577Y181834D01*
X693506Y181730D01*
X693431Y181628D01*
X693353Y181528D01*
X693272Y181431D01*
X693189Y181337D01*
X693102Y181245D01*
X693012Y181156D01*
X692920Y181070D01*
X692825Y180987D01*
X692727Y180907D01*
X692627Y180830D01*
X692524Y180756D01*
X692419Y180686D01*
X692312Y180619D01*
X692203Y180555D01*
X692092Y180495D01*
X691980Y180438D01*
X691865Y180385D01*
X691749Y180335D01*
X691631Y180290D01*
X691512Y180248D01*
X691392Y180209D01*
X691270Y180175D01*
X691148Y180144D01*
X691024Y180118D01*
X690900Y180095D01*
X690775Y180076D01*
X690650Y180061D01*
X690524Y180050D01*
X690398Y180043D01*
X690272Y180040D01*
X690145Y180041D01*
X690019Y180046D01*
X689893Y180055D01*
X689767Y180068D01*
X689642Y180085D01*
X689518Y180106D01*
X689394Y180130D01*
X689271Y180159D01*
X689149Y180192D01*
X689028Y180228D01*
X688908Y180268D01*
X688790Y180312D01*
X688673Y180360D01*
X688557Y180411D01*
X688444Y180466D01*
X688332Y180524D01*
X688222Y180586D01*
X688114Y180652D01*
X688008Y180721D01*
X687904Y180793D01*
X687803Y180868D01*
X687704Y180947D01*
X687608Y181028D01*
X687514Y181113D01*
X687423Y181200D01*
X687335Y181291D01*
X687249Y181384D01*
X687167Y181480D01*
X687088Y181578D01*
X687011Y181679D01*
X686938Y181782D01*
X686869Y181887D01*
X686803Y181995D01*
X686740Y182104D01*
X686680Y182216D01*
X686624Y182329D01*
X686572Y182444D01*
X686524Y182560D01*
X686479Y182679D01*
X686438Y182798D01*
X686400Y182919D01*
X686367Y183040D01*
X686337Y183163D01*
X686312Y183287D01*
X686290Y183411D01*
X686272Y183536D01*
X686258Y183662D01*
X686248Y183788D01*
X686242Y183914D01*
X686240Y184040D01*
X639240Y89040D02*
X639242Y89166D01*
X639248Y89292D01*
X639258Y89418D01*
X639272Y89544D01*
X639290Y89669D01*
X639312Y89793D01*
X639337Y89917D01*
X639367Y90040D01*
X639400Y90161D01*
X639438Y90282D01*
X639479Y90401D01*
X639524Y90520D01*
X639572Y90636D01*
X639624Y90751D01*
X639680Y90864D01*
X639740Y90976D01*
X639803Y91085D01*
X639869Y91193D01*
X639938Y91298D01*
X640011Y91401D01*
X640088Y91502D01*
X640167Y91600D01*
X640249Y91696D01*
X640335Y91789D01*
X640423Y91880D01*
X640514Y91967D01*
X640608Y92052D01*
X640704Y92133D01*
X640803Y92212D01*
X640904Y92287D01*
X641008Y92359D01*
X641114Y92428D01*
X641222Y92494D01*
X641332Y92556D01*
X641444Y92614D01*
X641557Y92669D01*
X641673Y92720D01*
X641790Y92768D01*
X641908Y92812D01*
X642028Y92852D01*
X642149Y92888D01*
X642271Y92921D01*
X642394Y92950D01*
X642518Y92974D01*
X642642Y92995D01*
X642767Y93012D01*
X642893Y93025D01*
X643019Y93034D01*
X643145Y93039D01*
X643272Y93040D01*
X643398Y93037D01*
X643524Y93030D01*
X643650Y93019D01*
X643775Y93004D01*
X643900Y92985D01*
X644024Y92962D01*
X644148Y92936D01*
X644270Y92905D01*
X644392Y92871D01*
X644512Y92832D01*
X644631Y92790D01*
X644749Y92745D01*
X644865Y92695D01*
X644980Y92642D01*
X645092Y92585D01*
X645203Y92525D01*
X645312Y92461D01*
X645419Y92394D01*
X645524Y92324D01*
X645627Y92250D01*
X645727Y92173D01*
X645825Y92093D01*
X645920Y92010D01*
X646012Y91924D01*
X646102Y91835D01*
X646189Y91743D01*
X646272Y91649D01*
X646353Y91552D01*
X646431Y91452D01*
X646506Y91350D01*
X646577Y91246D01*
X646645Y91139D01*
X646709Y91031D01*
X646770Y90920D01*
X646828Y90808D01*
X646882Y90694D01*
X646932Y90578D01*
X646979Y90461D01*
X647022Y90342D01*
X647061Y90222D01*
X647097Y90101D01*
X647128Y89978D01*
X647156Y89855D01*
X647180Y89731D01*
X647200Y89606D01*
X647216Y89481D01*
X647228Y89355D01*
X647236Y89229D01*
X647240Y89103D01*
X647240Y88977D01*
X647236Y88851D01*
X647228Y88725D01*
X647216Y88599D01*
X647200Y88474D01*
X647180Y88349D01*
X647156Y88225D01*
X647128Y88102D01*
X647097Y87979D01*
X647061Y87858D01*
X647022Y87738D01*
X646979Y87619D01*
X646932Y87502D01*
X646882Y87386D01*
X646828Y87272D01*
X646770Y87160D01*
X646709Y87049D01*
X646645Y86941D01*
X646577Y86834D01*
X646506Y86730D01*
X646431Y86628D01*
X646353Y86528D01*
X646272Y86431D01*
X646189Y86337D01*
X646102Y86245D01*
X646012Y86156D01*
X645920Y86070D01*
X645825Y85987D01*
X645727Y85907D01*
X645627Y85830D01*
X645524Y85756D01*
X645419Y85686D01*
X645312Y85619D01*
X645203Y85555D01*
X645092Y85495D01*
X644980Y85438D01*
X644865Y85385D01*
X644749Y85335D01*
X644631Y85290D01*
X644512Y85248D01*
X644392Y85209D01*
X644270Y85175D01*
X644148Y85144D01*
X644024Y85118D01*
X643900Y85095D01*
X643775Y85076D01*
X643650Y85061D01*
X643524Y85050D01*
X643398Y85043D01*
X643272Y85040D01*
X643145Y85041D01*
X643019Y85046D01*
X642893Y85055D01*
X642767Y85068D01*
X642642Y85085D01*
X642518Y85106D01*
X642394Y85130D01*
X642271Y85159D01*
X642149Y85192D01*
X642028Y85228D01*
X641908Y85268D01*
X641790Y85312D01*
X641673Y85360D01*
X641557Y85411D01*
X641444Y85466D01*
X641332Y85524D01*
X641222Y85586D01*
X641114Y85652D01*
X641008Y85721D01*
X640904Y85793D01*
X640803Y85868D01*
X640704Y85947D01*
X640608Y86028D01*
X640514Y86113D01*
X640423Y86200D01*
X640335Y86291D01*
X640249Y86384D01*
X640167Y86480D01*
X640088Y86578D01*
X640011Y86679D01*
X639938Y86782D01*
X639869Y86887D01*
X639803Y86995D01*
X639740Y87104D01*
X639680Y87216D01*
X639624Y87329D01*
X639572Y87444D01*
X639524Y87560D01*
X639479Y87679D01*
X639438Y87798D01*
X639400Y87919D01*
X639367Y88040D01*
X639337Y88163D01*
X639312Y88287D01*
X639290Y88411D01*
X639272Y88536D01*
X639258Y88662D01*
X639248Y88788D01*
X639242Y88914D01*
X639240Y89040D01*
X639240Y184040D02*
X639242Y184166D01*
X639248Y184292D01*
X639258Y184418D01*
X639272Y184544D01*
X639290Y184669D01*
X639312Y184793D01*
X639337Y184917D01*
X639367Y185040D01*
X639400Y185161D01*
X639438Y185282D01*
X639479Y185401D01*
X639524Y185520D01*
X639572Y185636D01*
X639624Y185751D01*
X639680Y185864D01*
X639740Y185976D01*
X639803Y186085D01*
X639869Y186193D01*
X639938Y186298D01*
X640011Y186401D01*
X640088Y186502D01*
X640167Y186600D01*
X640249Y186696D01*
X640335Y186789D01*
X640423Y186880D01*
X640514Y186967D01*
X640608Y187052D01*
X640704Y187133D01*
X640803Y187212D01*
X640904Y187287D01*
X641008Y187359D01*
X641114Y187428D01*
X641222Y187494D01*
X641332Y187556D01*
X641444Y187614D01*
X641557Y187669D01*
X641673Y187720D01*
X641790Y187768D01*
X641908Y187812D01*
X642028Y187852D01*
X642149Y187888D01*
X642271Y187921D01*
X642394Y187950D01*
X642518Y187974D01*
X642642Y187995D01*
X642767Y188012D01*
X642893Y188025D01*
X643019Y188034D01*
X643145Y188039D01*
X643272Y188040D01*
X643398Y188037D01*
X643524Y188030D01*
X643650Y188019D01*
X643775Y188004D01*
X643900Y187985D01*
X644024Y187962D01*
X644148Y187936D01*
X644270Y187905D01*
X644392Y187871D01*
X644512Y187832D01*
X644631Y187790D01*
X644749Y187745D01*
X644865Y187695D01*
X644980Y187642D01*
X645092Y187585D01*
X645203Y187525D01*
X645312Y187461D01*
X645419Y187394D01*
X645524Y187324D01*
X645627Y187250D01*
X645727Y187173D01*
X645825Y187093D01*
X645920Y187010D01*
X646012Y186924D01*
X646102Y186835D01*
X646189Y186743D01*
X646272Y186649D01*
X646353Y186552D01*
X646431Y186452D01*
X646506Y186350D01*
X646577Y186246D01*
X646645Y186139D01*
X646709Y186031D01*
X646770Y185920D01*
X646828Y185808D01*
X646882Y185694D01*
X646932Y185578D01*
X646979Y185461D01*
X647022Y185342D01*
X647061Y185222D01*
X647097Y185101D01*
X647128Y184978D01*
X647156Y184855D01*
X647180Y184731D01*
X647200Y184606D01*
X647216Y184481D01*
X647228Y184355D01*
X647236Y184229D01*
X647240Y184103D01*
X647240Y183977D01*
X647236Y183851D01*
X647228Y183725D01*
X647216Y183599D01*
X647200Y183474D01*
X647180Y183349D01*
X647156Y183225D01*
X647128Y183102D01*
X647097Y182979D01*
X647061Y182858D01*
X647022Y182738D01*
X646979Y182619D01*
X646932Y182502D01*
X646882Y182386D01*
X646828Y182272D01*
X646770Y182160D01*
X646709Y182049D01*
X646645Y181941D01*
X646577Y181834D01*
X646506Y181730D01*
X646431Y181628D01*
X646353Y181528D01*
X646272Y181431D01*
X646189Y181337D01*
X646102Y181245D01*
X646012Y181156D01*
X645920Y181070D01*
X645825Y180987D01*
X645727Y180907D01*
X645627Y180830D01*
X645524Y180756D01*
X645419Y180686D01*
X645312Y180619D01*
X645203Y180555D01*
X645092Y180495D01*
X644980Y180438D01*
X644865Y180385D01*
X644749Y180335D01*
X644631Y180290D01*
X644512Y180248D01*
X644392Y180209D01*
X644270Y180175D01*
X644148Y180144D01*
X644024Y180118D01*
X643900Y180095D01*
X643775Y180076D01*
X643650Y180061D01*
X643524Y180050D01*
X643398Y180043D01*
X643272Y180040D01*
X643145Y180041D01*
X643019Y180046D01*
X642893Y180055D01*
X642767Y180068D01*
X642642Y180085D01*
X642518Y180106D01*
X642394Y180130D01*
X642271Y180159D01*
X642149Y180192D01*
X642028Y180228D01*
X641908Y180268D01*
X641790Y180312D01*
X641673Y180360D01*
X641557Y180411D01*
X641444Y180466D01*
X641332Y180524D01*
X641222Y180586D01*
X641114Y180652D01*
X641008Y180721D01*
X640904Y180793D01*
X640803Y180868D01*
X640704Y180947D01*
X640608Y181028D01*
X640514Y181113D01*
X640423Y181200D01*
X640335Y181291D01*
X640249Y181384D01*
X640167Y181480D01*
X640088Y181578D01*
X640011Y181679D01*
X639938Y181782D01*
X639869Y181887D01*
X639803Y181995D01*
X639740Y182104D01*
X639680Y182216D01*
X639624Y182329D01*
X639572Y182444D01*
X639524Y182560D01*
X639479Y182679D01*
X639438Y182798D01*
X639400Y182919D01*
X639367Y183040D01*
X639337Y183163D01*
X639312Y183287D01*
X639290Y183411D01*
X639272Y183536D01*
X639258Y183662D01*
X639248Y183788D01*
X639242Y183914D01*
X639240Y184040D01*
X709240Y136540D02*
X709243Y136749D01*
X709250Y136957D01*
X709263Y137165D01*
X709281Y137373D01*
X709304Y137580D01*
X709332Y137787D01*
X709365Y137993D01*
X709403Y138198D01*
X709447Y138402D01*
X709495Y138605D01*
X709548Y138807D01*
X709606Y139007D01*
X709669Y139206D01*
X709737Y139404D01*
X709810Y139599D01*
X709887Y139793D01*
X709969Y139985D01*
X710056Y140174D01*
X710148Y140362D01*
X710244Y140547D01*
X710344Y140730D01*
X710449Y140910D01*
X710559Y141087D01*
X710673Y141262D01*
X710791Y141434D01*
X710913Y141603D01*
X711039Y141769D01*
X711169Y141932D01*
X711304Y142092D01*
X711442Y142248D01*
X711584Y142401D01*
X711730Y142550D01*
X711879Y142696D01*
X712032Y142838D01*
X712188Y142976D01*
X712348Y143111D01*
X712511Y143241D01*
X712677Y143367D01*
X712846Y143489D01*
X713018Y143607D01*
X713193Y143721D01*
X713370Y143831D01*
X713550Y143936D01*
X713733Y144036D01*
X713918Y144132D01*
X714106Y144224D01*
X714295Y144311D01*
X714487Y144393D01*
X714681Y144470D01*
X714876Y144543D01*
X715074Y144611D01*
X715273Y144674D01*
X715473Y144732D01*
X715675Y144785D01*
X715878Y144833D01*
X716082Y144877D01*
X716287Y144915D01*
X716493Y144948D01*
X716700Y144976D01*
X716907Y144999D01*
X717115Y145017D01*
X717323Y145030D01*
X717531Y145037D01*
X717740Y145040D01*
X717949Y145037D01*
X718157Y145030D01*
X718365Y145017D01*
X718573Y144999D01*
X718780Y144976D01*
X718987Y144948D01*
X719193Y144915D01*
X719398Y144877D01*
X719602Y144833D01*
X719805Y144785D01*
X720007Y144732D01*
X720207Y144674D01*
X720406Y144611D01*
X720604Y144543D01*
X720799Y144470D01*
X720993Y144393D01*
X721185Y144311D01*
X721374Y144224D01*
X721562Y144132D01*
X721747Y144036D01*
X721930Y143936D01*
X722110Y143831D01*
X722287Y143721D01*
X722462Y143607D01*
X722634Y143489D01*
X722803Y143367D01*
X722969Y143241D01*
X723132Y143111D01*
X723292Y142976D01*
X723448Y142838D01*
X723601Y142696D01*
X723750Y142550D01*
X723896Y142401D01*
X724038Y142248D01*
X724176Y142092D01*
X724311Y141932D01*
X724441Y141769D01*
X724567Y141603D01*
X724689Y141434D01*
X724807Y141262D01*
X724921Y141087D01*
X725031Y140910D01*
X725136Y140730D01*
X725236Y140547D01*
X725332Y140362D01*
X725424Y140174D01*
X725511Y139985D01*
X725593Y139793D01*
X725670Y139599D01*
X725743Y139404D01*
X725811Y139206D01*
X725874Y139007D01*
X725932Y138807D01*
X725985Y138605D01*
X726033Y138402D01*
X726077Y138198D01*
X726115Y137993D01*
X726148Y137787D01*
X726176Y137580D01*
X726199Y137373D01*
X726217Y137165D01*
X726230Y136957D01*
X726237Y136749D01*
X726240Y136540D01*
X726237Y136331D01*
X726230Y136123D01*
X726217Y135915D01*
X726199Y135707D01*
X726176Y135500D01*
X726148Y135293D01*
X726115Y135087D01*
X726077Y134882D01*
X726033Y134678D01*
X725985Y134475D01*
X725932Y134273D01*
X725874Y134073D01*
X725811Y133874D01*
X725743Y133676D01*
X725670Y133481D01*
X725593Y133287D01*
X725511Y133095D01*
X725424Y132906D01*
X725332Y132718D01*
X725236Y132533D01*
X725136Y132350D01*
X725031Y132170D01*
X724921Y131993D01*
X724807Y131818D01*
X724689Y131646D01*
X724567Y131477D01*
X724441Y131311D01*
X724311Y131148D01*
X724176Y130988D01*
X724038Y130832D01*
X723896Y130679D01*
X723750Y130530D01*
X723601Y130384D01*
X723448Y130242D01*
X723292Y130104D01*
X723132Y129969D01*
X722969Y129839D01*
X722803Y129713D01*
X722634Y129591D01*
X722462Y129473D01*
X722287Y129359D01*
X722110Y129249D01*
X721930Y129144D01*
X721747Y129044D01*
X721562Y128948D01*
X721374Y128856D01*
X721185Y128769D01*
X720993Y128687D01*
X720799Y128610D01*
X720604Y128537D01*
X720406Y128469D01*
X720207Y128406D01*
X720007Y128348D01*
X719805Y128295D01*
X719602Y128247D01*
X719398Y128203D01*
X719193Y128165D01*
X718987Y128132D01*
X718780Y128104D01*
X718573Y128081D01*
X718365Y128063D01*
X718157Y128050D01*
X717949Y128043D01*
X717740Y128040D01*
X717531Y128043D01*
X717323Y128050D01*
X717115Y128063D01*
X716907Y128081D01*
X716700Y128104D01*
X716493Y128132D01*
X716287Y128165D01*
X716082Y128203D01*
X715878Y128247D01*
X715675Y128295D01*
X715473Y128348D01*
X715273Y128406D01*
X715074Y128469D01*
X714876Y128537D01*
X714681Y128610D01*
X714487Y128687D01*
X714295Y128769D01*
X714106Y128856D01*
X713918Y128948D01*
X713733Y129044D01*
X713550Y129144D01*
X713370Y129249D01*
X713193Y129359D01*
X713018Y129473D01*
X712846Y129591D01*
X712677Y129713D01*
X712511Y129839D01*
X712348Y129969D01*
X712188Y130104D01*
X712032Y130242D01*
X711879Y130384D01*
X711730Y130530D01*
X711584Y130679D01*
X711442Y130832D01*
X711304Y130988D01*
X711169Y131148D01*
X711039Y131311D01*
X710913Y131477D01*
X710791Y131646D01*
X710673Y131818D01*
X710559Y131993D01*
X710449Y132170D01*
X710344Y132350D01*
X710244Y132533D01*
X710148Y132718D01*
X710056Y132906D01*
X709969Y133095D01*
X709887Y133287D01*
X709810Y133481D01*
X709737Y133676D01*
X709669Y133874D01*
X709606Y134073D01*
X709548Y134273D01*
X709495Y134475D01*
X709447Y134678D01*
X709403Y134882D01*
X709365Y135087D01*
X709332Y135293D01*
X709304Y135500D01*
X709281Y135707D01*
X709263Y135915D01*
X709250Y136123D01*
X709243Y136331D01*
X709240Y136540D01*
D11*
X0Y0D02*
X750000Y0D01*
X750000Y750000D01*
X0Y750000D01*
X0Y0D01*
X633240Y184040D02*
X633255Y183691D01*
X633301Y183345D01*
X633376Y183005D01*
X633481Y182672D01*
X633615Y182350D01*
X633776Y182040D01*
X633963Y181746D01*
X634176Y181469D01*
X634412Y181212D01*
X634669Y180976D01*
X634946Y180763D01*
X635240Y180576D01*
X635550Y180415D01*
X635872Y180281D01*
X636205Y180176D01*
X636545Y180101D01*
X636891Y180055D01*
X637240Y180040D01*
X649240Y180040D01*
X649589Y180055D01*
X649935Y180101D01*
X650275Y180176D01*
X650608Y180281D01*
X650930Y180415D01*
X651240Y180576D01*
X651534Y180763D01*
X651811Y180976D01*
X652068Y181212D01*
X652304Y181469D01*
X652517Y181746D01*
X652704Y182040D01*
X652865Y182350D01*
X652999Y182672D01*
X653104Y183005D01*
X653179Y183345D01*
X653225Y183691D01*
X653240Y184040D01*
X653225Y184389D01*
X653179Y184735D01*
X653104Y185075D01*
X652999Y185408D01*
X652865Y185730D01*
X652704Y186040D01*
X652517Y186334D01*
X652304Y186611D01*
X652068Y186868D01*
X651811Y187104D01*
X651534Y187317D01*
X651240Y187504D01*
X650930Y187665D01*
X650608Y187799D01*
X650275Y187904D01*
X649935Y187979D01*
X649589Y188025D01*
X649240Y188040D01*
X637240Y188040D01*
X636891Y188025D01*
X636545Y187979D01*
X636205Y187904D01*
X635872Y187799D01*
X635550Y187665D01*
X635240Y187504D01*
X634946Y187317D01*
X634669Y187104D01*
X634412Y186868D01*
X634176Y186611D01*
X633963Y186334D01*
X633776Y186040D01*
X633615Y185730D01*
X633481Y185408D01*
X633376Y185075D01*
X633301Y184735D01*
X633255Y184389D01*
X633240Y184040D01*
X633240Y89040D02*
X633255Y88691D01*
X633301Y88345D01*
X633376Y88005D01*
X633481Y87672D01*
X633615Y87350D01*
X633776Y87040D01*
X633963Y86746D01*
X634176Y86469D01*
X634412Y86212D01*
X634669Y85976D01*
X634946Y85763D01*
X635240Y85576D01*
X635550Y85415D01*
X635872Y85281D01*
X636205Y85176D01*
X636545Y85101D01*
X636891Y85055D01*
X637240Y85040D01*
X649240Y85040D01*
X649589Y85055D01*
X649935Y85101D01*
X650275Y85176D01*
X650608Y85281D01*
X650930Y85415D01*
X651240Y85576D01*
X651534Y85763D01*
X651811Y85976D01*
X652068Y86212D01*
X652304Y86469D01*
X652517Y86746D01*
X652704Y87040D01*
X652865Y87350D01*
X652999Y87672D01*
X653104Y88005D01*
X653179Y88345D01*
X653225Y88691D01*
X653240Y89040D01*
X653225Y89389D01*
X653179Y89735D01*
X653104Y90075D01*
X652999Y90408D01*
X652865Y90730D01*
X652704Y91040D01*
X652517Y91334D01*
X652304Y91611D01*
X652068Y91868D01*
X651811Y92104D01*
X651534Y92317D01*
X651240Y92504D01*
X650930Y92665D01*
X650608Y92799D01*
X650275Y92904D01*
X649935Y92979D01*
X649589Y93025D01*
X649240Y93040D01*
X637240Y93040D01*
X636891Y93025D01*
X636545Y92979D01*
X636205Y92904D01*
X635872Y92799D01*
X635550Y92665D01*
X635240Y92504D01*
X634946Y92317D01*
X634669Y92104D01*
X634412Y91868D01*
X634176Y91611D01*
X633963Y91334D01*
X633776Y91040D01*
X633615Y90730D01*
X633481Y90408D01*
X633376Y90075D01*
X633301Y89735D01*
X633255Y89389D01*
X633240Y89040D01*
X680240Y89040D02*
X680255Y88691D01*
X680301Y88345D01*
X680376Y88005D01*
X680481Y87672D01*
X680615Y87350D01*
X680776Y87040D01*
X680963Y86746D01*
X681176Y86469D01*
X681412Y86212D01*
X681669Y85976D01*
X681946Y85763D01*
X682240Y85576D01*
X682550Y85415D01*
X682872Y85281D01*
X683205Y85176D01*
X683545Y85101D01*
X683891Y85055D01*
X684240Y85040D01*
X696240Y85040D01*
X696589Y85055D01*
X696935Y85101D01*
X697275Y85176D01*
X697608Y85281D01*
X697930Y85415D01*
X698240Y85576D01*
X698534Y85763D01*
X698811Y85976D01*
X699068Y86212D01*
X699304Y86469D01*
X699517Y86746D01*
X699704Y87040D01*
X699865Y87350D01*
X699999Y87672D01*
X700104Y88005D01*
X700179Y88345D01*
X700225Y88691D01*
X700240Y89040D01*
X700225Y89389D01*
X700179Y89735D01*
X700104Y90075D01*
X699999Y90408D01*
X699865Y90730D01*
X699704Y91040D01*
X699517Y91334D01*
X699304Y91611D01*
X699068Y91868D01*
X698811Y92104D01*
X698534Y92317D01*
X698240Y92504D01*
X697930Y92665D01*
X697608Y92799D01*
X697275Y92904D01*
X696935Y92979D01*
X696589Y93025D01*
X696240Y93040D01*
X684240Y93040D01*
X683891Y93025D01*
X683545Y92979D01*
X683205Y92904D01*
X682872Y92799D01*
X682550Y92665D01*
X682240Y92504D01*
X681946Y92317D01*
X681669Y92104D01*
X681412Y91868D01*
X681176Y91611D01*
X680963Y91334D01*
X680776Y91040D01*
X680615Y90730D01*
X680481Y90408D01*
X680376Y90075D01*
X680301Y89735D01*
X680255Y89389D01*
X680240Y89040D01*
X681240Y125540D02*
X681255Y125191D01*
X681301Y124845D01*
X681376Y124505D01*
X681481Y124172D01*
X681615Y123850D01*
X681776Y123540D01*
X681963Y123246D01*
X682176Y122969D01*
X682412Y122712D01*
X682669Y122476D01*
X682946Y122263D01*
X683240Y122076D01*
X683550Y121915D01*
X683872Y121781D01*
X684205Y121676D01*
X684545Y121601D01*
X684891Y121555D01*
X685240Y121540D01*
X685589Y121555D01*
X685935Y121601D01*
X686275Y121676D01*
X686608Y121781D01*
X686930Y121915D01*
X687240Y122076D01*
X687534Y122263D01*
X687811Y122476D01*
X688068Y122712D01*
X688304Y122969D01*
X688517Y123246D01*
X688704Y123540D01*
X688865Y123850D01*
X688999Y124172D01*
X689104Y124505D01*
X689179Y124845D01*
X689225Y125191D01*
X689240Y125540D01*
X689240Y147540D01*
X689225Y147889D01*
X689179Y148235D01*
X689104Y148575D01*
X688999Y148908D01*
X688865Y149230D01*
X688704Y149540D01*
X688517Y149834D01*
X688304Y150111D01*
X688068Y150368D01*
X687811Y150604D01*
X687534Y150817D01*
X687240Y151004D01*
X686930Y151165D01*
X686608Y151299D01*
X686275Y151404D01*
X685935Y151479D01*
X685589Y151525D01*
X685240Y151540D01*
X684891Y151525D01*
X684545Y151479D01*
X684205Y151404D01*
X683872Y151299D01*
X683550Y151165D01*
X683240Y151004D01*
X682946Y150817D01*
X682669Y150604D01*
X682412Y150368D01*
X682176Y150111D01*
X681963Y149834D01*
X681776Y149540D01*
X681615Y149230D01*
X681481Y148908D01*
X681376Y148575D01*
X681301Y148235D01*
X681255Y147889D01*
X681240Y147540D01*
X681240Y125540D01*
X680240Y184040D02*
X680255Y183691D01*
X680301Y183345D01*
X680376Y183005D01*
X680481Y182672D01*
X680615Y182350D01*
X680776Y182040D01*
X680963Y181746D01*
X681176Y181469D01*
X681412Y181212D01*
X681669Y180976D01*
X681946Y180763D01*
X682240Y180576D01*
X682550Y180415D01*
X682872Y180281D01*
X683205Y180176D01*
X683545Y180101D01*
X683891Y180055D01*
X684240Y180040D01*
X696240Y180040D01*
X696589Y180055D01*
X696935Y180101D01*
X697275Y180176D01*
X697608Y180281D01*
X697930Y180415D01*
X698240Y180576D01*
X698534Y180763D01*
X698811Y180976D01*
X699068Y181212D01*
X699304Y181469D01*
X699517Y181746D01*
X699704Y182040D01*
X699865Y182350D01*
X699999Y182672D01*
X700104Y183005D01*
X700179Y183345D01*
X700225Y183691D01*
X700240Y184040D01*
X700225Y184389D01*
X700179Y184735D01*
X700104Y185075D01*
X699999Y185408D01*
X699865Y185730D01*
X699704Y186040D01*
X699517Y186334D01*
X699304Y186611D01*
X699068Y186868D01*
X698811Y187104D01*
X698534Y187317D01*
X698240Y187504D01*
X697930Y187665D01*
X697608Y187799D01*
X697275Y187904D01*
X696935Y187979D01*
X696589Y188025D01*
X696240Y188040D01*
X684240Y188040D01*
X683891Y188025D01*
X683545Y187979D01*
X683205Y187904D01*
X682872Y187799D01*
X682550Y187665D01*
X682240Y187504D01*
X681946Y187317D01*
X681669Y187104D01*
X681412Y186868D01*
X681176Y186611D01*
X680963Y186334D01*
X680776Y186040D01*
X680615Y185730D01*
X680481Y185408D01*
X680376Y185075D01*
X680301Y184735D01*
X680255Y184389D01*
X680240Y184040D01*
X51000Y714476D02*
X50932Y713431D01*
X50795Y712392D01*
X50590Y711365D01*
X50319Y710353D01*
X49983Y709361D01*
X49582Y708393D01*
X49118Y707454D01*
X48595Y706546D01*
X48013Y705675D01*
X47375Y704844D01*
X46684Y704057D01*
X45943Y703316D01*
X45156Y702625D01*
X44325Y701988D01*
X43454Y701406D01*
X42546Y700882D01*
X41607Y700418D01*
X40639Y700017D01*
X39647Y699681D01*
X38635Y699410D01*
X37608Y699205D01*
X36569Y699069D01*
X35524Y699000D01*
X34476Y699000D01*
X33431Y699069D01*
X32392Y699205D01*
X31365Y699410D01*
X30353Y699681D01*
X29361Y700017D01*
X28393Y700418D01*
X27454Y700882D01*
X26546Y701406D01*
X25675Y701988D01*
X24844Y702625D01*
X24057Y703316D01*
X23316Y704057D01*
X22625Y704844D01*
X21988Y705675D01*
X21406Y706546D01*
X20882Y707454D01*
X20418Y708393D01*
X20017Y709361D01*
X19681Y710353D01*
X19410Y711365D01*
X19205Y712392D01*
X19069Y713431D01*
X19000Y714476D01*
X19000Y715524D01*
X19069Y716569D01*
X19205Y717608D01*
X19410Y718635D01*
X19681Y719647D01*
X20017Y720639D01*
X20418Y721607D01*
X20882Y722546D01*
X21406Y723454D01*
X21988Y724325D01*
X22625Y725156D01*
X23316Y725943D01*
X24057Y726684D01*
X24844Y727375D01*
X25675Y728013D01*
X26546Y728595D01*
X27454Y729118D01*
X28393Y729582D01*
X29361Y729983D01*
X30353Y730319D01*
X31365Y730590D01*
X32392Y730795D01*
X33431Y730932D01*
X34476Y731000D01*
X35524Y731000D01*
X36569Y730932D01*
X37608Y730795D01*
X38635Y730590D01*
X39647Y730319D01*
X40639Y729983D01*
X41607Y729582D01*
X42546Y729118D01*
X43454Y728595D01*
X44325Y728013D01*
X45156Y727375D01*
X45943Y726684D01*
X46684Y725943D01*
X47375Y725156D01*
X48013Y724325D01*
X48595Y723454D01*
X49118Y722546D01*
X49582Y721607D01*
X49983Y720639D01*
X50319Y719647D01*
X50590Y718635D01*
X50795Y717608D01*
X50932Y716569D01*
X51000Y715524D01*
X51000Y714476D01*
X731000Y714476D02*
X730932Y713431D01*
X730795Y712392D01*
X730590Y711365D01*
X730319Y710353D01*
X729983Y709361D01*
X729582Y708393D01*
X729118Y707454D01*
X728595Y706546D01*
X728013Y705675D01*
X727375Y704844D01*
X726684Y704057D01*
X725943Y703316D01*
X725156Y702625D01*
X724325Y701988D01*
X723454Y701406D01*
X722546Y700882D01*
X721607Y700418D01*
X720639Y700017D01*
X719647Y699681D01*
X718635Y699410D01*
X717608Y699205D01*
X716569Y699069D01*
X715524Y699000D01*
X714476Y699000D01*
X713431Y699069D01*
X712392Y699205D01*
X711365Y699410D01*
X710353Y699681D01*
X709361Y700017D01*
X708393Y700418D01*
X707454Y700882D01*
X706546Y701406D01*
X705675Y701988D01*
X704844Y702625D01*
X704057Y703316D01*
X703316Y704057D01*
X702625Y704844D01*
X701988Y705675D01*
X701406Y706546D01*
X700882Y707454D01*
X700418Y708393D01*
X700017Y709361D01*
X699681Y710353D01*
X699410Y711365D01*
X699205Y712392D01*
X699069Y713431D01*
X699000Y714476D01*
X699000Y715524D01*
X699069Y716569D01*
X699205Y717608D01*
X699410Y718635D01*
X699681Y719647D01*
X700017Y720639D01*
X700418Y721607D01*
X700882Y722546D01*
X701406Y723454D01*
X701988Y724325D01*
X702625Y725156D01*
X703316Y725943D01*
X704057Y726684D01*
X704844Y727375D01*
X705675Y728013D01*
X706546Y728595D01*
X707454Y729118D01*
X708393Y729582D01*
X709361Y729983D01*
X710353Y730319D01*
X711365Y730590D01*
X712392Y730795D01*
X713431Y730932D01*
X714476Y731000D01*
X715524Y731000D01*
X716569Y730932D01*
X717608Y730795D01*
X718635Y730590D01*
X719647Y730319D01*
X720639Y729983D01*
X721607Y729582D01*
X722546Y729118D01*
X723454Y728595D01*
X724325Y728013D01*
X725156Y727375D01*
X725943Y726684D01*
X726684Y725943D01*
X727375Y725156D01*
X728013Y724325D01*
X728595Y723454D01*
X729118Y722546D01*
X729582Y721607D01*
X729983Y720639D01*
X730319Y719647D01*
X730590Y718635D01*
X730795Y717608D01*
X730932Y716569D01*
X731000Y715524D01*
X731000Y714476D01*
X731000Y34476D02*
X730932Y33431D01*
X730795Y32392D01*
X730590Y31365D01*
X730319Y30353D01*
X729983Y29361D01*
X729582Y28393D01*
X729118Y27454D01*
X728595Y26546D01*
X728013Y25675D01*
X727375Y24844D01*
X726684Y24057D01*
X725943Y23316D01*
X725156Y22625D01*
X724325Y21988D01*
X723454Y21406D01*
X722546Y20882D01*
X721607Y20418D01*
X720639Y20017D01*
X719647Y19681D01*
X718635Y19410D01*
X717608Y19205D01*
X716569Y19069D01*
X715524Y19000D01*
X714476Y19000D01*
X713431Y19069D01*
X712392Y19205D01*
X711365Y19410D01*
X710353Y19681D01*
X709361Y20017D01*
X708393Y20418D01*
X707454Y20882D01*
X706546Y21406D01*
X705675Y21988D01*
X704844Y22625D01*
X704057Y23316D01*
X703316Y24057D01*
X702625Y24844D01*
X701988Y25675D01*
X701406Y26546D01*
X700882Y27454D01*
X700418Y28393D01*
X700017Y29361D01*
X699681Y30353D01*
X699410Y31365D01*
X699205Y32392D01*
X699069Y33431D01*
X699000Y34476D01*
X699000Y35524D01*
X699069Y36569D01*
X699205Y37608D01*
X699410Y38635D01*
X699681Y39647D01*
X700017Y40639D01*
X700418Y41607D01*
X700882Y42546D01*
X701406Y43454D01*
X701988Y44325D01*
X702625Y45156D01*
X703316Y45943D01*
X704057Y46684D01*
X704844Y47375D01*
X705675Y48013D01*
X706546Y48595D01*
X707454Y49118D01*
X708393Y49582D01*
X709361Y49983D01*
X710353Y50319D01*
X711365Y50590D01*
X712392Y50795D01*
X713431Y50932D01*
X714476Y51000D01*
X715524Y51000D01*
X716569Y50932D01*
X717608Y50795D01*
X718635Y50590D01*
X719647Y50319D01*
X720639Y49983D01*
X721607Y49582D01*
X722546Y49118D01*
X723454Y48595D01*
X724325Y48013D01*
X725156Y47375D01*
X725943Y46684D01*
X726684Y45943D01*
X727375Y45156D01*
X728013Y44325D01*
X728595Y43454D01*
X729118Y42546D01*
X729582Y41607D01*
X729983Y40639D01*
X730319Y39647D01*
X730590Y38635D01*
X730795Y37608D01*
X730932Y36569D01*
X731000Y35524D01*
X731000Y34476D01*
X42500Y34632D02*
X42428Y33898D01*
X42284Y33175D01*
X42070Y32470D01*
X41788Y31789D01*
X41441Y31140D01*
X41031Y30527D01*
X40564Y29957D01*
X40043Y29436D01*
X39473Y28969D01*
X38860Y28559D01*
X38211Y28212D01*
X37530Y27930D01*
X36825Y27716D01*
X36102Y27572D01*
X35368Y27500D01*
X34632Y27500D01*
X33898Y27572D01*
X33175Y27716D01*
X32470Y27930D01*
X31789Y28212D01*
X31140Y28559D01*
X30527Y28969D01*
X29957Y29436D01*
X29436Y29957D01*
X28969Y30527D01*
X28559Y31140D01*
X28212Y31789D01*
X27930Y32470D01*
X27716Y33175D01*
X27572Y33898D01*
X27500Y34632D01*
X27500Y35368D01*
X27572Y36102D01*
X27716Y36825D01*
X27930Y37530D01*
X28212Y38211D01*
X28559Y38860D01*
X28969Y39473D01*
X29436Y40043D01*
X29957Y40564D01*
X30527Y41031D01*
X31140Y41441D01*
X31789Y41788D01*
X32470Y42070D01*
X33175Y42284D01*
X33898Y42428D01*
X34632Y42500D01*
X35368Y42500D01*
X36102Y42428D01*
X36825Y42284D01*
X37530Y42070D01*
X38211Y41788D01*
X38860Y41441D01*
X39473Y41031D01*
X40043Y40564D01*
X40564Y40043D01*
X41031Y39473D01*
X41441Y38860D01*
X41788Y38211D01*
X42070Y37530D01*
X42284Y36825D01*
X42428Y36102D01*
X42500Y35368D01*
X42500Y34632D01*
X734400Y452164D02*
X734324Y451096D01*
X734171Y450035D01*
X733943Y448988D01*
X733641Y447960D01*
X733267Y446956D01*
X732822Y445981D01*
X732308Y445041D01*
X731729Y444140D01*
X731087Y443282D01*
X730385Y442472D01*
X729628Y441715D01*
X728818Y441013D01*
X727960Y440371D01*
X727059Y439792D01*
X726119Y439278D01*
X725144Y438833D01*
X724140Y438459D01*
X723112Y438157D01*
X722065Y437929D01*
X721004Y437776D01*
X719936Y437700D01*
X718864Y437700D01*
X717796Y437776D01*
X716735Y437929D01*
X715688Y438157D01*
X714660Y438459D01*
X713656Y438833D01*
X712681Y439278D01*
X711741Y439792D01*
X710840Y440371D01*
X709982Y441013D01*
X709172Y441715D01*
X708415Y442472D01*
X707713Y443282D01*
X707071Y444140D01*
X706492Y445041D01*
X705978Y445981D01*
X705533Y446956D01*
X705159Y447960D01*
X704857Y448988D01*
X704629Y450035D01*
X704476Y451096D01*
X704400Y452164D01*
X704400Y453236D01*
X704476Y454304D01*
X704629Y455365D01*
X704857Y456412D01*
X705159Y457440D01*
X705533Y458444D01*
X705978Y459419D01*
X706492Y460359D01*
X707071Y461260D01*
X707713Y462118D01*
X708415Y462928D01*
X709172Y463685D01*
X709982Y464387D01*
X710840Y465029D01*
X711741Y465608D01*
X712681Y466122D01*
X713656Y466567D01*
X714660Y466941D01*
X715688Y467243D01*
X716735Y467471D01*
X717796Y467624D01*
X718864Y467700D01*
X719936Y467700D01*
X721004Y467624D01*
X722065Y467471D01*
X723112Y467243D01*
X724140Y466941D01*
X725144Y466567D01*
X726119Y466122D01*
X727059Y465608D01*
X727960Y465029D01*
X728818Y464387D01*
X729628Y463685D01*
X730385Y462928D01*
X731087Y462118D01*
X731729Y461260D01*
X732308Y460359D01*
X732822Y459419D01*
X733267Y458444D01*
X733641Y457440D01*
X733943Y456412D01*
X734171Y455365D01*
X734324Y454304D01*
X734400Y453236D01*
X734400Y452164D01*
X686240Y88778D02*
X686308Y88258D01*
X686444Y87751D01*
X686645Y87267D01*
X686907Y86813D01*
X687226Y86397D01*
X687597Y86026D01*
X688013Y85707D01*
X688467Y85445D01*
X688951Y85244D01*
X689458Y85108D01*
X689978Y85040D01*
X690502Y85040D01*
X691022Y85108D01*
X691529Y85244D01*
X692013Y85445D01*
X692467Y85707D01*
X692883Y86026D01*
X693254Y86397D01*
X693573Y86813D01*
X693835Y87267D01*
X694036Y87751D01*
X694172Y88258D01*
X694240Y88778D01*
X694240Y89302D01*
X694172Y89822D01*
X694036Y90329D01*
X693835Y90813D01*
X693573Y91267D01*
X693254Y91683D01*
X692883Y92054D01*
X692467Y92373D01*
X692013Y92635D01*
X691529Y92836D01*
X691022Y92972D01*
X690502Y93040D01*
X689978Y93040D01*
X689458Y92972D01*
X688951Y92836D01*
X688467Y92635D01*
X688013Y92373D01*
X687597Y92054D01*
X687226Y91683D01*
X686907Y91267D01*
X686645Y90813D01*
X686444Y90329D01*
X686308Y89822D01*
X686240Y89302D01*
X686240Y88778D01*
X681240Y136278D02*
X681308Y135758D01*
X681444Y135251D01*
X681645Y134767D01*
X681907Y134313D01*
X682226Y133897D01*
X682597Y133526D01*
X683013Y133207D01*
X683467Y132945D01*
X683951Y132744D01*
X684458Y132608D01*
X684978Y132540D01*
X685502Y132540D01*
X686022Y132608D01*
X686529Y132744D01*
X687013Y132945D01*
X687467Y133207D01*
X687883Y133526D01*
X688254Y133897D01*
X688573Y134313D01*
X688835Y134767D01*
X689036Y135251D01*
X689172Y135758D01*
X689240Y136278D01*
X689240Y136802D01*
X689172Y137322D01*
X689036Y137829D01*
X688835Y138313D01*
X688573Y138767D01*
X688254Y139183D01*
X687883Y139554D01*
X687467Y139873D01*
X687013Y140135D01*
X686529Y140336D01*
X686022Y140472D01*
X685502Y140540D01*
X684978Y140540D01*
X684458Y140472D01*
X683951Y140336D01*
X683467Y140135D01*
X683013Y139873D01*
X682597Y139554D01*
X682226Y139183D01*
X681907Y138767D01*
X681645Y138313D01*
X681444Y137829D01*
X681308Y137322D01*
X681240Y136802D01*
X681240Y136278D01*
X686240Y183778D02*
X686308Y183258D01*
X686444Y182751D01*
X686645Y182267D01*
X686907Y181813D01*
X687226Y181397D01*
X687597Y181026D01*
X688013Y180707D01*
X688467Y180445D01*
X688951Y180244D01*
X689458Y180108D01*
X689978Y180040D01*
X690502Y180040D01*
X691022Y180108D01*
X691529Y180244D01*
X692013Y180445D01*
X692467Y180707D01*
X692883Y181026D01*
X693254Y181397D01*
X693573Y181813D01*
X693835Y182267D01*
X694036Y182751D01*
X694172Y183258D01*
X694240Y183778D01*
X694240Y184302D01*
X694172Y184822D01*
X694036Y185329D01*
X693835Y185813D01*
X693573Y186267D01*
X693254Y186683D01*
X692883Y187054D01*
X692467Y187373D01*
X692013Y187635D01*
X691529Y187836D01*
X691022Y187972D01*
X690502Y188040D01*
X689978Y188040D01*
X689458Y187972D01*
X688951Y187836D01*
X688467Y187635D01*
X688013Y187373D01*
X687597Y187054D01*
X687226Y186683D01*
X686907Y186267D01*
X686645Y185813D01*
X686444Y185329D01*
X686308Y184822D01*
X686240Y184302D01*
X686240Y183778D01*
X639240Y88778D02*
X639308Y88258D01*
X639444Y87751D01*
X639645Y87267D01*
X639907Y86813D01*
X640226Y86397D01*
X640597Y86026D01*
X641013Y85707D01*
X641467Y85445D01*
X641951Y85244D01*
X642458Y85108D01*
X642978Y85040D01*
X643502Y85040D01*
X644022Y85108D01*
X644529Y85244D01*
X645013Y85445D01*
X645467Y85707D01*
X645883Y86026D01*
X646254Y86397D01*
X646573Y86813D01*
X646835Y87267D01*
X647036Y87751D01*
X647172Y88258D01*
X647240Y88778D01*
X647240Y89302D01*
X647172Y89822D01*
X647036Y90329D01*
X646835Y90813D01*
X646573Y91267D01*
X646254Y91683D01*
X645883Y92054D01*
X645467Y92373D01*
X645013Y92635D01*
X644529Y92836D01*
X644022Y92972D01*
X643502Y93040D01*
X642978Y93040D01*
X642458Y92972D01*
X641951Y92836D01*
X641467Y92635D01*
X641013Y92373D01*
X640597Y92054D01*
X640226Y91683D01*
X639907Y91267D01*
X639645Y90813D01*
X639444Y90329D01*
X639308Y89822D01*
X639240Y89302D01*
X639240Y88778D01*
X639240Y183778D02*
X639308Y183258D01*
X639444Y182751D01*
X639645Y182267D01*
X639907Y181813D01*
X640226Y181397D01*
X640597Y181026D01*
X641013Y180707D01*
X641467Y180445D01*
X641951Y180244D01*
X642458Y180108D01*
X642978Y180040D01*
X643502Y180040D01*
X644022Y180108D01*
X644529Y180244D01*
X645013Y180445D01*
X645467Y180707D01*
X645883Y181026D01*
X646254Y181397D01*
X646573Y181813D01*
X646835Y182267D01*
X647036Y182751D01*
X647172Y183258D01*
X647240Y183778D01*
X647240Y184302D01*
X647172Y184822D01*
X647036Y185329D01*
X646835Y185813D01*
X646573Y186267D01*
X646254Y186683D01*
X645883Y187054D01*
X645467Y187373D01*
X645013Y187635D01*
X644529Y187836D01*
X644022Y187972D01*
X643502Y188040D01*
X642978Y188040D01*
X642458Y187972D01*
X641951Y187836D01*
X641467Y187635D01*
X641013Y187373D01*
X640597Y187054D01*
X640226Y186683D01*
X639907Y186267D01*
X639645Y185813D01*
X639444Y185329D01*
X639308Y184822D01*
X639240Y184302D01*
X639240Y183778D01*
X709240Y136169D02*
X709305Y135429D01*
X709434Y134699D01*
X709626Y133982D01*
X709880Y133284D01*
X710193Y132611D01*
X710564Y131969D01*
X710990Y131361D01*
X711467Y130792D01*
X711992Y130267D01*
X712561Y129790D01*
X713169Y129364D01*
X713811Y128993D01*
X714484Y128680D01*
X715182Y128426D01*
X715899Y128234D01*
X716629Y128105D01*
X717369Y128040D01*
X718111Y128040D01*
X718851Y128105D01*
X719582Y128234D01*
X720298Y128426D01*
X720996Y128680D01*
X721669Y128993D01*
X722311Y129364D01*
X722919Y129790D01*
X723488Y130267D01*
X724013Y130792D01*
X724490Y131361D01*
X724916Y131969D01*
X725287Y132611D01*
X725600Y133284D01*
X725854Y133982D01*
X726046Y134699D01*
X726175Y135429D01*
X726240Y136169D01*
X726240Y136911D01*
X726175Y137651D01*
X726046Y138382D01*
X725854Y139098D01*
X725600Y139796D01*
X725287Y140469D01*
X724916Y141111D01*
X724490Y141719D01*
X724013Y142288D01*
X723488Y142813D01*
X722919Y143290D01*
X722311Y143716D01*
X721669Y144087D01*
X720996Y144400D01*
X720298Y144654D01*
X719582Y144846D01*
X718851Y144975D01*
X718111Y145040D01*
X717369Y145040D01*
X716629Y144975D01*
X715899Y144846D01*
X715182Y144654D01*
X714484Y144400D01*
X713811Y144087D01*
X713169Y143716D01*
X712561Y143290D01*
X711992Y142813D01*
X711467Y142288D01*
X710990Y141719D01*
X710564Y141111D01*
X710193Y140469D01*
X709880Y139796D01*
X709626Y139098D01*
X709434Y138382D01*
X709305Y137651D01*
X709240Y136911D01*
X709240Y136169D01*
M02*
