G04 EAGLE Gerber RS-274X export*
G75*
%MOMM*%
%FSLAX34Y34*%
%LPD*%
%INSilkscreen Bottom*%
%IPPOS*%
%AMOC8*
5,1,8,0,0,1.08239X$1,22.5*%
G01*
%ADD10C,0.508000*%
%ADD11C,0.152400*%
%ADD12C,0.200000*%
%ADD13C,0.101600*%
%ADD14C,0.127000*%
%ADD15C,0.050800*%
%ADD16C,0.100000*%
%ADD17C,0.200000*%
%ADD18C,0.076200*%


D10*
X247074Y720000D02*
X247076Y719878D01*
X247082Y719756D01*
X247092Y719634D01*
X247105Y719513D01*
X247123Y719392D01*
X247144Y719272D01*
X247170Y719152D01*
X247199Y719034D01*
X247231Y718916D01*
X247268Y718799D01*
X247308Y718684D01*
X247352Y718570D01*
X247400Y718458D01*
X247451Y718347D01*
X247506Y718238D01*
X247564Y718130D01*
X247626Y718025D01*
X247691Y717922D01*
X247759Y717820D01*
X247831Y717721D01*
X247905Y717625D01*
X247983Y717530D01*
X248064Y717439D01*
X248147Y717349D01*
X248233Y717263D01*
X248323Y717180D01*
X248414Y717099D01*
X248509Y717021D01*
X248605Y716947D01*
X248704Y716875D01*
X248806Y716807D01*
X248909Y716742D01*
X249014Y716680D01*
X249122Y716622D01*
X249231Y716567D01*
X249342Y716516D01*
X249454Y716468D01*
X249568Y716424D01*
X249683Y716384D01*
X249800Y716347D01*
X249918Y716315D01*
X250036Y716286D01*
X250156Y716260D01*
X250276Y716239D01*
X250397Y716221D01*
X250518Y716208D01*
X250640Y716198D01*
X250762Y716192D01*
X250884Y716190D01*
X251006Y716192D01*
X251128Y716198D01*
X251250Y716208D01*
X251371Y716221D01*
X251492Y716239D01*
X251612Y716260D01*
X251732Y716286D01*
X251850Y716315D01*
X251968Y716347D01*
X252085Y716384D01*
X252200Y716424D01*
X252314Y716468D01*
X252426Y716516D01*
X252537Y716567D01*
X252646Y716622D01*
X252754Y716680D01*
X252859Y716742D01*
X252962Y716807D01*
X253064Y716875D01*
X253163Y716947D01*
X253259Y717021D01*
X253354Y717099D01*
X253445Y717180D01*
X253535Y717263D01*
X253621Y717349D01*
X253704Y717439D01*
X253785Y717530D01*
X253863Y717625D01*
X253937Y717721D01*
X254009Y717820D01*
X254077Y717922D01*
X254142Y718025D01*
X254204Y718130D01*
X254262Y718238D01*
X254317Y718347D01*
X254368Y718458D01*
X254416Y718570D01*
X254460Y718684D01*
X254500Y718799D01*
X254537Y718916D01*
X254569Y719034D01*
X254598Y719152D01*
X254624Y719272D01*
X254645Y719392D01*
X254663Y719513D01*
X254676Y719634D01*
X254686Y719756D01*
X254692Y719878D01*
X254694Y720000D01*
X254692Y720122D01*
X254686Y720244D01*
X254676Y720366D01*
X254663Y720487D01*
X254645Y720608D01*
X254624Y720728D01*
X254598Y720848D01*
X254569Y720966D01*
X254537Y721084D01*
X254500Y721201D01*
X254460Y721316D01*
X254416Y721430D01*
X254368Y721542D01*
X254317Y721653D01*
X254262Y721762D01*
X254204Y721870D01*
X254142Y721975D01*
X254077Y722078D01*
X254009Y722180D01*
X253937Y722279D01*
X253863Y722375D01*
X253785Y722470D01*
X253704Y722561D01*
X253621Y722651D01*
X253535Y722737D01*
X253445Y722820D01*
X253354Y722901D01*
X253259Y722979D01*
X253163Y723053D01*
X253064Y723125D01*
X252962Y723193D01*
X252859Y723258D01*
X252754Y723320D01*
X252646Y723378D01*
X252537Y723433D01*
X252426Y723484D01*
X252314Y723532D01*
X252200Y723576D01*
X252085Y723616D01*
X251968Y723653D01*
X251850Y723685D01*
X251732Y723714D01*
X251612Y723740D01*
X251492Y723761D01*
X251371Y723779D01*
X251250Y723792D01*
X251128Y723802D01*
X251006Y723808D01*
X250884Y723810D01*
X250762Y723808D01*
X250640Y723802D01*
X250518Y723792D01*
X250397Y723779D01*
X250276Y723761D01*
X250156Y723740D01*
X250036Y723714D01*
X249918Y723685D01*
X249800Y723653D01*
X249683Y723616D01*
X249568Y723576D01*
X249454Y723532D01*
X249342Y723484D01*
X249231Y723433D01*
X249122Y723378D01*
X249014Y723320D01*
X248909Y723258D01*
X248806Y723193D01*
X248704Y723125D01*
X248605Y723053D01*
X248509Y722979D01*
X248414Y722901D01*
X248323Y722820D01*
X248233Y722737D01*
X248147Y722651D01*
X248064Y722561D01*
X247983Y722470D01*
X247905Y722375D01*
X247831Y722279D01*
X247759Y722180D01*
X247691Y722078D01*
X247626Y721975D01*
X247564Y721870D01*
X247506Y721762D01*
X247451Y721653D01*
X247400Y721542D01*
X247352Y721430D01*
X247308Y721316D01*
X247268Y721201D01*
X247231Y721084D01*
X247199Y720966D01*
X247170Y720848D01*
X247144Y720728D01*
X247123Y720608D01*
X247105Y720487D01*
X247092Y720366D01*
X247082Y720244D01*
X247076Y720122D01*
X247074Y720000D01*
D11*
X570484Y507746D02*
X636016Y507746D01*
X570484Y507746D02*
X570484Y536194D01*
X636016Y536194D01*
X636016Y507746D01*
X636016Y575056D02*
X570484Y575056D01*
X570484Y603504D01*
X636016Y603504D01*
X636016Y575056D01*
X726176Y497540D02*
X736336Y497540D01*
X738876Y497540D01*
X736336Y497540D02*
X736336Y503890D01*
X736336Y497540D02*
X736336Y491190D01*
X736336Y497540D02*
X728716Y503890D01*
X728716Y502620D02*
X736336Y497540D01*
X728716Y501350D01*
X728716Y500080D02*
X736336Y497540D01*
X728716Y498810D01*
X728716Y491190D02*
X736336Y497540D01*
X728716Y492460D01*
X728716Y493730D02*
X736336Y497540D01*
X728716Y495000D01*
X728716Y496270D02*
X736336Y497540D01*
X728716Y503890D02*
X728716Y491190D01*
X722112Y505160D02*
X721916Y505642D01*
X721707Y506118D01*
X721488Y506590D01*
X721257Y507056D01*
X721014Y507516D01*
X720760Y507970D01*
X720496Y508418D01*
X720220Y508859D01*
X719934Y509293D01*
X719638Y509721D01*
X719331Y510141D01*
X719013Y510553D01*
X718686Y510957D01*
X718349Y511354D01*
X718003Y511742D01*
X717647Y512121D01*
X717282Y512492D01*
X716908Y512853D01*
X716526Y513206D01*
X716134Y513548D01*
X715735Y513882D01*
X715328Y514205D01*
X714913Y514519D01*
X714490Y514822D01*
X714060Y515114D01*
X713623Y515397D01*
X713179Y515668D01*
X712729Y515929D01*
X712273Y516178D01*
X711810Y516416D01*
X711342Y516643D01*
X710869Y516859D01*
X710390Y517062D01*
X709907Y517254D01*
X709419Y517435D01*
X708927Y517603D01*
X708430Y517759D01*
X707931Y517903D01*
X707427Y518035D01*
X706921Y518154D01*
X706412Y518261D01*
X705901Y518356D01*
X705387Y518438D01*
X704872Y518508D01*
X704355Y518565D01*
X703836Y518609D01*
X703317Y518641D01*
X702797Y518660D01*
X702277Y518666D01*
X701757Y518660D01*
X701237Y518641D01*
X700718Y518609D01*
X700200Y518564D01*
X699683Y518507D01*
X699167Y518438D01*
X698654Y518355D01*
X698142Y518261D01*
X697633Y518154D01*
X697127Y518034D01*
X696624Y517902D01*
X696124Y517758D01*
X695628Y517602D01*
X695136Y517433D01*
X694648Y517253D01*
X694165Y517061D01*
X693686Y516857D01*
X693213Y516642D01*
X692745Y516415D01*
X692282Y516176D01*
X691826Y515927D01*
X691376Y515666D01*
X690932Y515395D01*
X690495Y515112D01*
X690065Y514820D01*
X689643Y514516D01*
X689228Y514203D01*
X688820Y513879D01*
X688421Y513546D01*
X688030Y513203D01*
X687647Y512851D01*
X687273Y512489D01*
X686909Y512118D01*
X686553Y511739D01*
X686206Y511351D01*
X685870Y510955D01*
X685542Y510550D01*
X685225Y510138D01*
X684918Y509718D01*
X684622Y509291D01*
X684336Y508856D01*
X684060Y508415D01*
X683796Y507967D01*
X683542Y507513D01*
X683300Y507053D01*
X683069Y506587D01*
X682849Y506115D01*
X682641Y505638D01*
X682445Y505157D01*
X682260Y504670D01*
X682087Y504180D01*
X681927Y503685D01*
X681778Y503187D01*
X681642Y502685D01*
X681518Y502179D01*
X681406Y501671D01*
X681307Y501161D01*
X681221Y500648D01*
X681146Y500133D01*
X681085Y499617D01*
X681036Y499099D01*
X680999Y498580D01*
X680976Y498060D01*
X680965Y497540D01*
X680976Y497020D01*
X680999Y496500D01*
X681036Y495981D01*
X681085Y495463D01*
X681146Y494947D01*
X681221Y494432D01*
X681307Y493919D01*
X681406Y493409D01*
X681518Y492901D01*
X681642Y492395D01*
X681778Y491893D01*
X681927Y491395D01*
X682087Y490900D01*
X682260Y490410D01*
X682445Y489923D01*
X682641Y489442D01*
X682849Y488965D01*
X683069Y488493D01*
X683300Y488027D01*
X683542Y487567D01*
X683796Y487113D01*
X684060Y486665D01*
X684336Y486224D01*
X684622Y485789D01*
X684918Y485362D01*
X685225Y484942D01*
X685542Y484530D01*
X685870Y484125D01*
X686206Y483729D01*
X686553Y483341D01*
X686909Y482962D01*
X687273Y482591D01*
X687647Y482229D01*
X688030Y481877D01*
X688421Y481534D01*
X688820Y481201D01*
X689228Y480877D01*
X689643Y480564D01*
X690065Y480260D01*
X690495Y479968D01*
X690932Y479685D01*
X691376Y479414D01*
X691826Y479153D01*
X692282Y478904D01*
X692745Y478665D01*
X693213Y478438D01*
X693686Y478223D01*
X694165Y478019D01*
X694648Y477827D01*
X695136Y477647D01*
X695628Y477478D01*
X696124Y477322D01*
X696624Y477178D01*
X697127Y477046D01*
X697633Y476926D01*
X698142Y476819D01*
X698654Y476725D01*
X699167Y476642D01*
X699683Y476573D01*
X700200Y476516D01*
X700718Y476471D01*
X701237Y476439D01*
X701757Y476420D01*
X702277Y476414D01*
X702797Y476420D01*
X703317Y476439D01*
X703836Y476471D01*
X704355Y476515D01*
X704872Y476572D01*
X705387Y476642D01*
X705901Y476724D01*
X706412Y476819D01*
X706921Y476926D01*
X707427Y477045D01*
X707931Y477177D01*
X708430Y477321D01*
X708927Y477477D01*
X709419Y477645D01*
X709907Y477826D01*
X710390Y478018D01*
X710869Y478221D01*
X711342Y478437D01*
X711810Y478664D01*
X712273Y478902D01*
X712729Y479151D01*
X713179Y479412D01*
X713623Y479683D01*
X714060Y479966D01*
X714490Y480258D01*
X714913Y480561D01*
X715328Y480875D01*
X715735Y481198D01*
X716134Y481532D01*
X716526Y481874D01*
X716908Y482227D01*
X717282Y482588D01*
X717647Y482959D01*
X718003Y483338D01*
X718349Y483726D01*
X718686Y484123D01*
X719013Y484527D01*
X719331Y484939D01*
X719638Y485359D01*
X719934Y485787D01*
X720220Y486221D01*
X720496Y486662D01*
X720760Y487110D01*
X721014Y487564D01*
X721257Y488024D01*
X721488Y488490D01*
X721707Y488962D01*
X721916Y489438D01*
X722112Y489920D01*
X723382Y495000D02*
X723438Y495506D01*
X723481Y496014D01*
X723512Y496522D01*
X723531Y497031D01*
X723537Y497540D01*
X723531Y498049D01*
X723512Y498558D01*
X723481Y499066D01*
X723438Y499574D01*
X723382Y500080D01*
X726176Y587540D02*
X736336Y587540D01*
X738876Y587540D01*
X736336Y587540D02*
X736336Y593890D01*
X736336Y587540D02*
X736336Y581190D01*
X736336Y587540D02*
X728716Y593890D01*
X728716Y592620D02*
X736336Y587540D01*
X728716Y591350D01*
X728716Y590080D02*
X736336Y587540D01*
X728716Y588810D01*
X728716Y581190D02*
X736336Y587540D01*
X728716Y582460D01*
X728716Y583730D02*
X736336Y587540D01*
X728716Y585000D01*
X728716Y586270D02*
X736336Y587540D01*
X728716Y593890D02*
X728716Y581190D01*
X722112Y595160D02*
X721916Y595642D01*
X721707Y596118D01*
X721488Y596590D01*
X721257Y597056D01*
X721014Y597516D01*
X720760Y597970D01*
X720496Y598418D01*
X720220Y598859D01*
X719934Y599293D01*
X719638Y599721D01*
X719331Y600141D01*
X719013Y600553D01*
X718686Y600957D01*
X718349Y601354D01*
X718003Y601742D01*
X717647Y602121D01*
X717282Y602492D01*
X716908Y602853D01*
X716526Y603206D01*
X716134Y603548D01*
X715735Y603882D01*
X715328Y604205D01*
X714913Y604519D01*
X714490Y604822D01*
X714060Y605114D01*
X713623Y605397D01*
X713179Y605668D01*
X712729Y605929D01*
X712273Y606178D01*
X711810Y606416D01*
X711342Y606643D01*
X710869Y606859D01*
X710390Y607062D01*
X709907Y607254D01*
X709419Y607435D01*
X708927Y607603D01*
X708430Y607759D01*
X707931Y607903D01*
X707427Y608035D01*
X706921Y608154D01*
X706412Y608261D01*
X705901Y608356D01*
X705387Y608438D01*
X704872Y608508D01*
X704355Y608565D01*
X703836Y608609D01*
X703317Y608641D01*
X702797Y608660D01*
X702277Y608666D01*
X701757Y608660D01*
X701237Y608641D01*
X700718Y608609D01*
X700200Y608564D01*
X699683Y608507D01*
X699167Y608438D01*
X698654Y608355D01*
X698142Y608261D01*
X697633Y608154D01*
X697127Y608034D01*
X696624Y607902D01*
X696124Y607758D01*
X695628Y607602D01*
X695136Y607433D01*
X694648Y607253D01*
X694165Y607061D01*
X693686Y606857D01*
X693213Y606642D01*
X692745Y606415D01*
X692282Y606176D01*
X691826Y605927D01*
X691376Y605666D01*
X690932Y605395D01*
X690495Y605112D01*
X690065Y604820D01*
X689643Y604516D01*
X689228Y604203D01*
X688820Y603879D01*
X688421Y603546D01*
X688030Y603203D01*
X687647Y602851D01*
X687273Y602489D01*
X686909Y602118D01*
X686553Y601739D01*
X686206Y601351D01*
X685870Y600955D01*
X685542Y600550D01*
X685225Y600138D01*
X684918Y599718D01*
X684622Y599291D01*
X684336Y598856D01*
X684060Y598415D01*
X683796Y597967D01*
X683542Y597513D01*
X683300Y597053D01*
X683069Y596587D01*
X682849Y596115D01*
X682641Y595638D01*
X682445Y595157D01*
X682260Y594670D01*
X682087Y594180D01*
X681927Y593685D01*
X681778Y593187D01*
X681642Y592685D01*
X681518Y592179D01*
X681406Y591671D01*
X681307Y591161D01*
X681221Y590648D01*
X681146Y590133D01*
X681085Y589617D01*
X681036Y589099D01*
X680999Y588580D01*
X680976Y588060D01*
X680965Y587540D01*
X680976Y587020D01*
X680999Y586500D01*
X681036Y585981D01*
X681085Y585463D01*
X681146Y584947D01*
X681221Y584432D01*
X681307Y583919D01*
X681406Y583409D01*
X681518Y582901D01*
X681642Y582395D01*
X681778Y581893D01*
X681927Y581395D01*
X682087Y580900D01*
X682260Y580410D01*
X682445Y579923D01*
X682641Y579442D01*
X682849Y578965D01*
X683069Y578493D01*
X683300Y578027D01*
X683542Y577567D01*
X683796Y577113D01*
X684060Y576665D01*
X684336Y576224D01*
X684622Y575789D01*
X684918Y575362D01*
X685225Y574942D01*
X685542Y574530D01*
X685870Y574125D01*
X686206Y573729D01*
X686553Y573341D01*
X686909Y572962D01*
X687273Y572591D01*
X687647Y572229D01*
X688030Y571877D01*
X688421Y571534D01*
X688820Y571201D01*
X689228Y570877D01*
X689643Y570564D01*
X690065Y570260D01*
X690495Y569968D01*
X690932Y569685D01*
X691376Y569414D01*
X691826Y569153D01*
X692282Y568904D01*
X692745Y568665D01*
X693213Y568438D01*
X693686Y568223D01*
X694165Y568019D01*
X694648Y567827D01*
X695136Y567647D01*
X695628Y567478D01*
X696124Y567322D01*
X696624Y567178D01*
X697127Y567046D01*
X697633Y566926D01*
X698142Y566819D01*
X698654Y566725D01*
X699167Y566642D01*
X699683Y566573D01*
X700200Y566516D01*
X700718Y566471D01*
X701237Y566439D01*
X701757Y566420D01*
X702277Y566414D01*
X702797Y566420D01*
X703317Y566439D01*
X703836Y566471D01*
X704355Y566515D01*
X704872Y566572D01*
X705387Y566642D01*
X705901Y566724D01*
X706412Y566819D01*
X706921Y566926D01*
X707427Y567045D01*
X707931Y567177D01*
X708430Y567321D01*
X708927Y567477D01*
X709419Y567645D01*
X709907Y567826D01*
X710390Y568018D01*
X710869Y568221D01*
X711342Y568437D01*
X711810Y568664D01*
X712273Y568902D01*
X712729Y569151D01*
X713179Y569412D01*
X713623Y569683D01*
X714060Y569966D01*
X714490Y570258D01*
X714913Y570561D01*
X715328Y570875D01*
X715735Y571198D01*
X716134Y571532D01*
X716526Y571874D01*
X716908Y572227D01*
X717282Y572588D01*
X717647Y572959D01*
X718003Y573338D01*
X718349Y573726D01*
X718686Y574123D01*
X719013Y574527D01*
X719331Y574939D01*
X719638Y575359D01*
X719934Y575787D01*
X720220Y576221D01*
X720496Y576662D01*
X720760Y577110D01*
X721014Y577564D01*
X721257Y578024D01*
X721488Y578490D01*
X721707Y578962D01*
X721916Y579438D01*
X722112Y579920D01*
X723382Y585000D02*
X723438Y585506D01*
X723481Y586014D01*
X723512Y586522D01*
X723531Y587031D01*
X723537Y587540D01*
X723531Y588049D01*
X723512Y588558D01*
X723481Y589066D01*
X723438Y589574D01*
X723382Y590080D01*
D10*
X88664Y720000D02*
X88662Y720122D01*
X88656Y720244D01*
X88646Y720366D01*
X88633Y720487D01*
X88615Y720608D01*
X88594Y720728D01*
X88568Y720848D01*
X88539Y720966D01*
X88507Y721084D01*
X88470Y721201D01*
X88430Y721316D01*
X88386Y721430D01*
X88338Y721542D01*
X88287Y721653D01*
X88232Y721762D01*
X88174Y721870D01*
X88112Y721975D01*
X88047Y722078D01*
X87979Y722180D01*
X87907Y722279D01*
X87833Y722375D01*
X87755Y722470D01*
X87674Y722561D01*
X87591Y722651D01*
X87505Y722737D01*
X87415Y722820D01*
X87324Y722901D01*
X87229Y722979D01*
X87133Y723053D01*
X87034Y723125D01*
X86932Y723193D01*
X86829Y723258D01*
X86724Y723320D01*
X86616Y723378D01*
X86507Y723433D01*
X86396Y723484D01*
X86284Y723532D01*
X86170Y723576D01*
X86055Y723616D01*
X85938Y723653D01*
X85820Y723685D01*
X85702Y723714D01*
X85582Y723740D01*
X85462Y723761D01*
X85341Y723779D01*
X85220Y723792D01*
X85098Y723802D01*
X84976Y723808D01*
X84854Y723810D01*
X84732Y723808D01*
X84610Y723802D01*
X84488Y723792D01*
X84367Y723779D01*
X84246Y723761D01*
X84126Y723740D01*
X84006Y723714D01*
X83888Y723685D01*
X83770Y723653D01*
X83653Y723616D01*
X83538Y723576D01*
X83424Y723532D01*
X83312Y723484D01*
X83201Y723433D01*
X83092Y723378D01*
X82984Y723320D01*
X82879Y723258D01*
X82776Y723193D01*
X82674Y723125D01*
X82575Y723053D01*
X82479Y722979D01*
X82384Y722901D01*
X82293Y722820D01*
X82203Y722737D01*
X82117Y722651D01*
X82034Y722561D01*
X81953Y722470D01*
X81875Y722375D01*
X81801Y722279D01*
X81729Y722180D01*
X81661Y722078D01*
X81596Y721975D01*
X81534Y721870D01*
X81476Y721762D01*
X81421Y721653D01*
X81370Y721542D01*
X81322Y721430D01*
X81278Y721316D01*
X81238Y721201D01*
X81201Y721084D01*
X81169Y720966D01*
X81140Y720848D01*
X81114Y720728D01*
X81093Y720608D01*
X81075Y720487D01*
X81062Y720366D01*
X81052Y720244D01*
X81046Y720122D01*
X81044Y720000D01*
X81046Y719878D01*
X81052Y719756D01*
X81062Y719634D01*
X81075Y719513D01*
X81093Y719392D01*
X81114Y719272D01*
X81140Y719152D01*
X81169Y719034D01*
X81201Y718916D01*
X81238Y718799D01*
X81278Y718684D01*
X81322Y718570D01*
X81370Y718458D01*
X81421Y718347D01*
X81476Y718238D01*
X81534Y718130D01*
X81596Y718025D01*
X81661Y717922D01*
X81729Y717820D01*
X81801Y717721D01*
X81875Y717625D01*
X81953Y717530D01*
X82034Y717439D01*
X82117Y717349D01*
X82203Y717263D01*
X82293Y717180D01*
X82384Y717099D01*
X82479Y717021D01*
X82575Y716947D01*
X82674Y716875D01*
X82776Y716807D01*
X82879Y716742D01*
X82984Y716680D01*
X83092Y716622D01*
X83201Y716567D01*
X83312Y716516D01*
X83424Y716468D01*
X83538Y716424D01*
X83653Y716384D01*
X83770Y716347D01*
X83888Y716315D01*
X84006Y716286D01*
X84126Y716260D01*
X84246Y716239D01*
X84367Y716221D01*
X84488Y716208D01*
X84610Y716198D01*
X84732Y716192D01*
X84854Y716190D01*
X84976Y716192D01*
X85098Y716198D01*
X85220Y716208D01*
X85341Y716221D01*
X85462Y716239D01*
X85582Y716260D01*
X85702Y716286D01*
X85820Y716315D01*
X85938Y716347D01*
X86055Y716384D01*
X86170Y716424D01*
X86284Y716468D01*
X86396Y716516D01*
X86507Y716567D01*
X86616Y716622D01*
X86724Y716680D01*
X86829Y716742D01*
X86932Y716807D01*
X87034Y716875D01*
X87133Y716947D01*
X87229Y717021D01*
X87324Y717099D01*
X87415Y717180D01*
X87505Y717263D01*
X87591Y717349D01*
X87674Y717439D01*
X87755Y717530D01*
X87833Y717625D01*
X87907Y717721D01*
X87979Y717820D01*
X88047Y717922D01*
X88112Y718025D01*
X88174Y718130D01*
X88232Y718238D01*
X88287Y718347D01*
X88338Y718458D01*
X88386Y718570D01*
X88430Y718684D01*
X88470Y718799D01*
X88507Y718916D01*
X88539Y719034D01*
X88568Y719152D01*
X88594Y719272D01*
X88615Y719392D01*
X88633Y719513D01*
X88646Y719634D01*
X88656Y719756D01*
X88662Y719878D01*
X88664Y720000D01*
X182670Y301674D02*
X182792Y301672D01*
X182914Y301666D01*
X183036Y301656D01*
X183157Y301643D01*
X183278Y301625D01*
X183398Y301604D01*
X183518Y301578D01*
X183636Y301549D01*
X183754Y301517D01*
X183871Y301480D01*
X183986Y301440D01*
X184100Y301396D01*
X184212Y301348D01*
X184323Y301297D01*
X184432Y301242D01*
X184540Y301184D01*
X184645Y301122D01*
X184748Y301057D01*
X184850Y300989D01*
X184949Y300917D01*
X185045Y300843D01*
X185140Y300765D01*
X185231Y300684D01*
X185321Y300601D01*
X185407Y300515D01*
X185490Y300425D01*
X185571Y300334D01*
X185649Y300239D01*
X185723Y300143D01*
X185795Y300044D01*
X185863Y299942D01*
X185928Y299839D01*
X185990Y299734D01*
X186048Y299626D01*
X186103Y299517D01*
X186154Y299406D01*
X186202Y299294D01*
X186246Y299180D01*
X186286Y299065D01*
X186323Y298948D01*
X186355Y298830D01*
X186384Y298712D01*
X186410Y298592D01*
X186431Y298472D01*
X186449Y298351D01*
X186462Y298230D01*
X186472Y298108D01*
X186478Y297986D01*
X186480Y297864D01*
X186478Y297742D01*
X186472Y297620D01*
X186462Y297498D01*
X186449Y297377D01*
X186431Y297256D01*
X186410Y297136D01*
X186384Y297016D01*
X186355Y296898D01*
X186323Y296780D01*
X186286Y296663D01*
X186246Y296548D01*
X186202Y296434D01*
X186154Y296322D01*
X186103Y296211D01*
X186048Y296102D01*
X185990Y295994D01*
X185928Y295889D01*
X185863Y295786D01*
X185795Y295684D01*
X185723Y295585D01*
X185649Y295489D01*
X185571Y295394D01*
X185490Y295303D01*
X185407Y295213D01*
X185321Y295127D01*
X185231Y295044D01*
X185140Y294963D01*
X185045Y294885D01*
X184949Y294811D01*
X184850Y294739D01*
X184748Y294671D01*
X184645Y294606D01*
X184540Y294544D01*
X184432Y294486D01*
X184323Y294431D01*
X184212Y294380D01*
X184100Y294332D01*
X183986Y294288D01*
X183871Y294248D01*
X183754Y294211D01*
X183636Y294179D01*
X183518Y294150D01*
X183398Y294124D01*
X183278Y294103D01*
X183157Y294085D01*
X183036Y294072D01*
X182914Y294062D01*
X182792Y294056D01*
X182670Y294054D01*
X182548Y294056D01*
X182426Y294062D01*
X182304Y294072D01*
X182183Y294085D01*
X182062Y294103D01*
X181942Y294124D01*
X181822Y294150D01*
X181704Y294179D01*
X181586Y294211D01*
X181469Y294248D01*
X181354Y294288D01*
X181240Y294332D01*
X181128Y294380D01*
X181017Y294431D01*
X180908Y294486D01*
X180800Y294544D01*
X180695Y294606D01*
X180592Y294671D01*
X180490Y294739D01*
X180391Y294811D01*
X180295Y294885D01*
X180200Y294963D01*
X180109Y295044D01*
X180019Y295127D01*
X179933Y295213D01*
X179850Y295303D01*
X179769Y295394D01*
X179691Y295489D01*
X179617Y295585D01*
X179545Y295684D01*
X179477Y295786D01*
X179412Y295889D01*
X179350Y295994D01*
X179292Y296102D01*
X179237Y296211D01*
X179186Y296322D01*
X179138Y296434D01*
X179094Y296548D01*
X179054Y296663D01*
X179017Y296780D01*
X178985Y296898D01*
X178956Y297016D01*
X178930Y297136D01*
X178909Y297256D01*
X178891Y297377D01*
X178878Y297498D01*
X178868Y297620D01*
X178862Y297742D01*
X178860Y297864D01*
X178862Y297986D01*
X178868Y298108D01*
X178878Y298230D01*
X178891Y298351D01*
X178909Y298472D01*
X178930Y298592D01*
X178956Y298712D01*
X178985Y298830D01*
X179017Y298948D01*
X179054Y299065D01*
X179094Y299180D01*
X179138Y299294D01*
X179186Y299406D01*
X179237Y299517D01*
X179292Y299626D01*
X179350Y299734D01*
X179412Y299839D01*
X179477Y299942D01*
X179545Y300044D01*
X179617Y300143D01*
X179691Y300239D01*
X179769Y300334D01*
X179850Y300425D01*
X179933Y300515D01*
X180019Y300601D01*
X180109Y300684D01*
X180200Y300765D01*
X180295Y300843D01*
X180391Y300917D01*
X180490Y300989D01*
X180592Y301057D01*
X180695Y301122D01*
X180800Y301184D01*
X180908Y301242D01*
X181017Y301297D01*
X181128Y301348D01*
X181240Y301396D01*
X181354Y301440D01*
X181469Y301480D01*
X181586Y301517D01*
X181704Y301549D01*
X181822Y301578D01*
X181942Y301604D01*
X182062Y301625D01*
X182183Y301643D01*
X182304Y301656D01*
X182426Y301666D01*
X182548Y301672D01*
X182670Y301674D01*
X157896Y360860D02*
X157894Y360982D01*
X157888Y361104D01*
X157878Y361226D01*
X157865Y361347D01*
X157847Y361468D01*
X157826Y361588D01*
X157800Y361708D01*
X157771Y361826D01*
X157739Y361944D01*
X157702Y362061D01*
X157662Y362176D01*
X157618Y362290D01*
X157570Y362402D01*
X157519Y362513D01*
X157464Y362622D01*
X157406Y362730D01*
X157344Y362835D01*
X157279Y362938D01*
X157211Y363040D01*
X157139Y363139D01*
X157065Y363235D01*
X156987Y363330D01*
X156906Y363421D01*
X156823Y363511D01*
X156737Y363597D01*
X156647Y363680D01*
X156556Y363761D01*
X156461Y363839D01*
X156365Y363913D01*
X156266Y363985D01*
X156164Y364053D01*
X156061Y364118D01*
X155956Y364180D01*
X155848Y364238D01*
X155739Y364293D01*
X155628Y364344D01*
X155516Y364392D01*
X155402Y364436D01*
X155287Y364476D01*
X155170Y364513D01*
X155052Y364545D01*
X154934Y364574D01*
X154814Y364600D01*
X154694Y364621D01*
X154573Y364639D01*
X154452Y364652D01*
X154330Y364662D01*
X154208Y364668D01*
X154086Y364670D01*
X153964Y364668D01*
X153842Y364662D01*
X153720Y364652D01*
X153599Y364639D01*
X153478Y364621D01*
X153358Y364600D01*
X153238Y364574D01*
X153120Y364545D01*
X153002Y364513D01*
X152885Y364476D01*
X152770Y364436D01*
X152656Y364392D01*
X152544Y364344D01*
X152433Y364293D01*
X152324Y364238D01*
X152216Y364180D01*
X152111Y364118D01*
X152008Y364053D01*
X151906Y363985D01*
X151807Y363913D01*
X151711Y363839D01*
X151616Y363761D01*
X151525Y363680D01*
X151435Y363597D01*
X151349Y363511D01*
X151266Y363421D01*
X151185Y363330D01*
X151107Y363235D01*
X151033Y363139D01*
X150961Y363040D01*
X150893Y362938D01*
X150828Y362835D01*
X150766Y362730D01*
X150708Y362622D01*
X150653Y362513D01*
X150602Y362402D01*
X150554Y362290D01*
X150510Y362176D01*
X150470Y362061D01*
X150433Y361944D01*
X150401Y361826D01*
X150372Y361708D01*
X150346Y361588D01*
X150325Y361468D01*
X150307Y361347D01*
X150294Y361226D01*
X150284Y361104D01*
X150278Y360982D01*
X150276Y360860D01*
X150278Y360738D01*
X150284Y360616D01*
X150294Y360494D01*
X150307Y360373D01*
X150325Y360252D01*
X150346Y360132D01*
X150372Y360012D01*
X150401Y359894D01*
X150433Y359776D01*
X150470Y359659D01*
X150510Y359544D01*
X150554Y359430D01*
X150602Y359318D01*
X150653Y359207D01*
X150708Y359098D01*
X150766Y358990D01*
X150828Y358885D01*
X150893Y358782D01*
X150961Y358680D01*
X151033Y358581D01*
X151107Y358485D01*
X151185Y358390D01*
X151266Y358299D01*
X151349Y358209D01*
X151435Y358123D01*
X151525Y358040D01*
X151616Y357959D01*
X151711Y357881D01*
X151807Y357807D01*
X151906Y357735D01*
X152008Y357667D01*
X152111Y357602D01*
X152216Y357540D01*
X152324Y357482D01*
X152433Y357427D01*
X152544Y357376D01*
X152656Y357328D01*
X152770Y357284D01*
X152885Y357244D01*
X153002Y357207D01*
X153120Y357175D01*
X153238Y357146D01*
X153358Y357120D01*
X153478Y357099D01*
X153599Y357081D01*
X153720Y357068D01*
X153842Y357058D01*
X153964Y357052D01*
X154086Y357050D01*
X154208Y357052D01*
X154330Y357058D01*
X154452Y357068D01*
X154573Y357081D01*
X154694Y357099D01*
X154814Y357120D01*
X154934Y357146D01*
X155052Y357175D01*
X155170Y357207D01*
X155287Y357244D01*
X155402Y357284D01*
X155516Y357328D01*
X155628Y357376D01*
X155739Y357427D01*
X155848Y357482D01*
X155956Y357540D01*
X156061Y357602D01*
X156164Y357667D01*
X156266Y357735D01*
X156365Y357807D01*
X156461Y357881D01*
X156556Y357959D01*
X156647Y358040D01*
X156737Y358123D01*
X156823Y358209D01*
X156906Y358299D01*
X156987Y358390D01*
X157065Y358485D01*
X157139Y358581D01*
X157211Y358680D01*
X157279Y358782D01*
X157344Y358885D01*
X157406Y358990D01*
X157464Y359098D01*
X157519Y359207D01*
X157570Y359318D01*
X157618Y359430D01*
X157662Y359544D01*
X157702Y359659D01*
X157739Y359776D01*
X157771Y359894D01*
X157800Y360012D01*
X157826Y360132D01*
X157847Y360252D01*
X157865Y360373D01*
X157878Y360494D01*
X157888Y360616D01*
X157894Y360738D01*
X157896Y360860D01*
D12*
X572780Y102770D02*
X572780Y90770D01*
D13*
X570858Y133742D02*
X582542Y133742D01*
X570858Y132444D02*
X570858Y135040D01*
X582542Y135040D02*
X582542Y132444D01*
X570858Y142204D02*
X570858Y144800D01*
X570858Y142204D02*
X570860Y142105D01*
X570866Y142005D01*
X570875Y141906D01*
X570888Y141808D01*
X570905Y141710D01*
X570926Y141612D01*
X570951Y141516D01*
X570979Y141421D01*
X571011Y141327D01*
X571046Y141234D01*
X571085Y141142D01*
X571128Y141052D01*
X571173Y140964D01*
X571223Y140877D01*
X571275Y140793D01*
X571331Y140710D01*
X571389Y140630D01*
X571451Y140552D01*
X571516Y140477D01*
X571584Y140404D01*
X571654Y140334D01*
X571727Y140266D01*
X571802Y140201D01*
X571880Y140139D01*
X571960Y140081D01*
X572043Y140025D01*
X572127Y139973D01*
X572214Y139923D01*
X572302Y139878D01*
X572392Y139835D01*
X572484Y139796D01*
X572577Y139761D01*
X572671Y139729D01*
X572766Y139701D01*
X572862Y139676D01*
X572960Y139655D01*
X573058Y139638D01*
X573156Y139625D01*
X573255Y139616D01*
X573355Y139610D01*
X573454Y139608D01*
X573454Y139607D02*
X579946Y139607D01*
X579946Y139608D02*
X580045Y139610D01*
X580145Y139616D01*
X580244Y139625D01*
X580342Y139638D01*
X580440Y139655D01*
X580538Y139676D01*
X580634Y139701D01*
X580729Y139729D01*
X580823Y139761D01*
X580916Y139796D01*
X581008Y139835D01*
X581098Y139878D01*
X581186Y139923D01*
X581273Y139973D01*
X581357Y140025D01*
X581440Y140081D01*
X581520Y140139D01*
X581598Y140201D01*
X581673Y140266D01*
X581746Y140334D01*
X581816Y140404D01*
X581884Y140477D01*
X581949Y140552D01*
X582011Y140630D01*
X582069Y140710D01*
X582125Y140793D01*
X582177Y140877D01*
X582227Y140964D01*
X582272Y141052D01*
X582315Y141142D01*
X582354Y141234D01*
X582389Y141326D01*
X582421Y141421D01*
X582449Y141516D01*
X582474Y141612D01*
X582495Y141710D01*
X582512Y141808D01*
X582525Y141906D01*
X582534Y142005D01*
X582540Y142105D01*
X582542Y142204D01*
X582542Y144800D01*
X579946Y149165D02*
X582542Y152411D01*
X570858Y152411D01*
X570858Y155656D02*
X570858Y149165D01*
D14*
X538200Y215660D02*
X538200Y229660D01*
X471200Y229660D02*
X471200Y215660D01*
D15*
X541954Y181514D02*
X546446Y181514D01*
X546446Y182762D01*
X546444Y182831D01*
X546438Y182899D01*
X546429Y182967D01*
X546416Y183035D01*
X546399Y183102D01*
X546378Y183167D01*
X546354Y183232D01*
X546327Y183295D01*
X546296Y183356D01*
X546261Y183416D01*
X546224Y183473D01*
X546183Y183529D01*
X546139Y183582D01*
X546093Y183632D01*
X546043Y183680D01*
X545991Y183725D01*
X545937Y183768D01*
X545881Y183807D01*
X545822Y183843D01*
X545762Y183876D01*
X545699Y183905D01*
X545636Y183931D01*
X545571Y183953D01*
X545504Y183972D01*
X545437Y183987D01*
X545369Y183998D01*
X545301Y184006D01*
X545232Y184010D01*
X545164Y184010D01*
X545095Y184006D01*
X545027Y183998D01*
X544959Y183987D01*
X544892Y183972D01*
X544825Y183953D01*
X544760Y183931D01*
X544697Y183905D01*
X544634Y183876D01*
X544574Y183843D01*
X544515Y183807D01*
X544459Y183768D01*
X544405Y183725D01*
X544353Y183680D01*
X544303Y183632D01*
X544257Y183582D01*
X544213Y183529D01*
X544172Y183473D01*
X544135Y183416D01*
X544100Y183356D01*
X544069Y183295D01*
X544042Y183232D01*
X544018Y183167D01*
X543997Y183102D01*
X543980Y183035D01*
X543967Y182967D01*
X543958Y182899D01*
X543952Y182831D01*
X543950Y182762D01*
X543950Y181514D01*
X543950Y183011D02*
X541954Y184010D01*
X544450Y185981D02*
X544450Y187478D01*
X544449Y187478D02*
X544447Y187538D01*
X544442Y187598D01*
X544433Y187658D01*
X544420Y187717D01*
X544404Y187775D01*
X544384Y187832D01*
X544361Y187888D01*
X544335Y187942D01*
X544305Y187994D01*
X544272Y188045D01*
X544237Y188093D01*
X544198Y188140D01*
X544157Y188184D01*
X544113Y188225D01*
X544066Y188264D01*
X544018Y188299D01*
X543967Y188332D01*
X543915Y188362D01*
X543861Y188388D01*
X543805Y188411D01*
X543748Y188431D01*
X543690Y188447D01*
X543631Y188460D01*
X543571Y188469D01*
X543511Y188474D01*
X543451Y188476D01*
X543451Y188477D02*
X543202Y188477D01*
X543133Y188475D01*
X543065Y188469D01*
X542997Y188460D01*
X542929Y188447D01*
X542862Y188430D01*
X542797Y188409D01*
X542732Y188385D01*
X542669Y188358D01*
X542608Y188327D01*
X542548Y188292D01*
X542491Y188255D01*
X542435Y188214D01*
X542382Y188170D01*
X542332Y188124D01*
X542284Y188074D01*
X542239Y188022D01*
X542196Y187968D01*
X542157Y187912D01*
X542121Y187853D01*
X542088Y187793D01*
X542059Y187730D01*
X542033Y187667D01*
X542011Y187602D01*
X541992Y187535D01*
X541977Y187468D01*
X541966Y187400D01*
X541958Y187332D01*
X541954Y187263D01*
X541954Y187195D01*
X541958Y187126D01*
X541966Y187058D01*
X541977Y186990D01*
X541992Y186923D01*
X542011Y186856D01*
X542033Y186791D01*
X542059Y186728D01*
X542088Y186665D01*
X542121Y186605D01*
X542157Y186546D01*
X542196Y186490D01*
X542239Y186436D01*
X542284Y186384D01*
X542332Y186334D01*
X542382Y186288D01*
X542435Y186244D01*
X542491Y186203D01*
X542548Y186166D01*
X542608Y186131D01*
X542669Y186100D01*
X542732Y186073D01*
X542797Y186049D01*
X542862Y186028D01*
X542929Y186011D01*
X542997Y185998D01*
X543065Y185989D01*
X543133Y185983D01*
X543202Y185981D01*
X544450Y185981D01*
X544450Y185982D02*
X544537Y185984D01*
X544624Y185990D01*
X544711Y185999D01*
X544797Y186012D01*
X544882Y186029D01*
X544967Y186050D01*
X545050Y186074D01*
X545133Y186102D01*
X545214Y186134D01*
X545294Y186169D01*
X545372Y186208D01*
X545448Y186249D01*
X545522Y186295D01*
X545595Y186343D01*
X545665Y186394D01*
X545733Y186449D01*
X545798Y186506D01*
X545861Y186567D01*
X545922Y186630D01*
X545979Y186695D01*
X546034Y186763D01*
X546085Y186833D01*
X546133Y186906D01*
X546179Y186980D01*
X546220Y187056D01*
X546259Y187134D01*
X546294Y187214D01*
X546326Y187295D01*
X546354Y187378D01*
X546378Y187461D01*
X546399Y187546D01*
X546416Y187631D01*
X546429Y187717D01*
X546438Y187804D01*
X546444Y187891D01*
X546446Y187978D01*
D16*
X399870Y311570D02*
X342320Y311570D01*
X342320Y360570D02*
X399870Y360570D01*
D17*
X332420Y317020D03*
D12*
X332418Y316958D01*
X332412Y316897D01*
X332403Y316836D01*
X332390Y316776D01*
X332373Y316717D01*
X332352Y316659D01*
X332328Y316602D01*
X332301Y316547D01*
X332270Y316494D01*
X332236Y316442D01*
X332199Y316393D01*
X332159Y316346D01*
X332116Y316302D01*
X332071Y316261D01*
X332023Y316222D01*
X331972Y316186D01*
X331920Y316154D01*
X331866Y316125D01*
X331810Y316099D01*
X331752Y316077D01*
X331694Y316058D01*
X331634Y316043D01*
X331573Y316032D01*
X331512Y316024D01*
X331451Y316020D01*
X331389Y316020D01*
X331328Y316024D01*
X331267Y316032D01*
X331206Y316043D01*
X331146Y316058D01*
X331088Y316077D01*
X331030Y316099D01*
X330974Y316125D01*
X330920Y316154D01*
X330868Y316186D01*
X330817Y316222D01*
X330769Y316261D01*
X330724Y316302D01*
X330681Y316346D01*
X330641Y316393D01*
X330604Y316442D01*
X330570Y316494D01*
X330539Y316547D01*
X330512Y316602D01*
X330488Y316659D01*
X330467Y316717D01*
X330450Y316776D01*
X330437Y316836D01*
X330428Y316897D01*
X330422Y316958D01*
X330420Y317020D01*
D17*
X330420Y317020D03*
D12*
X330422Y317082D01*
X330428Y317143D01*
X330437Y317204D01*
X330450Y317264D01*
X330467Y317323D01*
X330488Y317381D01*
X330512Y317438D01*
X330539Y317493D01*
X330570Y317546D01*
X330604Y317598D01*
X330641Y317647D01*
X330681Y317694D01*
X330724Y317738D01*
X330769Y317779D01*
X330817Y317818D01*
X330868Y317854D01*
X330920Y317886D01*
X330974Y317915D01*
X331030Y317941D01*
X331088Y317963D01*
X331146Y317982D01*
X331206Y317997D01*
X331267Y318008D01*
X331328Y318016D01*
X331389Y318020D01*
X331451Y318020D01*
X331512Y318016D01*
X331573Y318008D01*
X331634Y317997D01*
X331694Y317982D01*
X331752Y317963D01*
X331810Y317941D01*
X331866Y317915D01*
X331920Y317886D01*
X331972Y317854D01*
X332023Y317818D01*
X332071Y317779D01*
X332116Y317738D01*
X332159Y317694D01*
X332199Y317647D01*
X332236Y317598D01*
X332270Y317546D01*
X332301Y317493D01*
X332328Y317438D01*
X332352Y317381D01*
X332373Y317323D01*
X332390Y317264D01*
X332403Y317204D01*
X332412Y317143D01*
X332418Y317082D01*
X332420Y317020D01*
D13*
X357838Y393474D02*
X357838Y398666D01*
X357836Y398779D01*
X357830Y398892D01*
X357820Y399005D01*
X357806Y399118D01*
X357789Y399230D01*
X357767Y399341D01*
X357742Y399451D01*
X357712Y399561D01*
X357679Y399669D01*
X357642Y399776D01*
X357602Y399882D01*
X357557Y399986D01*
X357509Y400089D01*
X357458Y400190D01*
X357403Y400289D01*
X357345Y400386D01*
X357283Y400481D01*
X357218Y400574D01*
X357150Y400664D01*
X357079Y400752D01*
X357004Y400838D01*
X356927Y400921D01*
X356847Y401001D01*
X356764Y401078D01*
X356678Y401153D01*
X356590Y401224D01*
X356500Y401292D01*
X356407Y401357D01*
X356312Y401419D01*
X356215Y401477D01*
X356116Y401532D01*
X356015Y401583D01*
X355912Y401631D01*
X355808Y401676D01*
X355702Y401716D01*
X355595Y401753D01*
X355487Y401786D01*
X355377Y401816D01*
X355267Y401841D01*
X355156Y401863D01*
X355044Y401880D01*
X354931Y401894D01*
X354818Y401904D01*
X354705Y401910D01*
X354592Y401912D01*
X354479Y401910D01*
X354366Y401904D01*
X354253Y401894D01*
X354140Y401880D01*
X354028Y401863D01*
X353917Y401841D01*
X353807Y401816D01*
X353697Y401786D01*
X353589Y401753D01*
X353482Y401716D01*
X353376Y401676D01*
X353272Y401631D01*
X353169Y401583D01*
X353068Y401532D01*
X352969Y401477D01*
X352872Y401419D01*
X352777Y401357D01*
X352684Y401292D01*
X352594Y401224D01*
X352506Y401153D01*
X352420Y401078D01*
X352337Y401001D01*
X352257Y400921D01*
X352180Y400838D01*
X352105Y400752D01*
X352034Y400664D01*
X351966Y400574D01*
X351901Y400481D01*
X351839Y400386D01*
X351781Y400289D01*
X351726Y400190D01*
X351675Y400089D01*
X351627Y399986D01*
X351582Y399882D01*
X351542Y399776D01*
X351505Y399669D01*
X351472Y399561D01*
X351442Y399451D01*
X351417Y399341D01*
X351395Y399230D01*
X351378Y399118D01*
X351364Y399005D01*
X351354Y398892D01*
X351348Y398779D01*
X351346Y398666D01*
X351346Y393474D01*
X351348Y393361D01*
X351354Y393248D01*
X351364Y393135D01*
X351378Y393022D01*
X351395Y392910D01*
X351417Y392799D01*
X351442Y392689D01*
X351472Y392579D01*
X351505Y392471D01*
X351542Y392364D01*
X351582Y392258D01*
X351627Y392154D01*
X351675Y392051D01*
X351726Y391950D01*
X351781Y391851D01*
X351839Y391754D01*
X351901Y391659D01*
X351966Y391566D01*
X352034Y391476D01*
X352105Y391388D01*
X352180Y391302D01*
X352257Y391219D01*
X352337Y391139D01*
X352420Y391062D01*
X352506Y390987D01*
X352594Y390916D01*
X352684Y390848D01*
X352777Y390783D01*
X352872Y390721D01*
X352969Y390663D01*
X353068Y390608D01*
X353169Y390557D01*
X353272Y390509D01*
X353376Y390464D01*
X353482Y390424D01*
X353589Y390387D01*
X353697Y390354D01*
X353807Y390324D01*
X353917Y390299D01*
X354028Y390277D01*
X354140Y390260D01*
X354253Y390246D01*
X354366Y390236D01*
X354479Y390230D01*
X354592Y390228D01*
X354705Y390230D01*
X354818Y390236D01*
X354931Y390246D01*
X355044Y390260D01*
X355156Y390277D01*
X355267Y390299D01*
X355377Y390324D01*
X355487Y390354D01*
X355595Y390387D01*
X355702Y390424D01*
X355808Y390464D01*
X355912Y390509D01*
X356015Y390557D01*
X356116Y390608D01*
X356215Y390663D01*
X356312Y390721D01*
X356407Y390783D01*
X356500Y390848D01*
X356590Y390916D01*
X356678Y390987D01*
X356764Y391062D01*
X356847Y391139D01*
X356927Y391219D01*
X357004Y391302D01*
X357079Y391388D01*
X357150Y391476D01*
X357218Y391566D01*
X357283Y391659D01*
X357345Y391754D01*
X357403Y391851D01*
X357458Y391950D01*
X357509Y392051D01*
X357557Y392154D01*
X357602Y392258D01*
X357642Y392364D01*
X357679Y392471D01*
X357712Y392579D01*
X357742Y392689D01*
X357767Y392799D01*
X357789Y392910D01*
X357806Y393022D01*
X357820Y393135D01*
X357830Y393248D01*
X357836Y393361D01*
X357838Y393474D01*
X352645Y392824D02*
X350048Y390228D01*
X346694Y399316D02*
X343448Y401912D01*
X343448Y390228D01*
X340203Y390228D02*
X346694Y390228D01*
D11*
X689060Y302968D02*
X689060Y290268D01*
X695410Y296618D02*
X682710Y296618D01*
X689060Y304238D02*
X687752Y304254D01*
X686444Y304302D01*
X685139Y304381D01*
X683835Y304493D01*
X682535Y304636D01*
X681238Y304810D01*
X679946Y305017D01*
X678660Y305254D01*
X677379Y305523D01*
X676106Y305823D01*
X674840Y306154D01*
X673583Y306516D01*
X672335Y306908D01*
X671097Y307330D01*
X669869Y307783D01*
X668653Y308265D01*
X667449Y308777D01*
X666258Y309317D01*
X665080Y309887D01*
X663917Y310485D01*
X662768Y311112D01*
X661635Y311766D01*
X660518Y312447D01*
X659418Y313156D01*
X658336Y313891D01*
X657272Y314652D01*
X656227Y315439D01*
X655201Y316251D01*
X654196Y317088D01*
X653211Y317949D01*
X652247Y318834D01*
X651305Y319742D01*
X650386Y320673D01*
X649490Y321625D01*
X648617Y322600D01*
X647768Y323595D01*
X646943Y324611D01*
X646143Y325646D01*
X645369Y326701D01*
X644621Y327774D01*
X643899Y328865D01*
X643204Y329974D01*
X642536Y331098D01*
X641896Y332239D01*
X641284Y333395D01*
X640700Y334566D01*
X640144Y335751D01*
X639618Y336948D01*
X639121Y338159D01*
X638654Y339381D01*
X638216Y340614D01*
X637809Y341857D01*
X637432Y343110D01*
X637086Y344371D01*
X636770Y345641D01*
X636486Y346918D01*
X636233Y348201D01*
X636011Y349491D01*
X635820Y350785D01*
X635661Y352083D01*
X635534Y353386D01*
X635439Y354690D01*
X635375Y355997D01*
X635343Y357305D01*
X635343Y358613D01*
X635375Y359921D01*
X635439Y361228D01*
X635534Y362532D01*
X635661Y363835D01*
X635820Y365133D01*
X636011Y366427D01*
X636233Y367717D01*
X636486Y369000D01*
X636770Y370277D01*
X637086Y371547D01*
X637432Y372808D01*
X637809Y374061D01*
X638216Y375304D01*
X638654Y376537D01*
X639121Y377759D01*
X639618Y378970D01*
X640144Y380167D01*
X640700Y381352D01*
X641284Y382523D01*
X641896Y383679D01*
X642536Y384819D01*
X643204Y385944D01*
X643899Y387053D01*
X644621Y388144D01*
X645369Y389217D01*
X646143Y390272D01*
X646943Y391307D01*
X647768Y392323D01*
X648617Y393318D01*
X649490Y394293D01*
X650386Y395245D01*
X651305Y396176D01*
X652247Y397084D01*
X653211Y397969D01*
X654196Y398830D01*
X655201Y399667D01*
X656227Y400479D01*
X657272Y401266D01*
X658336Y402027D01*
X659418Y402762D01*
X660518Y403471D01*
X661635Y404152D01*
X662768Y404806D01*
X663917Y405433D01*
X665080Y406031D01*
X666258Y406601D01*
X667449Y407141D01*
X668653Y407653D01*
X669869Y408135D01*
X671097Y408588D01*
X672335Y409010D01*
X673583Y409402D01*
X674840Y409764D01*
X676106Y410095D01*
X677379Y410395D01*
X678660Y410664D01*
X679946Y410901D01*
X681238Y411108D01*
X682535Y411282D01*
X683835Y411425D01*
X685139Y411537D01*
X686444Y411616D01*
X687752Y411664D01*
X689060Y411680D01*
X690368Y411664D01*
X691676Y411616D01*
X692981Y411537D01*
X694285Y411425D01*
X695585Y411282D01*
X696882Y411108D01*
X698174Y410901D01*
X699460Y410664D01*
X700741Y410395D01*
X702014Y410095D01*
X703280Y409764D01*
X704537Y409402D01*
X705785Y409010D01*
X707023Y408588D01*
X708251Y408135D01*
X709467Y407653D01*
X710671Y407141D01*
X711862Y406601D01*
X713040Y406031D01*
X714203Y405433D01*
X715352Y404806D01*
X716485Y404152D01*
X717602Y403471D01*
X718702Y402762D01*
X719784Y402027D01*
X720848Y401266D01*
X721893Y400479D01*
X722919Y399667D01*
X723924Y398830D01*
X724909Y397969D01*
X725873Y397084D01*
X726815Y396176D01*
X727734Y395245D01*
X728630Y394293D01*
X729503Y393318D01*
X730352Y392323D01*
X731177Y391307D01*
X731977Y390272D01*
X732751Y389217D01*
X733499Y388144D01*
X734221Y387053D01*
X734916Y385944D01*
X735584Y384820D01*
X736224Y383679D01*
X736836Y382523D01*
X737420Y381352D01*
X737976Y380167D01*
X738502Y378970D01*
X738999Y377759D01*
X739466Y376537D01*
X739904Y375304D01*
X740311Y374061D01*
X740688Y372808D01*
X741034Y371547D01*
X741350Y370277D01*
X741634Y369000D01*
X741887Y367717D01*
X742109Y366427D01*
X742300Y365133D01*
X742459Y363835D01*
X742586Y362532D01*
X742681Y361228D01*
X742745Y359921D01*
X742777Y358613D01*
X742777Y357305D01*
X742745Y355997D01*
X742681Y354690D01*
X742586Y353386D01*
X742459Y352083D01*
X742300Y350785D01*
X742109Y349491D01*
X741887Y348201D01*
X741634Y346918D01*
X741350Y345641D01*
X741034Y344371D01*
X740688Y343110D01*
X740311Y341857D01*
X739904Y340614D01*
X739466Y339381D01*
X738999Y338159D01*
X738502Y336948D01*
X737976Y335751D01*
X737420Y334566D01*
X736836Y333395D01*
X736224Y332239D01*
X735584Y331099D01*
X734916Y329974D01*
X734221Y328865D01*
X733499Y327774D01*
X732751Y326701D01*
X731977Y325646D01*
X731177Y324611D01*
X730352Y323595D01*
X729503Y322600D01*
X728630Y321625D01*
X727734Y320673D01*
X726815Y319742D01*
X725873Y318834D01*
X724909Y317949D01*
X723924Y317088D01*
X722919Y316251D01*
X721893Y315439D01*
X720848Y314652D01*
X719784Y313891D01*
X718702Y313156D01*
X717602Y312447D01*
X716485Y311766D01*
X715352Y311112D01*
X714203Y310485D01*
X713040Y309887D01*
X711862Y309317D01*
X710671Y308777D01*
X709467Y308265D01*
X708251Y307783D01*
X707023Y307330D01*
X705785Y306908D01*
X704537Y306516D01*
X703280Y306154D01*
X702014Y305823D01*
X700741Y305523D01*
X699460Y305254D01*
X698174Y305017D01*
X696882Y304810D01*
X695585Y304636D01*
X694285Y304493D01*
X692981Y304381D01*
X691676Y304302D01*
X690368Y304254D01*
X689060Y304238D01*
D10*
X454694Y720000D02*
X454692Y719878D01*
X454686Y719756D01*
X454676Y719634D01*
X454663Y719513D01*
X454645Y719392D01*
X454624Y719272D01*
X454598Y719152D01*
X454569Y719034D01*
X454537Y718916D01*
X454500Y718799D01*
X454460Y718684D01*
X454416Y718570D01*
X454368Y718458D01*
X454317Y718347D01*
X454262Y718238D01*
X454204Y718130D01*
X454142Y718025D01*
X454077Y717922D01*
X454009Y717820D01*
X453937Y717721D01*
X453863Y717625D01*
X453785Y717530D01*
X453704Y717439D01*
X453621Y717349D01*
X453535Y717263D01*
X453445Y717180D01*
X453354Y717099D01*
X453259Y717021D01*
X453163Y716947D01*
X453064Y716875D01*
X452962Y716807D01*
X452859Y716742D01*
X452754Y716680D01*
X452646Y716622D01*
X452537Y716567D01*
X452426Y716516D01*
X452314Y716468D01*
X452200Y716424D01*
X452085Y716384D01*
X451968Y716347D01*
X451850Y716315D01*
X451732Y716286D01*
X451612Y716260D01*
X451492Y716239D01*
X451371Y716221D01*
X451250Y716208D01*
X451128Y716198D01*
X451006Y716192D01*
X450884Y716190D01*
X450762Y716192D01*
X450640Y716198D01*
X450518Y716208D01*
X450397Y716221D01*
X450276Y716239D01*
X450156Y716260D01*
X450036Y716286D01*
X449918Y716315D01*
X449800Y716347D01*
X449683Y716384D01*
X449568Y716424D01*
X449454Y716468D01*
X449342Y716516D01*
X449231Y716567D01*
X449122Y716622D01*
X449014Y716680D01*
X448909Y716742D01*
X448806Y716807D01*
X448704Y716875D01*
X448605Y716947D01*
X448509Y717021D01*
X448414Y717099D01*
X448323Y717180D01*
X448233Y717263D01*
X448147Y717349D01*
X448064Y717439D01*
X447983Y717530D01*
X447905Y717625D01*
X447831Y717721D01*
X447759Y717820D01*
X447691Y717922D01*
X447626Y718025D01*
X447564Y718130D01*
X447506Y718238D01*
X447451Y718347D01*
X447400Y718458D01*
X447352Y718570D01*
X447308Y718684D01*
X447268Y718799D01*
X447231Y718916D01*
X447199Y719034D01*
X447170Y719152D01*
X447144Y719272D01*
X447123Y719392D01*
X447105Y719513D01*
X447092Y719634D01*
X447082Y719756D01*
X447076Y719878D01*
X447074Y720000D01*
X447076Y720122D01*
X447082Y720244D01*
X447092Y720366D01*
X447105Y720487D01*
X447123Y720608D01*
X447144Y720728D01*
X447170Y720848D01*
X447199Y720966D01*
X447231Y721084D01*
X447268Y721201D01*
X447308Y721316D01*
X447352Y721430D01*
X447400Y721542D01*
X447451Y721653D01*
X447506Y721762D01*
X447564Y721870D01*
X447626Y721975D01*
X447691Y722078D01*
X447759Y722180D01*
X447831Y722279D01*
X447905Y722375D01*
X447983Y722470D01*
X448064Y722561D01*
X448147Y722651D01*
X448233Y722737D01*
X448323Y722820D01*
X448414Y722901D01*
X448509Y722979D01*
X448605Y723053D01*
X448704Y723125D01*
X448806Y723193D01*
X448909Y723258D01*
X449014Y723320D01*
X449122Y723378D01*
X449231Y723433D01*
X449342Y723484D01*
X449454Y723532D01*
X449568Y723576D01*
X449683Y723616D01*
X449800Y723653D01*
X449918Y723685D01*
X450036Y723714D01*
X450156Y723740D01*
X450276Y723761D01*
X450397Y723779D01*
X450518Y723792D01*
X450640Y723802D01*
X450762Y723808D01*
X450884Y723810D01*
X451006Y723808D01*
X451128Y723802D01*
X451250Y723792D01*
X451371Y723779D01*
X451492Y723761D01*
X451612Y723740D01*
X451732Y723714D01*
X451850Y723685D01*
X451968Y723653D01*
X452085Y723616D01*
X452200Y723576D01*
X452314Y723532D01*
X452426Y723484D01*
X452537Y723433D01*
X452646Y723378D01*
X452754Y723320D01*
X452859Y723258D01*
X452962Y723193D01*
X453064Y723125D01*
X453163Y723053D01*
X453259Y722979D01*
X453354Y722901D01*
X453445Y722820D01*
X453535Y722737D01*
X453621Y722651D01*
X453704Y722561D01*
X453785Y722470D01*
X453863Y722375D01*
X453937Y722279D01*
X454009Y722180D01*
X454077Y722078D01*
X454142Y721975D01*
X454204Y721870D01*
X454262Y721762D01*
X454317Y721653D01*
X454368Y721542D01*
X454416Y721430D01*
X454460Y721316D01*
X454500Y721201D01*
X454537Y721084D01*
X454569Y720966D01*
X454598Y720848D01*
X454624Y720728D01*
X454645Y720608D01*
X454663Y720487D01*
X454676Y720366D01*
X454686Y720244D01*
X454692Y720122D01*
X454694Y720000D01*
X354694Y720000D02*
X354692Y719878D01*
X354686Y719756D01*
X354676Y719634D01*
X354663Y719513D01*
X354645Y719392D01*
X354624Y719272D01*
X354598Y719152D01*
X354569Y719034D01*
X354537Y718916D01*
X354500Y718799D01*
X354460Y718684D01*
X354416Y718570D01*
X354368Y718458D01*
X354317Y718347D01*
X354262Y718238D01*
X354204Y718130D01*
X354142Y718025D01*
X354077Y717922D01*
X354009Y717820D01*
X353937Y717721D01*
X353863Y717625D01*
X353785Y717530D01*
X353704Y717439D01*
X353621Y717349D01*
X353535Y717263D01*
X353445Y717180D01*
X353354Y717099D01*
X353259Y717021D01*
X353163Y716947D01*
X353064Y716875D01*
X352962Y716807D01*
X352859Y716742D01*
X352754Y716680D01*
X352646Y716622D01*
X352537Y716567D01*
X352426Y716516D01*
X352314Y716468D01*
X352200Y716424D01*
X352085Y716384D01*
X351968Y716347D01*
X351850Y716315D01*
X351732Y716286D01*
X351612Y716260D01*
X351492Y716239D01*
X351371Y716221D01*
X351250Y716208D01*
X351128Y716198D01*
X351006Y716192D01*
X350884Y716190D01*
X350762Y716192D01*
X350640Y716198D01*
X350518Y716208D01*
X350397Y716221D01*
X350276Y716239D01*
X350156Y716260D01*
X350036Y716286D01*
X349918Y716315D01*
X349800Y716347D01*
X349683Y716384D01*
X349568Y716424D01*
X349454Y716468D01*
X349342Y716516D01*
X349231Y716567D01*
X349122Y716622D01*
X349014Y716680D01*
X348909Y716742D01*
X348806Y716807D01*
X348704Y716875D01*
X348605Y716947D01*
X348509Y717021D01*
X348414Y717099D01*
X348323Y717180D01*
X348233Y717263D01*
X348147Y717349D01*
X348064Y717439D01*
X347983Y717530D01*
X347905Y717625D01*
X347831Y717721D01*
X347759Y717820D01*
X347691Y717922D01*
X347626Y718025D01*
X347564Y718130D01*
X347506Y718238D01*
X347451Y718347D01*
X347400Y718458D01*
X347352Y718570D01*
X347308Y718684D01*
X347268Y718799D01*
X347231Y718916D01*
X347199Y719034D01*
X347170Y719152D01*
X347144Y719272D01*
X347123Y719392D01*
X347105Y719513D01*
X347092Y719634D01*
X347082Y719756D01*
X347076Y719878D01*
X347074Y720000D01*
X347076Y720122D01*
X347082Y720244D01*
X347092Y720366D01*
X347105Y720487D01*
X347123Y720608D01*
X347144Y720728D01*
X347170Y720848D01*
X347199Y720966D01*
X347231Y721084D01*
X347268Y721201D01*
X347308Y721316D01*
X347352Y721430D01*
X347400Y721542D01*
X347451Y721653D01*
X347506Y721762D01*
X347564Y721870D01*
X347626Y721975D01*
X347691Y722078D01*
X347759Y722180D01*
X347831Y722279D01*
X347905Y722375D01*
X347983Y722470D01*
X348064Y722561D01*
X348147Y722651D01*
X348233Y722737D01*
X348323Y722820D01*
X348414Y722901D01*
X348509Y722979D01*
X348605Y723053D01*
X348704Y723125D01*
X348806Y723193D01*
X348909Y723258D01*
X349014Y723320D01*
X349122Y723378D01*
X349231Y723433D01*
X349342Y723484D01*
X349454Y723532D01*
X349568Y723576D01*
X349683Y723616D01*
X349800Y723653D01*
X349918Y723685D01*
X350036Y723714D01*
X350156Y723740D01*
X350276Y723761D01*
X350397Y723779D01*
X350518Y723792D01*
X350640Y723802D01*
X350762Y723808D01*
X350884Y723810D01*
X351006Y723808D01*
X351128Y723802D01*
X351250Y723792D01*
X351371Y723779D01*
X351492Y723761D01*
X351612Y723740D01*
X351732Y723714D01*
X351850Y723685D01*
X351968Y723653D01*
X352085Y723616D01*
X352200Y723576D01*
X352314Y723532D01*
X352426Y723484D01*
X352537Y723433D01*
X352646Y723378D01*
X352754Y723320D01*
X352859Y723258D01*
X352962Y723193D01*
X353064Y723125D01*
X353163Y723053D01*
X353259Y722979D01*
X353354Y722901D01*
X353445Y722820D01*
X353535Y722737D01*
X353621Y722651D01*
X353704Y722561D01*
X353785Y722470D01*
X353863Y722375D01*
X353937Y722279D01*
X354009Y722180D01*
X354077Y722078D01*
X354142Y721975D01*
X354204Y721870D01*
X354262Y721762D01*
X354317Y721653D01*
X354368Y721542D01*
X354416Y721430D01*
X354460Y721316D01*
X354500Y721201D01*
X354537Y721084D01*
X354569Y720966D01*
X354598Y720848D01*
X354624Y720728D01*
X354645Y720608D01*
X354663Y720487D01*
X354676Y720366D01*
X354686Y720244D01*
X354692Y720122D01*
X354694Y720000D01*
D11*
X290496Y573626D02*
X290496Y508094D01*
X290496Y573626D02*
X318944Y573626D01*
X318944Y508094D01*
X290496Y508094D01*
X505720Y473010D02*
X505720Y615250D01*
X505720Y473010D02*
X426980Y473010D01*
X426980Y615250D01*
X505720Y615250D01*
D10*
X463810Y629220D02*
X463932Y629222D01*
X464054Y629228D01*
X464176Y629238D01*
X464297Y629251D01*
X464418Y629269D01*
X464538Y629290D01*
X464658Y629316D01*
X464776Y629345D01*
X464894Y629377D01*
X465011Y629414D01*
X465126Y629454D01*
X465240Y629498D01*
X465352Y629546D01*
X465463Y629597D01*
X465572Y629652D01*
X465680Y629710D01*
X465785Y629772D01*
X465888Y629837D01*
X465990Y629905D01*
X466089Y629977D01*
X466185Y630051D01*
X466280Y630129D01*
X466371Y630210D01*
X466461Y630293D01*
X466547Y630379D01*
X466630Y630469D01*
X466711Y630560D01*
X466789Y630655D01*
X466863Y630751D01*
X466935Y630850D01*
X467003Y630952D01*
X467068Y631055D01*
X467130Y631160D01*
X467188Y631268D01*
X467243Y631377D01*
X467294Y631488D01*
X467342Y631600D01*
X467386Y631714D01*
X467426Y631829D01*
X467463Y631946D01*
X467495Y632064D01*
X467524Y632182D01*
X467550Y632302D01*
X467571Y632422D01*
X467589Y632543D01*
X467602Y632664D01*
X467612Y632786D01*
X467618Y632908D01*
X467620Y633030D01*
X467618Y633152D01*
X467612Y633274D01*
X467602Y633396D01*
X467589Y633517D01*
X467571Y633638D01*
X467550Y633758D01*
X467524Y633878D01*
X467495Y633996D01*
X467463Y634114D01*
X467426Y634231D01*
X467386Y634346D01*
X467342Y634460D01*
X467294Y634572D01*
X467243Y634683D01*
X467188Y634792D01*
X467130Y634900D01*
X467068Y635005D01*
X467003Y635108D01*
X466935Y635210D01*
X466863Y635309D01*
X466789Y635405D01*
X466711Y635500D01*
X466630Y635591D01*
X466547Y635681D01*
X466461Y635767D01*
X466371Y635850D01*
X466280Y635931D01*
X466185Y636009D01*
X466089Y636083D01*
X465990Y636155D01*
X465888Y636223D01*
X465785Y636288D01*
X465680Y636350D01*
X465572Y636408D01*
X465463Y636463D01*
X465352Y636514D01*
X465240Y636562D01*
X465126Y636606D01*
X465011Y636646D01*
X464894Y636683D01*
X464776Y636715D01*
X464658Y636744D01*
X464538Y636770D01*
X464418Y636791D01*
X464297Y636809D01*
X464176Y636822D01*
X464054Y636832D01*
X463932Y636838D01*
X463810Y636840D01*
X463688Y636838D01*
X463566Y636832D01*
X463444Y636822D01*
X463323Y636809D01*
X463202Y636791D01*
X463082Y636770D01*
X462962Y636744D01*
X462844Y636715D01*
X462726Y636683D01*
X462609Y636646D01*
X462494Y636606D01*
X462380Y636562D01*
X462268Y636514D01*
X462157Y636463D01*
X462048Y636408D01*
X461940Y636350D01*
X461835Y636288D01*
X461732Y636223D01*
X461630Y636155D01*
X461531Y636083D01*
X461435Y636009D01*
X461340Y635931D01*
X461249Y635850D01*
X461159Y635767D01*
X461073Y635681D01*
X460990Y635591D01*
X460909Y635500D01*
X460831Y635405D01*
X460757Y635309D01*
X460685Y635210D01*
X460617Y635108D01*
X460552Y635005D01*
X460490Y634900D01*
X460432Y634792D01*
X460377Y634683D01*
X460326Y634572D01*
X460278Y634460D01*
X460234Y634346D01*
X460194Y634231D01*
X460157Y634114D01*
X460125Y633996D01*
X460096Y633878D01*
X460070Y633758D01*
X460049Y633638D01*
X460031Y633517D01*
X460018Y633396D01*
X460008Y633274D01*
X460002Y633152D01*
X460000Y633030D01*
X460002Y632908D01*
X460008Y632786D01*
X460018Y632664D01*
X460031Y632543D01*
X460049Y632422D01*
X460070Y632302D01*
X460096Y632182D01*
X460125Y632064D01*
X460157Y631946D01*
X460194Y631829D01*
X460234Y631714D01*
X460278Y631600D01*
X460326Y631488D01*
X460377Y631377D01*
X460432Y631268D01*
X460490Y631160D01*
X460552Y631055D01*
X460617Y630952D01*
X460685Y630850D01*
X460757Y630751D01*
X460831Y630655D01*
X460909Y630560D01*
X460990Y630469D01*
X461073Y630379D01*
X461159Y630293D01*
X461249Y630210D01*
X461340Y630129D01*
X461435Y630051D01*
X461531Y629977D01*
X461630Y629905D01*
X461732Y629837D01*
X461835Y629772D01*
X461940Y629710D01*
X462048Y629652D01*
X462157Y629597D01*
X462268Y629546D01*
X462380Y629498D01*
X462494Y629454D01*
X462609Y629414D01*
X462726Y629377D01*
X462844Y629345D01*
X462962Y629316D01*
X463082Y629290D01*
X463202Y629269D01*
X463323Y629251D01*
X463444Y629238D01*
X463566Y629228D01*
X463688Y629222D01*
X463810Y629220D01*
D12*
X124200Y409980D02*
X124202Y410043D01*
X124208Y410105D01*
X124218Y410167D01*
X124231Y410229D01*
X124249Y410289D01*
X124270Y410348D01*
X124295Y410406D01*
X124324Y410462D01*
X124356Y410516D01*
X124391Y410568D01*
X124429Y410617D01*
X124471Y410665D01*
X124515Y410709D01*
X124563Y410751D01*
X124612Y410789D01*
X124664Y410824D01*
X124718Y410856D01*
X124774Y410885D01*
X124832Y410910D01*
X124891Y410931D01*
X124951Y410949D01*
X125013Y410962D01*
X125075Y410972D01*
X125137Y410978D01*
X125200Y410980D01*
X125263Y410978D01*
X125325Y410972D01*
X125387Y410962D01*
X125449Y410949D01*
X125509Y410931D01*
X125568Y410910D01*
X125626Y410885D01*
X125682Y410856D01*
X125736Y410824D01*
X125788Y410789D01*
X125837Y410751D01*
X125885Y410709D01*
X125929Y410665D01*
X125971Y410617D01*
X126009Y410568D01*
X126044Y410516D01*
X126076Y410462D01*
X126105Y410406D01*
X126130Y410348D01*
X126151Y410289D01*
X126169Y410229D01*
X126182Y410167D01*
X126192Y410105D01*
X126198Y410043D01*
X126200Y409980D01*
X126198Y409917D01*
X126192Y409855D01*
X126182Y409793D01*
X126169Y409731D01*
X126151Y409671D01*
X126130Y409612D01*
X126105Y409554D01*
X126076Y409498D01*
X126044Y409444D01*
X126009Y409392D01*
X125971Y409343D01*
X125929Y409295D01*
X125885Y409251D01*
X125837Y409209D01*
X125788Y409171D01*
X125736Y409136D01*
X125682Y409104D01*
X125626Y409075D01*
X125568Y409050D01*
X125509Y409029D01*
X125449Y409011D01*
X125387Y408998D01*
X125325Y408988D01*
X125263Y408982D01*
X125200Y408980D01*
X125137Y408982D01*
X125075Y408988D01*
X125013Y408998D01*
X124951Y409011D01*
X124891Y409029D01*
X124832Y409050D01*
X124774Y409075D01*
X124718Y409104D01*
X124664Y409136D01*
X124612Y409171D01*
X124563Y409209D01*
X124515Y409251D01*
X124471Y409295D01*
X124429Y409343D01*
X124391Y409392D01*
X124356Y409444D01*
X124324Y409498D01*
X124295Y409554D01*
X124270Y409612D01*
X124249Y409671D01*
X124231Y409731D01*
X124218Y409793D01*
X124208Y409855D01*
X124202Y409917D01*
X124200Y409980D01*
D14*
X23000Y418000D02*
X23000Y672000D01*
X277000Y672000D02*
X277000Y418000D01*
X277000Y672000D02*
X23000Y672000D01*
X23000Y418000D02*
X277000Y418000D01*
D13*
X51547Y409492D02*
X51547Y397808D01*
X51547Y409492D02*
X48301Y409492D01*
X48188Y409490D01*
X48075Y409484D01*
X47962Y409474D01*
X47849Y409460D01*
X47737Y409443D01*
X47626Y409421D01*
X47516Y409396D01*
X47406Y409366D01*
X47298Y409333D01*
X47191Y409296D01*
X47085Y409256D01*
X46981Y409211D01*
X46878Y409163D01*
X46777Y409112D01*
X46678Y409057D01*
X46581Y408999D01*
X46486Y408937D01*
X46393Y408872D01*
X46303Y408804D01*
X46215Y408733D01*
X46129Y408658D01*
X46046Y408581D01*
X45966Y408501D01*
X45889Y408418D01*
X45814Y408332D01*
X45743Y408244D01*
X45675Y408154D01*
X45610Y408061D01*
X45548Y407966D01*
X45490Y407869D01*
X45435Y407770D01*
X45384Y407669D01*
X45336Y407566D01*
X45291Y407462D01*
X45251Y407356D01*
X45214Y407249D01*
X45181Y407141D01*
X45151Y407031D01*
X45126Y406921D01*
X45104Y406810D01*
X45087Y406698D01*
X45073Y406585D01*
X45063Y406472D01*
X45057Y406359D01*
X45055Y406246D01*
X45057Y406133D01*
X45063Y406020D01*
X45073Y405907D01*
X45087Y405794D01*
X45104Y405682D01*
X45126Y405571D01*
X45151Y405461D01*
X45181Y405351D01*
X45214Y405243D01*
X45251Y405136D01*
X45291Y405030D01*
X45336Y404926D01*
X45384Y404823D01*
X45435Y404722D01*
X45490Y404623D01*
X45548Y404526D01*
X45610Y404431D01*
X45675Y404338D01*
X45743Y404248D01*
X45814Y404160D01*
X45889Y404074D01*
X45966Y403991D01*
X46046Y403911D01*
X46129Y403834D01*
X46215Y403759D01*
X46303Y403688D01*
X46393Y403620D01*
X46486Y403555D01*
X46581Y403493D01*
X46678Y403435D01*
X46777Y403380D01*
X46878Y403329D01*
X46981Y403281D01*
X47085Y403236D01*
X47191Y403196D01*
X47298Y403159D01*
X47406Y403126D01*
X47516Y403096D01*
X47626Y403071D01*
X47737Y403049D01*
X47849Y403032D01*
X47962Y403018D01*
X48075Y403008D01*
X48188Y403002D01*
X48301Y403000D01*
X48301Y403001D02*
X51547Y403001D01*
X37153Y397808D02*
X37054Y397810D01*
X36954Y397816D01*
X36855Y397825D01*
X36757Y397838D01*
X36659Y397855D01*
X36561Y397876D01*
X36465Y397901D01*
X36370Y397929D01*
X36276Y397961D01*
X36183Y397996D01*
X36091Y398035D01*
X36001Y398078D01*
X35913Y398123D01*
X35826Y398173D01*
X35742Y398225D01*
X35659Y398281D01*
X35579Y398339D01*
X35501Y398401D01*
X35426Y398466D01*
X35353Y398534D01*
X35283Y398604D01*
X35215Y398677D01*
X35150Y398752D01*
X35088Y398830D01*
X35030Y398910D01*
X34974Y398993D01*
X34922Y399077D01*
X34872Y399164D01*
X34827Y399252D01*
X34784Y399342D01*
X34745Y399434D01*
X34710Y399527D01*
X34678Y399621D01*
X34650Y399716D01*
X34625Y399812D01*
X34604Y399910D01*
X34587Y400008D01*
X34574Y400106D01*
X34565Y400205D01*
X34559Y400305D01*
X34557Y400404D01*
X37153Y397808D02*
X37297Y397810D01*
X37442Y397816D01*
X37586Y397825D01*
X37729Y397838D01*
X37873Y397855D01*
X38016Y397876D01*
X38158Y397901D01*
X38299Y397929D01*
X38440Y397961D01*
X38580Y397997D01*
X38719Y398036D01*
X38857Y398079D01*
X38993Y398126D01*
X39129Y398176D01*
X39263Y398230D01*
X39395Y398287D01*
X39526Y398348D01*
X39655Y398412D01*
X39783Y398480D01*
X39909Y398551D01*
X40033Y398625D01*
X40154Y398702D01*
X40274Y398783D01*
X40392Y398866D01*
X40507Y398953D01*
X40620Y399043D01*
X40731Y399136D01*
X40839Y399231D01*
X40945Y399330D01*
X41048Y399431D01*
X40723Y406896D02*
X40721Y406995D01*
X40715Y407095D01*
X40706Y407194D01*
X40693Y407292D01*
X40676Y407390D01*
X40655Y407488D01*
X40630Y407584D01*
X40602Y407679D01*
X40570Y407773D01*
X40535Y407866D01*
X40496Y407958D01*
X40453Y408048D01*
X40408Y408136D01*
X40358Y408223D01*
X40306Y408307D01*
X40250Y408390D01*
X40192Y408470D01*
X40130Y408548D01*
X40065Y408623D01*
X39997Y408696D01*
X39927Y408766D01*
X39854Y408834D01*
X39779Y408899D01*
X39701Y408961D01*
X39621Y409019D01*
X39538Y409075D01*
X39454Y409127D01*
X39367Y409177D01*
X39279Y409222D01*
X39189Y409265D01*
X39097Y409304D01*
X39004Y409339D01*
X38910Y409371D01*
X38815Y409399D01*
X38719Y409424D01*
X38621Y409445D01*
X38523Y409462D01*
X38425Y409475D01*
X38326Y409484D01*
X38226Y409490D01*
X38127Y409492D01*
X37991Y409490D01*
X37855Y409484D01*
X37719Y409475D01*
X37583Y409462D01*
X37448Y409444D01*
X37314Y409424D01*
X37180Y409399D01*
X37046Y409371D01*
X36914Y409338D01*
X36783Y409303D01*
X36652Y409263D01*
X36523Y409220D01*
X36395Y409174D01*
X36269Y409123D01*
X36143Y409070D01*
X36020Y409012D01*
X35898Y408952D01*
X35778Y408888D01*
X35659Y408820D01*
X35543Y408750D01*
X35429Y408676D01*
X35316Y408599D01*
X35206Y408518D01*
X39426Y404624D02*
X39512Y404677D01*
X39596Y404734D01*
X39678Y404793D01*
X39758Y404856D01*
X39835Y404922D01*
X39910Y404990D01*
X39982Y405062D01*
X40051Y405136D01*
X40117Y405213D01*
X40180Y405292D01*
X40240Y405374D01*
X40297Y405458D01*
X40351Y405544D01*
X40401Y405632D01*
X40448Y405722D01*
X40492Y405813D01*
X40531Y405907D01*
X40568Y406001D01*
X40600Y406097D01*
X40629Y406195D01*
X40654Y406293D01*
X40675Y406392D01*
X40693Y406492D01*
X40706Y406592D01*
X40716Y406693D01*
X40722Y406795D01*
X40724Y406896D01*
X35855Y402676D02*
X35769Y402623D01*
X35685Y402566D01*
X35603Y402507D01*
X35523Y402444D01*
X35446Y402378D01*
X35371Y402310D01*
X35299Y402238D01*
X35230Y402164D01*
X35164Y402087D01*
X35101Y402008D01*
X35041Y401926D01*
X34984Y401842D01*
X34930Y401756D01*
X34880Y401668D01*
X34833Y401578D01*
X34789Y401487D01*
X34750Y401393D01*
X34713Y401299D01*
X34681Y401203D01*
X34652Y401105D01*
X34627Y401007D01*
X34606Y400908D01*
X34588Y400808D01*
X34575Y400708D01*
X34565Y400607D01*
X34559Y400505D01*
X34557Y400404D01*
X35855Y402676D02*
X39425Y404624D01*
X29999Y406896D02*
X26754Y409492D01*
X26754Y397808D01*
X29999Y397808D02*
X23508Y397808D01*
D11*
X64280Y23360D02*
X320820Y23360D01*
X64280Y23360D02*
X64280Y279900D01*
X320820Y279900D01*
X320820Y23360D01*
D18*
X16563Y169354D02*
X16563Y173333D01*
X16563Y169354D02*
X14242Y166369D01*
X16563Y169354D02*
X18885Y166369D01*
X16563Y169354D02*
X12916Y170680D01*
X16563Y169354D02*
X20211Y170680D01*
X42401Y226125D02*
X54339Y226125D01*
X42401Y229441D02*
X42401Y222809D01*
X42401Y218392D02*
X54339Y218392D01*
X47707Y218392D02*
X47707Y211760D01*
X42401Y211760D02*
X54339Y211760D01*
X54339Y206200D02*
X42401Y206200D01*
X54339Y199568D01*
X42401Y199568D01*
X55665Y194869D02*
X55665Y189563D01*
X45054Y185245D02*
X42401Y181929D01*
X54339Y181929D01*
X54339Y185245D02*
X54339Y178613D01*
X54339Y173815D02*
X54339Y169836D01*
X54337Y169734D01*
X54331Y169633D01*
X54321Y169532D01*
X54308Y169431D01*
X54290Y169331D01*
X54269Y169232D01*
X54244Y169133D01*
X54215Y169036D01*
X54183Y168939D01*
X54147Y168844D01*
X54107Y168751D01*
X54064Y168659D01*
X54017Y168569D01*
X53966Y168480D01*
X53913Y168394D01*
X53856Y168310D01*
X53796Y168228D01*
X53733Y168148D01*
X53667Y168071D01*
X53598Y167996D01*
X53526Y167924D01*
X53451Y167855D01*
X53374Y167789D01*
X53294Y167726D01*
X53212Y167666D01*
X53128Y167609D01*
X53042Y167556D01*
X52953Y167505D01*
X52863Y167458D01*
X52771Y167415D01*
X52678Y167375D01*
X52583Y167339D01*
X52487Y167307D01*
X52389Y167278D01*
X52291Y167253D01*
X52191Y167232D01*
X52091Y167214D01*
X51990Y167201D01*
X51889Y167191D01*
X51788Y167185D01*
X51686Y167183D01*
X50360Y167183D01*
X50258Y167185D01*
X50157Y167191D01*
X50056Y167201D01*
X49955Y167214D01*
X49855Y167232D01*
X49756Y167253D01*
X49657Y167278D01*
X49560Y167307D01*
X49463Y167339D01*
X49368Y167375D01*
X49275Y167415D01*
X49183Y167458D01*
X49093Y167505D01*
X49004Y167556D01*
X48918Y167609D01*
X48834Y167666D01*
X48752Y167726D01*
X48672Y167789D01*
X48595Y167855D01*
X48520Y167924D01*
X48448Y167996D01*
X48379Y168071D01*
X48313Y168148D01*
X48250Y168228D01*
X48190Y168310D01*
X48133Y168394D01*
X48080Y168480D01*
X48029Y168569D01*
X47982Y168659D01*
X47939Y168751D01*
X47899Y168844D01*
X47863Y168939D01*
X47831Y169036D01*
X47802Y169133D01*
X47777Y169232D01*
X47756Y169331D01*
X47738Y169431D01*
X47725Y169532D01*
X47715Y169633D01*
X47709Y169734D01*
X47707Y169836D01*
X47707Y173815D01*
X42401Y173815D01*
X42401Y167183D01*
X49696Y162286D02*
X49696Y154328D01*
X42400Y145784D02*
X42402Y145677D01*
X42408Y145571D01*
X42417Y145465D01*
X42430Y145359D01*
X42447Y145254D01*
X42468Y145149D01*
X42493Y145046D01*
X42521Y144943D01*
X42553Y144841D01*
X42588Y144741D01*
X42627Y144642D01*
X42670Y144544D01*
X42716Y144448D01*
X42765Y144353D01*
X42818Y144261D01*
X42874Y144170D01*
X42933Y144082D01*
X42995Y143995D01*
X43061Y143911D01*
X43129Y143829D01*
X43200Y143750D01*
X43274Y143673D01*
X43351Y143599D01*
X43430Y143528D01*
X43512Y143460D01*
X43596Y143394D01*
X43683Y143332D01*
X43771Y143273D01*
X43862Y143217D01*
X43954Y143164D01*
X44049Y143115D01*
X44145Y143069D01*
X44243Y143026D01*
X44342Y142987D01*
X44442Y142952D01*
X44544Y142920D01*
X44647Y142892D01*
X44750Y142867D01*
X44855Y142846D01*
X44960Y142829D01*
X45066Y142816D01*
X45172Y142807D01*
X45278Y142801D01*
X45385Y142799D01*
X42401Y145784D02*
X42403Y145905D01*
X42409Y146025D01*
X42418Y146145D01*
X42431Y146265D01*
X42448Y146384D01*
X42469Y146503D01*
X42493Y146621D01*
X42522Y146738D01*
X42553Y146854D01*
X42589Y146970D01*
X42628Y147084D01*
X42671Y147196D01*
X42717Y147308D01*
X42766Y147418D01*
X42820Y147526D01*
X42876Y147632D01*
X42936Y147737D01*
X42999Y147840D01*
X43065Y147940D01*
X43134Y148039D01*
X43207Y148135D01*
X43282Y148229D01*
X43360Y148321D01*
X43442Y148410D01*
X43526Y148497D01*
X43612Y148581D01*
X43701Y148662D01*
X43793Y148740D01*
X43887Y148815D01*
X43984Y148887D01*
X44082Y148957D01*
X44183Y149023D01*
X44286Y149086D01*
X44391Y149145D01*
X44497Y149202D01*
X44606Y149255D01*
X44715Y149304D01*
X44827Y149350D01*
X44940Y149393D01*
X45054Y149431D01*
X47707Y143794D02*
X47627Y143714D01*
X47545Y143636D01*
X47461Y143562D01*
X47373Y143490D01*
X47284Y143422D01*
X47191Y143356D01*
X47097Y143294D01*
X47001Y143236D01*
X46902Y143181D01*
X46802Y143129D01*
X46700Y143081D01*
X46596Y143036D01*
X46491Y142996D01*
X46384Y142959D01*
X46276Y142925D01*
X46167Y142896D01*
X46057Y142870D01*
X45946Y142849D01*
X45835Y142831D01*
X45723Y142817D01*
X45611Y142807D01*
X45498Y142801D01*
X45385Y142799D01*
X47707Y143794D02*
X54339Y149431D01*
X54339Y142799D01*
X51686Y138001D02*
X42401Y135348D01*
X51686Y138001D02*
X51686Y131369D01*
X49033Y133359D02*
X54339Y133359D01*
X45054Y126571D02*
X42401Y123255D01*
X54339Y123255D01*
X54339Y126571D02*
X54339Y119939D01*
X45054Y115141D02*
X42401Y111825D01*
X54339Y111825D01*
X54339Y115141D02*
X54339Y108509D01*
D11*
X360496Y508094D02*
X360496Y573626D01*
X388944Y573626D01*
X388944Y508094D01*
X360496Y508094D01*
X324666Y508474D02*
X324666Y574006D01*
X353114Y574006D01*
X353114Y508474D01*
X324666Y508474D01*
D14*
X228300Y339530D02*
X228312Y340512D01*
X228348Y341493D01*
X228408Y342473D01*
X228493Y343451D01*
X228601Y344426D01*
X228733Y345399D01*
X228889Y346368D01*
X229069Y347334D01*
X229272Y348294D01*
X229499Y349249D01*
X229749Y350199D01*
X230022Y351141D01*
X230319Y352077D01*
X230638Y353006D01*
X230980Y353926D01*
X231345Y354837D01*
X231732Y355740D01*
X232140Y356632D01*
X232571Y357514D01*
X233023Y358386D01*
X233497Y359246D01*
X233991Y360094D01*
X234506Y360930D01*
X235041Y361753D01*
X235597Y362562D01*
X236172Y363358D01*
X236766Y364139D01*
X237380Y364906D01*
X238012Y365657D01*
X238662Y366392D01*
X239330Y367112D01*
X240016Y367814D01*
X240718Y368500D01*
X241438Y369168D01*
X242173Y369818D01*
X242924Y370450D01*
X243691Y371064D01*
X244472Y371658D01*
X245268Y372233D01*
X246077Y372789D01*
X246900Y373324D01*
X247736Y373839D01*
X248584Y374333D01*
X249444Y374807D01*
X250316Y375259D01*
X251198Y375690D01*
X252090Y376098D01*
X252993Y376485D01*
X253904Y376850D01*
X254824Y377192D01*
X255753Y377511D01*
X256689Y377808D01*
X257631Y378081D01*
X258581Y378331D01*
X259536Y378558D01*
X260496Y378761D01*
X261462Y378941D01*
X262431Y379097D01*
X263404Y379229D01*
X264379Y379337D01*
X265357Y379422D01*
X266337Y379482D01*
X267318Y379518D01*
X268300Y379530D01*
X269282Y379518D01*
X270263Y379482D01*
X271243Y379422D01*
X272221Y379337D01*
X273196Y379229D01*
X274169Y379097D01*
X275138Y378941D01*
X276104Y378761D01*
X277064Y378558D01*
X278019Y378331D01*
X278969Y378081D01*
X279911Y377808D01*
X280847Y377511D01*
X281776Y377192D01*
X282696Y376850D01*
X283607Y376485D01*
X284510Y376098D01*
X285402Y375690D01*
X286284Y375259D01*
X287156Y374807D01*
X288016Y374333D01*
X288864Y373839D01*
X289700Y373324D01*
X290523Y372789D01*
X291332Y372233D01*
X292128Y371658D01*
X292909Y371064D01*
X293676Y370450D01*
X294427Y369818D01*
X295162Y369168D01*
X295882Y368500D01*
X296584Y367814D01*
X297270Y367112D01*
X297938Y366392D01*
X298588Y365657D01*
X299220Y364906D01*
X299834Y364139D01*
X300428Y363358D01*
X301003Y362562D01*
X301559Y361753D01*
X302094Y360930D01*
X302609Y360094D01*
X303103Y359246D01*
X303577Y358386D01*
X304029Y357514D01*
X304460Y356632D01*
X304868Y355740D01*
X305255Y354837D01*
X305620Y353926D01*
X305962Y353006D01*
X306281Y352077D01*
X306578Y351141D01*
X306851Y350199D01*
X307101Y349249D01*
X307328Y348294D01*
X307531Y347334D01*
X307711Y346368D01*
X307867Y345399D01*
X307999Y344426D01*
X308107Y343451D01*
X308192Y342473D01*
X308252Y341493D01*
X308288Y340512D01*
X308300Y339530D01*
X308288Y338548D01*
X308252Y337567D01*
X308192Y336587D01*
X308107Y335609D01*
X307999Y334634D01*
X307867Y333661D01*
X307711Y332692D01*
X307531Y331726D01*
X307328Y330766D01*
X307101Y329811D01*
X306851Y328861D01*
X306578Y327919D01*
X306281Y326983D01*
X305962Y326054D01*
X305620Y325134D01*
X305255Y324223D01*
X304868Y323320D01*
X304460Y322428D01*
X304029Y321546D01*
X303577Y320674D01*
X303103Y319814D01*
X302609Y318966D01*
X302094Y318130D01*
X301559Y317307D01*
X301003Y316498D01*
X300428Y315702D01*
X299834Y314921D01*
X299220Y314154D01*
X298588Y313403D01*
X297938Y312668D01*
X297270Y311948D01*
X296584Y311246D01*
X295882Y310560D01*
X295162Y309892D01*
X294427Y309242D01*
X293676Y308610D01*
X292909Y307996D01*
X292128Y307402D01*
X291332Y306827D01*
X290523Y306271D01*
X289700Y305736D01*
X288864Y305221D01*
X288016Y304727D01*
X287156Y304253D01*
X286284Y303801D01*
X285402Y303370D01*
X284510Y302962D01*
X283607Y302575D01*
X282696Y302210D01*
X281776Y301868D01*
X280847Y301549D01*
X279911Y301252D01*
X278969Y300979D01*
X278019Y300729D01*
X277064Y300502D01*
X276104Y300299D01*
X275138Y300119D01*
X274169Y299963D01*
X273196Y299831D01*
X272221Y299723D01*
X271243Y299638D01*
X270263Y299578D01*
X269282Y299542D01*
X268300Y299530D01*
X267318Y299542D01*
X266337Y299578D01*
X265357Y299638D01*
X264379Y299723D01*
X263404Y299831D01*
X262431Y299963D01*
X261462Y300119D01*
X260496Y300299D01*
X259536Y300502D01*
X258581Y300729D01*
X257631Y300979D01*
X256689Y301252D01*
X255753Y301549D01*
X254824Y301868D01*
X253904Y302210D01*
X252993Y302575D01*
X252090Y302962D01*
X251198Y303370D01*
X250316Y303801D01*
X249444Y304253D01*
X248584Y304727D01*
X247736Y305221D01*
X246900Y305736D01*
X246077Y306271D01*
X245268Y306827D01*
X244472Y307402D01*
X243691Y307996D01*
X242924Y308610D01*
X242173Y309242D01*
X241438Y309892D01*
X240718Y310560D01*
X240016Y311246D01*
X239330Y311948D01*
X238662Y312668D01*
X238012Y313403D01*
X237380Y314154D01*
X236766Y314921D01*
X236172Y315702D01*
X235597Y316498D01*
X235041Y317307D01*
X234506Y318130D01*
X233991Y318966D01*
X233497Y319814D01*
X233023Y320674D01*
X232571Y321546D01*
X232140Y322428D01*
X231732Y323320D01*
X231345Y324223D01*
X230980Y325134D01*
X230638Y326054D01*
X230319Y326983D01*
X230022Y327919D01*
X229749Y328861D01*
X229499Y329811D01*
X229272Y330766D01*
X229069Y331726D01*
X228889Y332692D01*
X228733Y333661D01*
X228601Y334634D01*
X228493Y335609D01*
X228408Y336587D01*
X228348Y337567D01*
X228312Y338548D01*
X228300Y339530D01*
D12*
X267300Y292030D02*
X267302Y292093D01*
X267308Y292155D01*
X267318Y292217D01*
X267331Y292279D01*
X267349Y292339D01*
X267370Y292398D01*
X267395Y292456D01*
X267424Y292512D01*
X267456Y292566D01*
X267491Y292618D01*
X267529Y292667D01*
X267571Y292715D01*
X267615Y292759D01*
X267663Y292801D01*
X267712Y292839D01*
X267764Y292874D01*
X267818Y292906D01*
X267874Y292935D01*
X267932Y292960D01*
X267991Y292981D01*
X268051Y292999D01*
X268113Y293012D01*
X268175Y293022D01*
X268237Y293028D01*
X268300Y293030D01*
X268363Y293028D01*
X268425Y293022D01*
X268487Y293012D01*
X268549Y292999D01*
X268609Y292981D01*
X268668Y292960D01*
X268726Y292935D01*
X268782Y292906D01*
X268836Y292874D01*
X268888Y292839D01*
X268937Y292801D01*
X268985Y292759D01*
X269029Y292715D01*
X269071Y292667D01*
X269109Y292618D01*
X269144Y292566D01*
X269176Y292512D01*
X269205Y292456D01*
X269230Y292398D01*
X269251Y292339D01*
X269269Y292279D01*
X269282Y292217D01*
X269292Y292155D01*
X269298Y292093D01*
X269300Y292030D01*
X269298Y291967D01*
X269292Y291905D01*
X269282Y291843D01*
X269269Y291781D01*
X269251Y291721D01*
X269230Y291662D01*
X269205Y291604D01*
X269176Y291548D01*
X269144Y291494D01*
X269109Y291442D01*
X269071Y291393D01*
X269029Y291345D01*
X268985Y291301D01*
X268937Y291259D01*
X268888Y291221D01*
X268836Y291186D01*
X268782Y291154D01*
X268726Y291125D01*
X268668Y291100D01*
X268609Y291079D01*
X268549Y291061D01*
X268487Y291048D01*
X268425Y291038D01*
X268363Y291032D01*
X268300Y291030D01*
X268237Y291032D01*
X268175Y291038D01*
X268113Y291048D01*
X268051Y291061D01*
X267991Y291079D01*
X267932Y291100D01*
X267874Y291125D01*
X267818Y291154D01*
X267764Y291186D01*
X267712Y291221D01*
X267663Y291259D01*
X267615Y291301D01*
X267571Y291345D01*
X267529Y291393D01*
X267491Y291442D01*
X267456Y291494D01*
X267424Y291548D01*
X267395Y291604D01*
X267370Y291662D01*
X267349Y291721D01*
X267331Y291781D01*
X267318Y291843D01*
X267308Y291905D01*
X267302Y291967D01*
X267300Y292030D01*
D13*
X275808Y327217D02*
X275808Y329814D01*
X275808Y327217D02*
X275810Y327118D01*
X275816Y327018D01*
X275825Y326919D01*
X275838Y326821D01*
X275855Y326723D01*
X275876Y326625D01*
X275901Y326529D01*
X275929Y326434D01*
X275961Y326340D01*
X275996Y326247D01*
X276035Y326155D01*
X276078Y326065D01*
X276123Y325977D01*
X276173Y325890D01*
X276225Y325806D01*
X276281Y325723D01*
X276339Y325643D01*
X276401Y325565D01*
X276466Y325490D01*
X276534Y325417D01*
X276604Y325347D01*
X276677Y325279D01*
X276752Y325214D01*
X276830Y325152D01*
X276910Y325094D01*
X276993Y325038D01*
X277077Y324986D01*
X277164Y324936D01*
X277252Y324891D01*
X277342Y324848D01*
X277434Y324809D01*
X277527Y324774D01*
X277621Y324742D01*
X277716Y324714D01*
X277812Y324689D01*
X277910Y324668D01*
X278008Y324651D01*
X278106Y324638D01*
X278205Y324629D01*
X278305Y324623D01*
X278404Y324621D01*
X284896Y324621D01*
X284995Y324623D01*
X285095Y324629D01*
X285194Y324638D01*
X285292Y324651D01*
X285390Y324668D01*
X285488Y324689D01*
X285584Y324714D01*
X285679Y324742D01*
X285773Y324774D01*
X285866Y324809D01*
X285958Y324848D01*
X286048Y324891D01*
X286136Y324936D01*
X286223Y324986D01*
X286307Y325038D01*
X286390Y325094D01*
X286470Y325152D01*
X286548Y325214D01*
X286623Y325279D01*
X286696Y325347D01*
X286766Y325417D01*
X286834Y325490D01*
X286899Y325565D01*
X286961Y325643D01*
X287019Y325723D01*
X287075Y325806D01*
X287127Y325890D01*
X287177Y325977D01*
X287222Y326065D01*
X287265Y326155D01*
X287304Y326247D01*
X287339Y326339D01*
X287371Y326434D01*
X287399Y326529D01*
X287424Y326625D01*
X287445Y326723D01*
X287462Y326821D01*
X287475Y326919D01*
X287484Y327018D01*
X287490Y327118D01*
X287492Y327217D01*
X287492Y329814D01*
X287492Y337749D02*
X287490Y337856D01*
X287484Y337962D01*
X287474Y338068D01*
X287461Y338174D01*
X287443Y338280D01*
X287422Y338384D01*
X287397Y338488D01*
X287368Y338591D01*
X287336Y338692D01*
X287299Y338792D01*
X287259Y338891D01*
X287216Y338989D01*
X287169Y339085D01*
X287118Y339179D01*
X287064Y339271D01*
X287007Y339361D01*
X286947Y339449D01*
X286883Y339534D01*
X286816Y339617D01*
X286746Y339698D01*
X286674Y339776D01*
X286598Y339852D01*
X286520Y339924D01*
X286439Y339994D01*
X286356Y340061D01*
X286271Y340125D01*
X286183Y340185D01*
X286093Y340242D01*
X286001Y340296D01*
X285907Y340347D01*
X285811Y340394D01*
X285713Y340437D01*
X285614Y340477D01*
X285514Y340514D01*
X285413Y340546D01*
X285310Y340575D01*
X285206Y340600D01*
X285102Y340621D01*
X284996Y340639D01*
X284890Y340652D01*
X284784Y340662D01*
X284678Y340668D01*
X284571Y340670D01*
X287492Y337749D02*
X287490Y337628D01*
X287484Y337507D01*
X287474Y337387D01*
X287461Y337266D01*
X287443Y337147D01*
X287422Y337027D01*
X287397Y336909D01*
X287368Y336792D01*
X287335Y336675D01*
X287299Y336560D01*
X287258Y336446D01*
X287215Y336333D01*
X287167Y336221D01*
X287116Y336112D01*
X287061Y336004D01*
X287003Y335897D01*
X286942Y335793D01*
X286877Y335691D01*
X286809Y335591D01*
X286738Y335493D01*
X286664Y335397D01*
X286587Y335304D01*
X286506Y335214D01*
X286423Y335126D01*
X286337Y335041D01*
X286248Y334958D01*
X286157Y334879D01*
X286063Y334802D01*
X285967Y334729D01*
X285869Y334659D01*
X285768Y334592D01*
X285665Y334528D01*
X285560Y334468D01*
X285453Y334411D01*
X285345Y334357D01*
X285235Y334307D01*
X285123Y334261D01*
X285010Y334218D01*
X284895Y334179D01*
X282299Y339697D02*
X282376Y339776D01*
X282457Y339852D01*
X282540Y339925D01*
X282625Y339995D01*
X282713Y340062D01*
X282803Y340126D01*
X282895Y340186D01*
X282990Y340243D01*
X283086Y340297D01*
X283184Y340348D01*
X283284Y340395D01*
X283386Y340439D01*
X283489Y340479D01*
X283593Y340515D01*
X283699Y340547D01*
X283805Y340576D01*
X283913Y340601D01*
X284021Y340623D01*
X284131Y340640D01*
X284240Y340654D01*
X284350Y340663D01*
X284461Y340669D01*
X284571Y340671D01*
X282299Y339697D02*
X275808Y334179D01*
X275808Y340670D01*
D12*
X715240Y186540D02*
X745240Y186540D01*
X745240Y86540D02*
X715240Y86540D01*
X745240Y86540D02*
X745240Y186540D01*
D13*
X733861Y198171D02*
X733861Y207263D01*
X733861Y198171D02*
X733863Y198071D01*
X733869Y197972D01*
X733878Y197873D01*
X733891Y197774D01*
X733909Y197676D01*
X733929Y197579D01*
X733954Y197483D01*
X733982Y197387D01*
X734014Y197293D01*
X734049Y197200D01*
X734088Y197108D01*
X734131Y197018D01*
X734177Y196930D01*
X734226Y196843D01*
X734278Y196759D01*
X734334Y196676D01*
X734393Y196596D01*
X734455Y196518D01*
X734519Y196442D01*
X734587Y196369D01*
X734657Y196299D01*
X734730Y196231D01*
X734806Y196167D01*
X734884Y196105D01*
X734964Y196046D01*
X735047Y195990D01*
X735131Y195938D01*
X735218Y195889D01*
X735306Y195843D01*
X735396Y195800D01*
X735488Y195761D01*
X735581Y195726D01*
X735675Y195694D01*
X735771Y195666D01*
X735867Y195641D01*
X735964Y195621D01*
X736062Y195603D01*
X736161Y195590D01*
X736260Y195581D01*
X736359Y195575D01*
X736459Y195573D01*
X736459Y195574D02*
X737757Y195574D01*
X728585Y198821D02*
X728583Y198933D01*
X728577Y199045D01*
X728568Y199157D01*
X728554Y199268D01*
X728537Y199379D01*
X728516Y199489D01*
X728491Y199598D01*
X728462Y199706D01*
X728430Y199814D01*
X728393Y199920D01*
X728354Y200025D01*
X728310Y200128D01*
X728263Y200230D01*
X728213Y200330D01*
X728159Y200428D01*
X728102Y200525D01*
X728042Y200619D01*
X727978Y200711D01*
X727911Y200801D01*
X727841Y200889D01*
X727768Y200974D01*
X727693Y201057D01*
X727614Y201137D01*
X727533Y201214D01*
X727449Y201288D01*
X727362Y201360D01*
X727274Y201428D01*
X727183Y201493D01*
X727089Y201555D01*
X726994Y201614D01*
X726896Y201670D01*
X726797Y201722D01*
X726696Y201770D01*
X726594Y201815D01*
X726489Y201857D01*
X726384Y201895D01*
X726277Y201929D01*
X726169Y201960D01*
X726061Y201987D01*
X725951Y202010D01*
X725840Y202029D01*
X725729Y202044D01*
X725618Y202056D01*
X725506Y202064D01*
X725394Y202068D01*
X725282Y202068D01*
X725170Y202064D01*
X725058Y202056D01*
X724947Y202044D01*
X724836Y202029D01*
X724725Y202010D01*
X724615Y201987D01*
X724507Y201960D01*
X724399Y201929D01*
X724292Y201895D01*
X724187Y201857D01*
X724082Y201815D01*
X723980Y201770D01*
X723879Y201722D01*
X723780Y201670D01*
X723682Y201614D01*
X723587Y201555D01*
X723493Y201493D01*
X723402Y201428D01*
X723314Y201360D01*
X723227Y201288D01*
X723143Y201214D01*
X723062Y201137D01*
X722983Y201057D01*
X722908Y200974D01*
X722835Y200889D01*
X722765Y200801D01*
X722698Y200711D01*
X722634Y200619D01*
X722574Y200525D01*
X722517Y200428D01*
X722463Y200330D01*
X722413Y200230D01*
X722366Y200128D01*
X722322Y200025D01*
X722283Y199920D01*
X722246Y199814D01*
X722214Y199706D01*
X722185Y199598D01*
X722160Y199489D01*
X722139Y199379D01*
X722122Y199268D01*
X722108Y199157D01*
X722099Y199045D01*
X722093Y198933D01*
X722091Y198821D01*
X722093Y198709D01*
X722099Y198597D01*
X722108Y198485D01*
X722122Y198374D01*
X722139Y198263D01*
X722160Y198153D01*
X722185Y198044D01*
X722214Y197936D01*
X722246Y197828D01*
X722283Y197722D01*
X722322Y197617D01*
X722366Y197514D01*
X722413Y197412D01*
X722463Y197312D01*
X722517Y197214D01*
X722574Y197117D01*
X722634Y197023D01*
X722698Y196931D01*
X722765Y196841D01*
X722835Y196753D01*
X722908Y196668D01*
X722983Y196585D01*
X723062Y196505D01*
X723143Y196428D01*
X723227Y196354D01*
X723314Y196282D01*
X723402Y196214D01*
X723493Y196149D01*
X723587Y196087D01*
X723682Y196028D01*
X723780Y195972D01*
X723879Y195920D01*
X723980Y195872D01*
X724082Y195827D01*
X724187Y195785D01*
X724292Y195747D01*
X724399Y195713D01*
X724507Y195682D01*
X724615Y195655D01*
X724725Y195632D01*
X724836Y195613D01*
X724947Y195598D01*
X725058Y195586D01*
X725170Y195578D01*
X725282Y195574D01*
X725394Y195574D01*
X725506Y195578D01*
X725618Y195586D01*
X725729Y195598D01*
X725840Y195613D01*
X725951Y195632D01*
X726061Y195655D01*
X726169Y195682D01*
X726277Y195713D01*
X726384Y195747D01*
X726489Y195785D01*
X726594Y195827D01*
X726696Y195872D01*
X726797Y195920D01*
X726896Y195972D01*
X726994Y196028D01*
X727089Y196087D01*
X727183Y196149D01*
X727274Y196214D01*
X727362Y196282D01*
X727449Y196354D01*
X727533Y196428D01*
X727614Y196505D01*
X727693Y196585D01*
X727768Y196668D01*
X727841Y196753D01*
X727911Y196841D01*
X727978Y196931D01*
X728042Y197023D01*
X728102Y197117D01*
X728159Y197214D01*
X728213Y197312D01*
X728263Y197412D01*
X728310Y197514D01*
X728354Y197617D01*
X728393Y197722D01*
X728430Y197828D01*
X728462Y197936D01*
X728491Y198044D01*
X728516Y198153D01*
X728537Y198263D01*
X728554Y198374D01*
X728568Y198485D01*
X728577Y198597D01*
X728583Y198709D01*
X728585Y198821D01*
X727936Y204666D02*
X727934Y204767D01*
X727928Y204867D01*
X727918Y204968D01*
X727905Y205067D01*
X727887Y205167D01*
X727866Y205265D01*
X727841Y205363D01*
X727812Y205459D01*
X727779Y205555D01*
X727743Y205649D01*
X727703Y205741D01*
X727660Y205832D01*
X727613Y205921D01*
X727562Y206008D01*
X727509Y206094D01*
X727452Y206177D01*
X727391Y206258D01*
X727328Y206336D01*
X727262Y206412D01*
X727193Y206485D01*
X727121Y206556D01*
X727046Y206623D01*
X726969Y206688D01*
X726889Y206750D01*
X726807Y206809D01*
X726723Y206864D01*
X726637Y206916D01*
X726549Y206965D01*
X726459Y207010D01*
X726367Y207052D01*
X726274Y207090D01*
X726179Y207124D01*
X726083Y207155D01*
X725986Y207182D01*
X725888Y207205D01*
X725789Y207225D01*
X725690Y207240D01*
X725590Y207252D01*
X725489Y207260D01*
X725388Y207264D01*
X725288Y207264D01*
X725187Y207260D01*
X725086Y207252D01*
X724986Y207240D01*
X724887Y207225D01*
X724788Y207205D01*
X724690Y207182D01*
X724593Y207155D01*
X724497Y207124D01*
X724402Y207090D01*
X724309Y207052D01*
X724217Y207010D01*
X724127Y206965D01*
X724039Y206916D01*
X723953Y206864D01*
X723869Y206809D01*
X723787Y206750D01*
X723707Y206688D01*
X723630Y206623D01*
X723555Y206556D01*
X723483Y206485D01*
X723414Y206412D01*
X723348Y206336D01*
X723285Y206258D01*
X723224Y206177D01*
X723167Y206094D01*
X723114Y206008D01*
X723063Y205921D01*
X723016Y205832D01*
X722973Y205741D01*
X722933Y205649D01*
X722897Y205555D01*
X722864Y205459D01*
X722835Y205363D01*
X722810Y205265D01*
X722789Y205167D01*
X722771Y205067D01*
X722758Y204968D01*
X722748Y204867D01*
X722742Y204767D01*
X722740Y204666D01*
X722742Y204565D01*
X722748Y204465D01*
X722758Y204364D01*
X722771Y204265D01*
X722789Y204165D01*
X722810Y204067D01*
X722835Y203969D01*
X722864Y203873D01*
X722897Y203777D01*
X722933Y203683D01*
X722973Y203591D01*
X723016Y203500D01*
X723063Y203411D01*
X723114Y203324D01*
X723167Y203238D01*
X723224Y203155D01*
X723285Y203074D01*
X723348Y202996D01*
X723414Y202920D01*
X723483Y202847D01*
X723555Y202776D01*
X723630Y202709D01*
X723707Y202644D01*
X723787Y202582D01*
X723869Y202523D01*
X723953Y202468D01*
X724039Y202416D01*
X724127Y202367D01*
X724217Y202322D01*
X724309Y202280D01*
X724402Y202242D01*
X724497Y202208D01*
X724593Y202177D01*
X724690Y202150D01*
X724788Y202127D01*
X724887Y202107D01*
X724986Y202092D01*
X725086Y202080D01*
X725187Y202072D01*
X725288Y202068D01*
X725388Y202068D01*
X725489Y202072D01*
X725590Y202080D01*
X725690Y202092D01*
X725789Y202107D01*
X725888Y202127D01*
X725986Y202150D01*
X726083Y202177D01*
X726179Y202208D01*
X726274Y202242D01*
X726367Y202280D01*
X726459Y202322D01*
X726549Y202367D01*
X726637Y202416D01*
X726723Y202468D01*
X726807Y202523D01*
X726889Y202582D01*
X726969Y202644D01*
X727046Y202709D01*
X727121Y202776D01*
X727193Y202847D01*
X727262Y202920D01*
X727328Y202996D01*
X727391Y203074D01*
X727452Y203155D01*
X727509Y203238D01*
X727562Y203324D01*
X727613Y203411D01*
X727660Y203500D01*
X727703Y203591D01*
X727743Y203683D01*
X727779Y203777D01*
X727812Y203873D01*
X727841Y203969D01*
X727866Y204067D01*
X727887Y204165D01*
X727905Y204265D01*
X727918Y204364D01*
X727928Y204465D01*
X727934Y204565D01*
X727936Y204666D01*
D11*
X634916Y504224D02*
X569384Y504224D01*
X634916Y504224D02*
X634916Y475776D01*
X569384Y475776D01*
X569384Y504224D01*
M02*
