G04 EAGLE Gerber RS-274X export*
G75*
%MOMM*%
%FSLAX34Y34*%
%LPD*%
%INSoldermask Bottom*%
%IPPOS*%
%AMOC8*
5,1,8,0,0,1.08239X$1,22.5*%
G01*
%ADD10C,3.403200*%
%ADD11C,1.703200*%
%ADD12C,3.203200*%
%ADD13C,1.879600*%
%ADD14C,1.524000*%
%ADD15R,1.600200X1.600200*%
%ADD16C,1.600200*%
%ADD17R,1.219200X1.219200*%
%ADD18C,1.219200*%
%ADD19R,2.723200X2.723200*%
%ADD20C,2.723200*%
%ADD21R,0.603200X1.403200*%
%ADD22R,6.913200X3.063200*%
%ADD23R,1.473200X0.813200*%
%ADD24R,0.913200X0.813200*%
%ADD25R,4.013200X4.113200*%
%ADD26R,0.513200X0.458200*%
%ADD27R,5.719200X5.719200*%
%ADD28C,5.719200*%
%ADD29C,1.574800*%
%ADD30R,2.903200X2.903200*%
%ADD31C,2.903200*%
%ADD32P,1.649562X8X22.500000*%
%ADD33C,1.422400*%
%ADD34R,2.003200X2.003200*%
%ADD35C,2.003200*%
%ADD36C,2.108200*%
%ADD37P,1.649562X8X292.500000*%
%ADD38R,1.561200X1.561200*%
%ADD39C,1.561200*%
%ADD40C,1.003200*%
%ADD41C,2.453200*%
%ADD42C,1.903200*%
%ADD43R,0.303200X0.838200*%
%ADD44C,0.959600*%

G36*
X685252Y117046D02*
X685252Y117046D01*
X685289Y117043D01*
X686850Y117197D01*
X686888Y117209D01*
X686946Y117216D01*
X688446Y117671D01*
X688481Y117690D01*
X688537Y117709D01*
X689920Y118448D01*
X689950Y118473D01*
X690001Y118502D01*
X691214Y119497D01*
X691239Y119528D01*
X691283Y119566D01*
X692278Y120779D01*
X692296Y120814D01*
X692332Y120860D01*
X693071Y122243D01*
X693083Y122281D01*
X693109Y122334D01*
X693564Y123834D01*
X693568Y123874D01*
X693583Y123930D01*
X693737Y125491D01*
X693735Y125513D01*
X693739Y125540D01*
X693739Y149540D01*
X693730Y149584D01*
X693725Y149659D01*
X693395Y151005D01*
X693378Y151041D01*
X693363Y151097D01*
X692777Y152354D01*
X692753Y152386D01*
X692727Y152438D01*
X691907Y153556D01*
X691878Y153582D01*
X691842Y153629D01*
X690820Y154565D01*
X690786Y154585D01*
X690742Y154624D01*
X689557Y155343D01*
X689519Y155356D01*
X689468Y155385D01*
X688166Y155859D01*
X688126Y155865D01*
X688071Y155883D01*
X686701Y156094D01*
X686661Y156092D01*
X686603Y156099D01*
X685221Y156039D01*
X683751Y155992D01*
X683713Y155983D01*
X683654Y155980D01*
X682219Y155647D01*
X682183Y155630D01*
X682126Y155615D01*
X680783Y155009D01*
X680751Y154986D01*
X680699Y154960D01*
X679500Y154103D01*
X679473Y154074D01*
X679426Y154039D01*
X678418Y152964D01*
X678397Y152930D01*
X678358Y152887D01*
X677579Y151636D01*
X677565Y151599D01*
X677535Y151548D01*
X677015Y150170D01*
X677008Y150131D01*
X676989Y150075D01*
X676748Y148622D01*
X676749Y148587D01*
X676741Y148540D01*
X676741Y124540D01*
X676744Y124522D01*
X676743Y124513D01*
X676748Y124493D01*
X676748Y124458D01*
X676989Y123005D01*
X677003Y122967D01*
X677015Y122910D01*
X677535Y121532D01*
X677556Y121498D01*
X677579Y121444D01*
X678358Y120193D01*
X678385Y120165D01*
X678418Y120116D01*
X679426Y119041D01*
X679459Y119019D01*
X679500Y118977D01*
X680699Y118120D01*
X680735Y118104D01*
X680783Y118071D01*
X682126Y117465D01*
X682165Y117456D01*
X682219Y117433D01*
X683654Y117100D01*
X683694Y117099D01*
X683751Y117088D01*
X685224Y117041D01*
X685252Y117046D01*
G37*
G36*
X649261Y175545D02*
X649261Y175545D01*
X649289Y175543D01*
X650850Y175697D01*
X650888Y175709D01*
X650946Y175716D01*
X652446Y176171D01*
X652481Y176190D01*
X652537Y176209D01*
X653920Y176948D01*
X653950Y176973D01*
X654001Y177002D01*
X655214Y177997D01*
X655239Y178028D01*
X655283Y178066D01*
X656278Y179279D01*
X656296Y179314D01*
X656332Y179360D01*
X657071Y180743D01*
X657083Y180781D01*
X657109Y180834D01*
X657564Y182334D01*
X657568Y182374D01*
X657583Y182430D01*
X657737Y183991D01*
X657734Y184021D01*
X657738Y184045D01*
X657735Y184058D01*
X657737Y184089D01*
X657583Y185650D01*
X657571Y185688D01*
X657564Y185746D01*
X657109Y187246D01*
X657090Y187281D01*
X657071Y187337D01*
X656332Y188720D01*
X656307Y188750D01*
X656278Y188801D01*
X655283Y190014D01*
X655252Y190039D01*
X655214Y190083D01*
X654001Y191078D01*
X653966Y191096D01*
X653920Y191132D01*
X652537Y191871D01*
X652499Y191883D01*
X652446Y191909D01*
X650946Y192364D01*
X650906Y192368D01*
X650850Y192383D01*
X649289Y192537D01*
X649267Y192535D01*
X649240Y192539D01*
X637240Y192539D01*
X637219Y192535D01*
X637191Y192537D01*
X635630Y192383D01*
X635592Y192371D01*
X635534Y192364D01*
X634034Y191909D01*
X633999Y191890D01*
X633943Y191871D01*
X632560Y191132D01*
X632530Y191107D01*
X632479Y191078D01*
X631266Y190083D01*
X631241Y190052D01*
X631197Y190014D01*
X630202Y188801D01*
X630184Y188766D01*
X630148Y188720D01*
X629409Y187337D01*
X629397Y187299D01*
X629371Y187246D01*
X628916Y185746D01*
X628912Y185706D01*
X628897Y185650D01*
X628743Y184089D01*
X628747Y184050D01*
X628746Y184035D01*
X628742Y184011D01*
X628744Y184004D01*
X628743Y183991D01*
X628897Y182430D01*
X628909Y182392D01*
X628916Y182334D01*
X629371Y180834D01*
X629390Y180799D01*
X629409Y180743D01*
X630148Y179360D01*
X630173Y179330D01*
X630202Y179279D01*
X631197Y178066D01*
X631228Y178041D01*
X631266Y177997D01*
X632479Y177002D01*
X632514Y176984D01*
X632560Y176948D01*
X633943Y176209D01*
X633981Y176197D01*
X634034Y176171D01*
X635534Y175716D01*
X635574Y175712D01*
X635630Y175697D01*
X637191Y175543D01*
X637213Y175545D01*
X637240Y175541D01*
X649240Y175541D01*
X649261Y175545D01*
G37*
G36*
X696261Y175545D02*
X696261Y175545D01*
X696289Y175543D01*
X697850Y175697D01*
X697888Y175709D01*
X697946Y175716D01*
X699446Y176171D01*
X699481Y176190D01*
X699537Y176209D01*
X700920Y176948D01*
X700950Y176973D01*
X701001Y177002D01*
X702214Y177997D01*
X702239Y178028D01*
X702283Y178066D01*
X703278Y179279D01*
X703296Y179314D01*
X703332Y179360D01*
X704071Y180743D01*
X704083Y180781D01*
X704109Y180834D01*
X704564Y182334D01*
X704568Y182374D01*
X704583Y182430D01*
X704737Y183991D01*
X704734Y184021D01*
X704738Y184045D01*
X704735Y184058D01*
X704737Y184089D01*
X704583Y185650D01*
X704571Y185688D01*
X704564Y185746D01*
X704109Y187246D01*
X704090Y187281D01*
X704071Y187337D01*
X703332Y188720D01*
X703307Y188750D01*
X703278Y188801D01*
X702283Y190014D01*
X702252Y190039D01*
X702214Y190083D01*
X701001Y191078D01*
X700966Y191096D01*
X700920Y191132D01*
X699537Y191871D01*
X699499Y191883D01*
X699446Y191909D01*
X697946Y192364D01*
X697906Y192368D01*
X697850Y192383D01*
X696289Y192537D01*
X696267Y192535D01*
X696240Y192539D01*
X684240Y192539D01*
X684219Y192535D01*
X684191Y192537D01*
X682630Y192383D01*
X682592Y192371D01*
X682534Y192364D01*
X681034Y191909D01*
X680999Y191890D01*
X680943Y191871D01*
X679560Y191132D01*
X679530Y191107D01*
X679479Y191078D01*
X678266Y190083D01*
X678241Y190052D01*
X678197Y190014D01*
X677202Y188801D01*
X677184Y188766D01*
X677148Y188720D01*
X676409Y187337D01*
X676397Y187299D01*
X676371Y187246D01*
X675916Y185746D01*
X675912Y185706D01*
X675897Y185650D01*
X675743Y184089D01*
X675747Y184050D01*
X675746Y184035D01*
X675742Y184011D01*
X675744Y184004D01*
X675743Y183991D01*
X675897Y182430D01*
X675909Y182392D01*
X675916Y182334D01*
X676371Y180834D01*
X676390Y180799D01*
X676409Y180743D01*
X677148Y179360D01*
X677173Y179330D01*
X677202Y179279D01*
X678197Y178066D01*
X678228Y178041D01*
X678266Y177997D01*
X679479Y177002D01*
X679514Y176984D01*
X679560Y176948D01*
X680943Y176209D01*
X680981Y176197D01*
X681034Y176171D01*
X682534Y175716D01*
X682574Y175712D01*
X682630Y175697D01*
X684191Y175543D01*
X684213Y175545D01*
X684240Y175541D01*
X696240Y175541D01*
X696261Y175545D01*
G37*
G36*
X649261Y80545D02*
X649261Y80545D01*
X649289Y80543D01*
X650850Y80697D01*
X650888Y80709D01*
X650946Y80716D01*
X652446Y81171D01*
X652481Y81190D01*
X652537Y81209D01*
X653920Y81948D01*
X653950Y81973D01*
X654001Y82002D01*
X655214Y82997D01*
X655239Y83028D01*
X655283Y83066D01*
X656278Y84279D01*
X656296Y84314D01*
X656332Y84360D01*
X657071Y85743D01*
X657083Y85781D01*
X657109Y85834D01*
X657564Y87334D01*
X657568Y87374D01*
X657583Y87430D01*
X657737Y88991D01*
X657734Y89021D01*
X657738Y89045D01*
X657735Y89058D01*
X657737Y89089D01*
X657583Y90650D01*
X657571Y90688D01*
X657564Y90746D01*
X657109Y92246D01*
X657090Y92281D01*
X657071Y92337D01*
X656332Y93720D01*
X656307Y93750D01*
X656278Y93801D01*
X655283Y95014D01*
X655252Y95039D01*
X655214Y95083D01*
X654001Y96078D01*
X653966Y96096D01*
X653920Y96132D01*
X652537Y96871D01*
X652499Y96883D01*
X652446Y96909D01*
X650946Y97364D01*
X650906Y97368D01*
X650850Y97383D01*
X649289Y97537D01*
X649267Y97535D01*
X649240Y97539D01*
X637240Y97539D01*
X637219Y97535D01*
X637191Y97537D01*
X635630Y97383D01*
X635592Y97371D01*
X635534Y97364D01*
X634034Y96909D01*
X633999Y96890D01*
X633943Y96871D01*
X632560Y96132D01*
X632530Y96107D01*
X632479Y96078D01*
X631266Y95083D01*
X631241Y95052D01*
X631197Y95014D01*
X630202Y93801D01*
X630184Y93766D01*
X630148Y93720D01*
X629409Y92337D01*
X629397Y92299D01*
X629371Y92246D01*
X628916Y90746D01*
X628912Y90706D01*
X628897Y90650D01*
X628743Y89089D01*
X628747Y89050D01*
X628746Y89035D01*
X628742Y89011D01*
X628744Y89004D01*
X628743Y88991D01*
X628897Y87430D01*
X628909Y87392D01*
X628916Y87334D01*
X629371Y85834D01*
X629390Y85799D01*
X629409Y85743D01*
X630148Y84360D01*
X630173Y84330D01*
X630202Y84279D01*
X631197Y83066D01*
X631228Y83041D01*
X631266Y82997D01*
X632479Y82002D01*
X632514Y81984D01*
X632560Y81948D01*
X633943Y81209D01*
X633981Y81197D01*
X634034Y81171D01*
X635534Y80716D01*
X635574Y80712D01*
X635630Y80697D01*
X637191Y80543D01*
X637213Y80545D01*
X637240Y80541D01*
X649240Y80541D01*
X649261Y80545D01*
G37*
G36*
X696261Y80545D02*
X696261Y80545D01*
X696289Y80543D01*
X697850Y80697D01*
X697888Y80709D01*
X697946Y80716D01*
X699446Y81171D01*
X699481Y81190D01*
X699537Y81209D01*
X700920Y81948D01*
X700950Y81973D01*
X701001Y82002D01*
X702214Y82997D01*
X702239Y83028D01*
X702283Y83066D01*
X703278Y84279D01*
X703296Y84314D01*
X703332Y84360D01*
X704071Y85743D01*
X704083Y85781D01*
X704109Y85834D01*
X704564Y87334D01*
X704568Y87374D01*
X704583Y87430D01*
X704737Y88991D01*
X704734Y89021D01*
X704738Y89045D01*
X704735Y89058D01*
X704737Y89089D01*
X704583Y90650D01*
X704571Y90688D01*
X704564Y90746D01*
X704109Y92246D01*
X704090Y92281D01*
X704071Y92337D01*
X703332Y93720D01*
X703307Y93750D01*
X703278Y93801D01*
X702283Y95014D01*
X702252Y95039D01*
X702214Y95083D01*
X701001Y96078D01*
X700966Y96096D01*
X700920Y96132D01*
X699537Y96871D01*
X699499Y96883D01*
X699446Y96909D01*
X697946Y97364D01*
X697906Y97368D01*
X697850Y97383D01*
X696289Y97537D01*
X696267Y97535D01*
X696240Y97539D01*
X684240Y97539D01*
X684219Y97535D01*
X684191Y97537D01*
X682630Y97383D01*
X682592Y97371D01*
X682534Y97364D01*
X681034Y96909D01*
X680999Y96890D01*
X680943Y96871D01*
X679560Y96132D01*
X679530Y96107D01*
X679479Y96078D01*
X678266Y95083D01*
X678241Y95052D01*
X678197Y95014D01*
X677202Y93801D01*
X677184Y93766D01*
X677148Y93720D01*
X676409Y92337D01*
X676397Y92299D01*
X676371Y92246D01*
X675916Y90746D01*
X675912Y90706D01*
X675897Y90650D01*
X675743Y89089D01*
X675747Y89050D01*
X675746Y89035D01*
X675742Y89011D01*
X675744Y89004D01*
X675743Y88991D01*
X675897Y87430D01*
X675909Y87392D01*
X675916Y87334D01*
X676371Y85834D01*
X676390Y85799D01*
X676409Y85743D01*
X677148Y84360D01*
X677173Y84330D01*
X677202Y84279D01*
X678197Y83066D01*
X678228Y83041D01*
X678266Y82997D01*
X679479Y82002D01*
X679514Y81984D01*
X679560Y81948D01*
X680943Y81209D01*
X680981Y81197D01*
X681034Y81171D01*
X682534Y80716D01*
X682574Y80712D01*
X682630Y80697D01*
X684191Y80543D01*
X684213Y80545D01*
X684240Y80541D01*
X696240Y80541D01*
X696261Y80545D01*
G37*
D10*
X35000Y715000D03*
X715000Y715000D03*
X715000Y35000D03*
D11*
X35000Y35000D03*
D12*
X719400Y452700D03*
D13*
X300300Y643200D03*
X325700Y643200D03*
X351100Y643200D03*
X376500Y643200D03*
X401900Y643200D03*
X427300Y643200D03*
X452700Y643200D03*
X478100Y643200D03*
X503500Y643200D03*
X528900Y643200D03*
X554300Y643200D03*
X579700Y643200D03*
X605100Y643200D03*
X630500Y643200D03*
X655900Y643200D03*
X681300Y643200D03*
X579700Y440000D03*
X554300Y440000D03*
X528900Y440000D03*
X503500Y440000D03*
X478100Y440000D03*
X452700Y440000D03*
X427300Y440000D03*
X401900Y440000D03*
X376500Y440000D03*
X351100Y440000D03*
X325700Y440000D03*
X300300Y440000D03*
D14*
X290000Y720000D03*
X310066Y720000D03*
X329878Y720000D03*
D15*
X660400Y521970D03*
D16*
X546100Y521970D03*
D15*
X660400Y589280D03*
D16*
X546100Y589280D03*
D17*
X715000Y497540D03*
D18*
X689600Y497540D03*
D17*
X715000Y587540D03*
D18*
X689600Y587540D03*
D14*
X110000Y720000D03*
X134892Y720000D03*
X182670Y336980D03*
X182670Y357046D03*
X182670Y376858D03*
X114970Y360860D03*
X94904Y360860D03*
X75092Y360860D03*
D19*
X628240Y249970D03*
D20*
X675240Y249970D03*
X722240Y249970D03*
D21*
X568280Y96770D03*
X561780Y96770D03*
X555280Y96770D03*
X555280Y115770D03*
X568280Y115770D03*
D22*
X504700Y198100D03*
X504700Y247220D03*
D23*
X342320Y317020D03*
X342320Y329720D03*
X342320Y342420D03*
X342320Y355120D03*
D24*
X398520Y355120D03*
X398520Y342420D03*
X398520Y329720D03*
X398520Y317020D03*
D25*
X375920Y336070D03*
D26*
X393420Y315240D03*
X393420Y356900D03*
D27*
X404120Y97260D03*
D28*
X476120Y97260D03*
D29*
X689060Y332940D03*
X689060Y382978D03*
D30*
X395820Y189400D03*
D31*
X395820Y239400D03*
D14*
X490000Y720000D03*
X510066Y720000D03*
X529878Y720000D03*
X390000Y720000D03*
X410066Y720000D03*
X429878Y720000D03*
D27*
X474000Y335000D03*
D28*
X546000Y335000D03*
D32*
X186950Y492790D03*
X174250Y511840D03*
X161550Y492790D03*
D15*
X304720Y483710D03*
D16*
X304720Y598010D03*
D15*
X273470Y545830D03*
D16*
X159170Y545830D03*
D15*
X126700Y593280D03*
D16*
X126700Y478980D03*
D15*
X57810Y613290D03*
D16*
X57810Y498990D03*
D15*
X91620Y463500D03*
D16*
X91620Y577800D03*
D15*
X133400Y159780D03*
D16*
X247700Y159780D03*
D15*
X132950Y192260D03*
D16*
X247250Y192260D03*
D33*
X463810Y570800D03*
X463810Y545400D03*
X463810Y520000D03*
D34*
X124600Y443400D03*
D35*
X175400Y443400D03*
X251600Y443400D03*
X48400Y646600D03*
X150000Y646600D03*
X251600Y646600D03*
D36*
X294150Y253230D03*
X294150Y151630D03*
X294150Y50030D03*
X90950Y50030D03*
X90950Y126230D03*
X90950Y177030D03*
D15*
X247540Y261790D03*
D16*
X133240Y261790D03*
D37*
X154660Y46650D03*
X173710Y59350D03*
X154660Y72050D03*
D15*
X134040Y125530D03*
D16*
X248340Y125530D03*
D32*
X255370Y495810D03*
X242670Y514860D03*
X229970Y495810D03*
D15*
X133150Y228000D03*
D16*
X247450Y228000D03*
D15*
X374720Y483710D03*
D16*
X374720Y598010D03*
D15*
X338890Y484090D03*
D16*
X338890Y598390D03*
D38*
X268300Y322030D03*
D39*
X268300Y357030D03*
D40*
X690240Y89040D03*
X685240Y136540D03*
X690240Y184040D03*
X643240Y89040D03*
X643240Y184040D03*
D41*
X625240Y136540D03*
D42*
X717740Y136540D03*
D43*
X690240Y138540D03*
D15*
X545000Y490000D03*
D16*
X659300Y490000D03*
D44*
X662940Y115570D03*
X576072Y104394D03*
M02*
